<svg width="55" height="60" viewBox="0 0 55 60" fill="none" xmlns="http://www.w3.org/2000/svg">
<g clip-path="url(#clip0)">
<path d="M32.6562 7.45996H6.30208C2.81875 7.45996 0 10.5186 0 14.2984V45.3822C0 49.162 2.81875 52.2206 6.30208 52.2206H23.2146L23.7188 49.162C23.9502 47.7694 24.5438 46.5261 25.4627 45.5065L28.4419 42.2738H8.59375C7.65417 42.2738 6.875 41.4283 6.875 40.4088C6.875 39.3892 7.65417 38.5437 8.59375 38.5437H30.3646C30.7771 38.5437 31.1667 38.7178 31.4646 38.9913L38.9583 30.8847V14.2984C38.9583 10.5186 36.1396 7.45996 32.6562 7.45996ZM30.3646 34.192H8.59375C7.65417 34.192 6.875 33.3465 6.875 32.327C6.875 31.3074 7.65417 30.462 8.59375 30.462H30.3646C31.3042 30.462 32.0833 31.3074 32.0833 32.327C32.0833 33.3465 31.3042 34.192 30.3646 34.192ZM30.3646 26.1102H8.59375C7.65417 26.1102 6.875 25.2647 6.875 24.2452C6.875 23.2257 7.65417 22.3802 8.59375 22.3802H30.3646C31.3042 22.3802 32.0833 23.2257 32.0833 24.2452C32.0833 25.2647 31.3042 26.1102 30.3646 26.1102Z" fill="#2196F3"/>
<path d="M28.0728 4.9734H25.5519C24.7957 2.1137 22.3665 0 19.479 0C16.5915 0 14.1623 2.1137 13.4061 4.9734H10.8853C9.94567 4.9734 9.1665 5.81888 9.1665 6.83843V11.8118C9.1665 14.1991 10.9769 16.1636 13.1769 16.1636H25.7811C27.9811 16.1636 29.7915 14.1991 29.7915 11.8118V6.83843C29.7915 5.81888 29.0123 4.9734 28.0728 4.9734Z" fill="#1976D2"/>
<path d="M32.0833 24.2454C32.0833 25.2649 31.3042 26.1104 30.3646 26.1104H8.59375C7.65417 26.1104 6.875 25.2649 6.875 24.2454C6.875 23.2258 7.65417 22.3804 8.59375 22.3804H30.3646C31.3042 22.3804 32.0833 23.2258 32.0833 24.2454Z" fill="white"/>
<path d="M32.0833 32.3272C32.0833 33.3467 31.3042 34.1922 30.3646 34.1922H8.59375C7.65417 34.1922 6.875 33.3467 6.875 32.3272C6.875 31.3076 7.65417 30.4622 8.59375 30.4622H30.3646C31.3042 30.4622 32.0833 31.3076 32.0833 32.3272Z" fill="white"/>
<path d="M31.4646 38.9914L28.4396 42.2739H8.59375C7.65417 42.2739 6.875 41.4284 6.875 40.4088C6.875 39.3893 7.65417 38.5438 8.59375 38.5438H30.3646C30.7771 38.5438 31.1667 38.7179 31.4646 38.9914Z" fill="white"/>
<path d="M9.16667 7.45996H6.30208C2.81875 7.45996 0 10.5186 0 14.2984V45.3822C0 49.162 2.81875 52.2206 6.30208 52.2206H19.4792V42.2738H8.59375C7.65417 42.2738 6.875 41.4283 6.875 40.4088C6.875 39.3892 7.65417 38.5437 8.59375 38.5437H19.4792V34.192H8.59375C7.65417 34.192 6.875 33.3465 6.875 32.327C6.875 31.3074 7.65417 30.462 8.59375 30.462H19.4792V26.1102H8.59375C7.65417 26.1102 6.875 25.2647 6.875 24.2452C6.875 23.2257 7.65417 22.3802 8.59375 22.3802H19.4792V16.1634H13.1771C10.9771 16.1634 9.16667 14.1989 9.16667 11.8117V7.45996Z" fill="#1D83D4"/>
<path d="M19.479 0C16.5915 0 14.1623 2.1137 13.4061 4.9734H10.8853C9.94567 4.9734 9.1665 5.81888 9.1665 6.83843V7.46011V11.8118C9.1665 14.1991 10.9769 16.1636 13.1769 16.1636H19.479V0Z" fill="#1667B7"/>
<path d="M19.4792 22.3804H8.59375C7.65417 22.3804 6.875 23.2258 6.875 24.2454C6.875 25.2649 7.65417 26.1104 8.59375 26.1104H19.4792V22.3804Z" fill="#DEDEDE"/>
<path d="M19.4792 30.462H8.59375C7.65417 30.462 6.875 31.3075 6.875 32.3271C6.875 33.3466 7.65417 34.1921 8.59375 34.1921H19.4792V30.462Z" fill="#DEDEDE"/>
<path d="M19.4792 38.5439H8.59375C7.65417 38.5439 6.875 39.3894 6.875 40.409C6.875 41.4285 7.65417 42.274 8.59375 42.274H19.4792V38.5439Z" fill="#DEDEDE"/>
<path d="M28.7076 59.6809C28.2561 59.6809 27.8161 59.487 27.493 59.1339C27.0966 58.7037 26.9178 58.0919 27.0164 57.4901L28.2309 50.0176C28.2905 49.6421 28.4601 49.294 28.7076 49.0254L45.7232 30.5616C47.8132 28.2913 49.8666 28.903 50.9895 30.1215L53.8243 33.1976C55.3895 34.896 55.3895 37.6537 53.8243 39.3521L36.8086 57.8159C36.5611 58.087 36.2403 58.2685 35.892 58.3356L29.0055 59.6511L28.7076 59.6809ZM35.5941 56.4979H35.617H35.5941Z" fill="#FFC107"/>
<path d="M48.652 29.0322C47.7536 29.0322 46.743 29.455 45.7232 30.5615L28.7076 49.0253C28.4601 49.2939 28.2905 49.642 28.2309 50.0175L27.0164 57.49C26.9178 58.0918 27.0966 58.7036 27.493 59.1338C27.5114 59.1536 27.5274 59.1711 27.5457 59.1885L52.6601 31.9342L50.9872 30.1189C50.4143 29.4972 49.5939 29.0322 48.652 29.0322Z" fill="#DEA806"/>
</g>
<defs>
<clipPath id="clip0">
<rect width="55" height="59.6809" fill="white"/>
</clipPath>
</defs>
</svg>
