<svg width="143" height="111" viewBox="0 0 143 111" fill="none" xmlns="http://www.w3.org/2000/svg">
<path d="M139.937 108.174H74.4274L72.3516 106.098V91.7011C72.3516 83.8148 75.7501 76.7224 81.1625 71.8083H133.202C138.615 76.7224 142.013 83.8148 142.013 91.7011V106.098L139.937 108.174Z" fill="#86DCFF"/>
<path d="M73.5049 110.25H84.4907L86.1057 108.312L87.7207 110.25H126.644L128.259 108.312L129.874 110.25H140.86C141.497 110.25 142.013 109.734 142.013 109.097V106.098H72.3516V109.097C72.3516 109.734 72.8679 110.25 73.5049 110.25Z" fill="#56CAED"/>
<path d="M107.183 87.5448L124.547 68.4378L124.432 66.4875C121.54 65.4221 118.414 64.8396 115.152 64.8396H99.2129C95.9812 64.8396 92.8834 65.4113 90.0137 66.4578L90.1041 68.7528L107.183 87.5448Z" fill="#E4EEF9"/>
<path d="M89.9332 66.4888C89.0051 66.8307 88.1007 67.2213 87.2239 67.6593L87.9379 70.7293L107.183 91.6966L126.623 70.5138L127.141 67.6593C126.264 67.2213 125.36 66.8305 124.432 66.4888L108.036 84.5299C107.578 85.0334 106.787 85.0334 106.329 84.5299L89.9332 66.4888Z" fill="#D5E0F2"/>
<path d="M107.182 87.5449C107.182 87.5449 110.171 84.2568 112.068 82.1692L112.496 79.6227L111.223 72.6485L107.182 70.5723L103.142 72.6481L101.869 79.6222L102.297 82.1688L107.182 87.5449Z" fill="#FF5876"/>
<path d="M111.223 72.6482H103.142L101.379 64.8398H112.986L111.223 72.6482Z" fill="#E6485D"/>
<path d="M113.126 83.0797L112.496 79.6223L108.036 84.5297C107.578 85.0332 106.786 85.0332 106.329 84.5297L101.869 79.6223L101.238 83.0797L107.182 93.7722L113.126 83.0797Z" fill="#E6485D"/>
<path d="M87.2236 67.6594C85.8546 68.3435 84.5516 69.1405 83.3276 70.0391L83.5925 72.4064L104.622 95.546C105.995 97.0565 108.37 97.0565 109.742 95.546L131 72.1558L131.037 70.0391C129.813 69.1407 128.51 68.3435 127.141 67.6594L107.979 88.7439C107.552 89.2139 106.813 89.2139 106.386 88.7439L87.2236 67.6594Z" fill="#FFCF4D"/>
<path d="M109.743 93.47C108.37 94.9806 105.995 94.9806 104.622 93.47L83.3282 70.0395C82.5756 70.5918 81.8525 71.1821 81.1626 71.8085L104.622 97.6216C105.995 99.1322 108.37 99.1322 109.743 97.6216L133.202 71.8083C132.512 71.1819 131.789 70.5918 131.036 70.0393L109.743 93.47Z" fill="#FFB629"/>
<path d="M87.4571 41.9646L85.3813 36.3769C85.1341 36.3515 84.8834 36.3384 84.6295 36.3384C81.3675 36.3384 78.6074 38.487 77.687 41.4461C77.4747 42.1289 77.6769 48.8014 84.6295 48.8014L85.4368 46.6797L87.4571 41.9646Z" fill="#FFC4AD"/>
<path d="M84.6295 46.7256C81.3362 46.7256 78.5561 44.535 77.6627 41.532C77.4669 42.19 77.3601 42.8862 77.3601 43.6078C77.3601 47.6224 80.6146 50.8772 84.6295 50.8772C85.1375 50.8772 85.6329 50.8246 86.1116 50.7256L87.7695 48.8014L85.4385 46.6795C85.1728 46.7092 84.903 46.7256 84.6295 46.7256Z" fill="#FFB69F"/>
<path d="M126.908 41.9646L128.984 36.3769C129.231 36.3515 129.481 36.3384 129.735 36.3384C132.997 36.3384 135.757 38.487 136.678 41.4461C136.89 42.1289 136.688 48.8014 129.735 48.8014L128.928 46.6797L126.908 41.9646Z" fill="#FFC4AD"/>
<path d="M129.735 46.7256C133.028 46.7256 135.809 44.535 136.702 41.532C136.898 42.19 137.005 42.8862 137.005 43.6078C137.005 47.6224 133.75 50.8772 129.735 50.8772C129.227 50.8772 128.732 50.8246 128.253 50.7256L126.595 48.8014L128.926 46.6795C129.192 46.7092 129.462 46.7256 129.735 46.7256Z" fill="#FFB69F"/>
<path d="M85.3813 13.9944V40.963V43.0388C85.3813 55.0793 95.1421 64.8399 107.182 64.8399C119.223 64.8399 128.983 55.0793 128.983 43.0388V40.963V13.9944H85.3813Z" fill="#FFE0CC"/>
<path d="M107.182 62.7637C95.1421 62.7637 85.3813 53.0031 85.3813 40.9626V45.1142C85.3813 57.1547 95.1421 66.9153 107.182 66.9153C119.223 66.9153 128.983 57.1547 128.983 45.1142V40.9626C128.983 53.0031 119.223 62.7637 107.182 62.7637Z" fill="#FFCEB3"/>
<path d="M127.979 29.4241C124.071 26.0919 120.655 22.4041 120.655 22.4041C114.43 27.4075 109.752 27.8468 109.752 27.8468L105.177 23.3823C97.3974 29.2426 88.4142 30.3998 85.9652 30.3389C85.5929 30.3296 85.2243 30.2689 84.8675 30.1597C79.1608 28.4129 77.0046 24.9523 77.0046 24.9523C77.0046 24.9523 76.3378 23.4366 77.3905 23.2342C82.9011 22.1741 84.8382 18.3981 84.8382 18.3981C78.7047 18.5835 76.7232 14.0363 76.0981 11.5365C75.9054 10.766 76.5216 10.0402 77.3134 10.1024C88.7684 11.004 91.5486 3.94455 102.32 0.763233C113.545 -2.55202 121.493 6.01001 121.493 6.01001C121.493 6.01001 132.869 4.9116 133.845 16.5089C134.778 27.5936 127.979 29.4241 127.979 29.4241Z" fill="#2D4456"/>
<path d="M128.179 27.4158C125.429 25.4707 122.905 21.8712 121.595 19.81C121.164 19.1307 120.195 19.1035 119.703 19.7398C114.989 25.8268 105.177 23.3822 105.177 23.3822C105.177 23.3822 107.587 26.3329 107.581 29.7989C107.58 30.5443 108.263 31.0992 108.989 30.9337C111.759 30.3023 117.556 28.3135 120.655 22.4041C120.655 22.4041 124.176 28.7349 128.177 31.5661C128.646 31.8986 129.289 31.834 129.683 31.4141C131.18 29.815 134.504 25.2538 133.862 16.7588C133.383 22.6203 130.919 25.941 129.685 27.259C129.292 27.6798 128.65 27.7487 128.179 27.4158Z" fill="#253847"/>
<path d="M105.421 22.0144C105.577 20.9306 104.278 20.2545 103.491 21.0152C96.4935 27.7754 88.2291 28.3191 85.9651 28.2627C85.5927 28.2534 85.2241 28.1927 84.8673 28.0835C82.0966 27.2355 79.4166 25.152 77.3901 23.2321C76.9883 23.3094 76.5678 23.3725 76.1276 23.4188C75.1886 23.5172 74.7538 24.6382 75.3884 25.3374C77.3832 27.5353 81.0408 31.0639 84.8673 32.2351C85.2243 32.3443 85.5927 32.405 85.9651 32.4143C88.414 32.4752 97.8843 31.8339 105.177 23.382C105.284 22.8643 105.363 22.411 105.421 22.0144Z" fill="#253847"/>
<path d="M87.7207 94.311V106.098L86.1057 108.174L84.4907 106.098V94.311C84.4907 93.4174 85.2142 92.696 86.1057 92.696C86.9993 92.696 87.7207 93.4174 87.7207 94.311Z" fill="#4EA1F4"/>
<path d="M84.4907 106.098H87.7207V110.25H84.4907V106.098Z" fill="#3292E0"/>
<path d="M129.874 94.311V106.098L128.259 108.174L126.644 106.098V94.311C126.644 93.4174 127.368 92.696 128.259 92.696C129.153 92.696 129.874 93.4174 129.874 94.311Z" fill="#4EA1F4"/>
<path d="M126.644 106.098H129.874V110.25H126.644V106.098Z" fill="#3292E0"/>
<path d="M107.183 56.2275C113.332 56.2275 115.191 51.9058 115.272 51.7096C115.273 51.7092 115.273 51.7086 115.273 51.7083C115.763 50.6076 114.892 49.2792 113.679 49.3063C112.958 49.3063 112.34 49.7475 112.08 50.3744C111.993 50.5595 110.87 52.768 107.183 52.768C103.496 52.768 102.373 50.5608 102.285 50.3746C102.025 49.7477 101.408 49.3065 100.687 49.3065C99.4734 49.2792 98.6026 50.608 99.0925 51.7086C99.0927 51.7088 99.093 51.7096 99.0932 51.7099C99.1739 51.9058 101.033 56.2275 107.183 56.2275Z" fill="#FF5876"/>
<path d="M96.6184 36.6843C95.663 36.6843 94.8887 37.4589 94.8887 38.4141V43.3017C94.8887 44.2571 95.6632 45.0315 96.6184 45.0315C97.5739 45.0315 98.3482 44.2569 98.3482 43.3017V38.4141C98.3482 37.4589 97.5739 36.6843 96.6184 36.6843Z" fill="#2D4456"/>
<path d="M117.746 45.0319C118.702 45.0319 119.476 44.2574 119.476 43.3022V38.4146C119.476 37.4591 118.702 36.6848 117.746 36.6848C116.791 36.6848 116.017 37.4594 116.017 38.4146V43.3022C116.017 44.2574 116.791 45.0319 117.746 45.0319Z" fill="#2D4456"/>
<path d="M67.4025 71.5477C68.6874 27.5767 63.2511 0 34.8308 0C6.40609 0 0.971976 27.5653 2.25902 71.5477H67.4025Z" fill="#2D4456"/>
<path d="M43.618 60.6882H26.0435C16.2984 60.6882 7.65608 64.9596 2.25879 71.5476C2.36344 74.3299 2.49113 77.1702 2.64057 80.0722H2.64079C2.64057 80.0722 67.0203 80.0722 67.0203 80.0722H67.0205C67.17 77.1702 67.2979 74.3299 67.4023 71.5476C62.0054 64.9596 53.3631 60.6882 43.618 60.6882Z" fill="#253847"/>
<path d="M67.5858 108.174H2.0758L0 106.098V91.7011C0 83.8148 3.39858 76.7224 8.81095 71.8083H60.8506C66.263 76.7224 69.6616 83.8148 69.6616 91.7011V106.098L67.5858 108.174Z" fill="#86DCFF"/>
<path d="M1.15332 110.25H12.1391L13.7541 108.312L15.3691 110.25H54.2925L55.9075 108.312L57.5225 110.25H68.5083C69.1452 110.25 69.6616 109.734 69.6616 109.097V106.099H0V109.097C0 109.734 0.516365 110.25 1.15332 110.25Z" fill="#56CAED"/>
<path d="M34.831 87.5449L52.1955 68.4378L52.0808 66.4878C49.1884 65.4223 46.0627 64.8398 42.8006 64.8398H26.8613C23.6296 64.8398 20.5318 65.4116 17.6621 66.4581L17.7525 68.7531L34.831 87.5449Z" fill="#E4EEF9"/>
<path d="M17.5816 66.4888C16.6535 66.8307 15.7491 67.2213 14.8723 67.6593L15.5864 70.7293L34.831 91.6966L54.2714 70.5138L54.7897 67.6593C53.9129 67.2213 53.0085 66.8307 52.0804 66.4888L35.6844 84.5299C35.2268 85.0334 34.435 85.0334 33.9774 84.5299L17.5816 66.4888Z" fill="#D5E0F2"/>
<path d="M34.8309 87.5449C34.8309 87.5449 37.8191 84.2568 39.7163 82.1692L40.1442 79.6227L38.8718 72.6485L34.8309 70.5723L30.79 72.6481L29.5176 79.6224L29.9454 82.169L34.8309 87.5449Z" fill="#FF5876"/>
<path d="M38.8716 72.6482H30.7898L29.0271 64.8398H40.6343L38.8716 72.6482Z" fill="#E6485D"/>
<path d="M40.775 83.0797L40.144 79.6223L35.6841 84.5297C35.2265 85.0332 34.4347 85.0332 33.9771 84.5297L29.5172 79.6223L28.8865 83.0797L34.8307 93.7722L40.775 83.0797Z" fill="#E6485D"/>
<path d="M14.8721 67.6594C13.5028 68.3435 12.2 69.1407 10.9761 70.0391L11.2409 72.4064L32.2702 95.546C33.643 97.0565 36.0181 97.0565 37.3908 95.546L58.648 72.1558L58.685 70.0391C57.4611 69.1407 56.1581 68.3435 54.789 67.6594L35.6275 88.7439C35.2003 89.2139 34.461 89.2139 34.034 88.7439L14.8721 67.6594Z" fill="#FFCF4D"/>
<path d="M37.3912 93.47C36.0184 94.9806 33.6433 94.9806 32.2706 93.47L10.9766 70.0395C10.224 70.5918 9.50096 71.1821 8.81104 71.8085L32.2706 97.6216C33.6433 99.1322 36.0184 99.1322 37.3912 97.6216L60.8505 71.8083C60.1606 71.1819 59.4375 70.5918 58.6849 70.0393L37.3912 93.47Z" fill="#FFB629"/>
<path d="M15.3691 94.311V106.098L13.7541 108.174L12.1392 106.098V94.311C12.1392 93.4174 12.8627 92.696 13.7541 92.696C14.6478 92.696 15.3691 93.4174 15.3691 94.311Z" fill="#4EA1F4"/>
<path d="M12.1392 106.099H15.3691V110.25H12.1392V106.099Z" fill="#3292E0"/>
<path d="M57.5225 94.311V106.098L55.9075 108.174L54.2925 106.098V94.311C54.2925 93.4174 55.016 92.696 55.9075 92.696C56.8011 92.696 57.5225 93.4174 57.5225 94.311Z" fill="#4EA1F4"/>
<path d="M54.2925 106.099H57.5225V110.25H54.2925V106.099Z" fill="#3292E0"/>
<path d="M51.1549 21.9961L48.9254 28.4171C48.442 29.8088 47.1304 30.7419 45.6571 30.7419H24.0046C22.5313 30.7419 21.2197 29.8088 20.7363 28.4171L18.4678 21.8842C18.1547 20.9824 16.9096 20.904 16.4859 21.7595L13.0298 28.7365V40.963V43.0388C13.0298 55.0793 22.7904 64.8399 34.8309 64.8399C46.8713 64.8399 56.6319 55.0791 56.6319 43.0388V40.963V29.5267L53.1515 21.9025C52.7482 21.0188 51.4736 21.0788 51.1549 21.9961Z" fill="#FFE0CC"/>
<path d="M34.8309 62.7637C22.7904 62.7637 13.0298 53.0031 13.0298 40.9626V45.1142C13.0298 57.1545 22.7904 66.9153 34.8309 66.9153C46.8713 66.9153 56.6319 57.1547 56.6319 45.1142V40.9626C56.6319 53.0031 46.8713 62.7637 34.8309 62.7637Z" fill="#FFCEB3"/>
<path d="M24.2669 36.6843C23.3114 36.6843 22.5371 37.4589 22.5371 38.4143V43.3019C22.5371 44.2573 23.3117 45.0317 24.2669 45.0317C25.2223 45.0317 25.9968 44.2571 25.9968 43.3019V38.4143C25.9966 37.4589 25.2223 36.6843 24.2669 36.6843Z" fill="#2D4456"/>
<path d="M45.3948 45.0319C46.3502 45.0319 47.1245 44.2574 47.1245 43.3021V38.4145C47.1245 37.4591 46.3502 36.6846 45.3948 36.6846C44.4393 36.6846 43.6648 37.4591 43.6648 38.4145V43.3021C43.6648 44.2574 44.4391 45.0319 45.3948 45.0319Z" fill="#2D4456"/>
<path d="M34.831 56.2275C40.9804 56.2275 42.8396 51.9058 42.9208 51.7096C42.9208 51.7092 42.9212 51.7086 42.9214 51.7083C43.4113 50.6076 42.5405 49.2792 41.3271 49.3063C40.6062 49.3063 39.9888 49.7475 39.7289 50.3744C39.6415 50.5595 38.5185 52.768 34.8312 52.768C31.1447 52.768 30.0215 50.5608 29.9335 50.3746C29.6736 49.7477 29.0562 49.3065 28.3353 49.3065C27.1219 49.2792 26.2511 50.608 26.741 51.7086C26.7412 51.7088 26.7414 51.7096 26.7416 51.7099C26.8224 51.9058 28.6815 56.2275 34.831 56.2275Z" fill="#FF5876"/>
</svg>
