<svg width="80" height="109" viewBox="0 0 80 109" fill="none" xmlns="http://www.w3.org/2000/svg">
<path d="M61.2481 35.5405C50.8917 35.5405 43.3688 29.1084 43.3688 18.7518C43.3688 14.5958 44.723 10.7575 47.0111 7.64893H14.2188L0 21.868V105.213C0 106.984 1.43529 108.419 3.206 108.419H63.4624C65.2332 108.419 66.6684 106.984 66.6684 105.213V34.7417C64.9519 35.259 63.1332 35.5405 61.2481 35.5405Z" fill="#DFEBFA"/>
<path d="M7.10931 14.7588L0 21.8683V105.214C0 106.984 1.43529 108.42 3.206 108.42H7.10952V14.7588H7.10931Z" fill="#B1DBFC"/>
<path d="M0 21.868H11.013C12.7838 21.868 14.219 20.4327 14.219 18.662V7.64893L0 21.868Z" fill="#DFEBFA"/>
<path d="M0 21.868H11.013C12.7838 21.868 14.219 20.4327 14.219 18.662V7.64893L0 21.868Z" fill="#B1DBFC"/>
<path d="M0 21.868H7.10931L14.2188 14.7584V7.64893L0 21.868Z" fill="#8BCAFF"/>
<path d="M61.248 37.5038C71.6044 37.5038 79.9999 29.1083 79.9999 18.7519C79.9999 8.39551 71.6044 0 61.248 0C50.8916 0 42.4961 8.39551 42.4961 18.7519C42.4961 29.1083 50.8916 37.5038 61.248 37.5038Z" fill="#FF656F"/>
<path d="M51.3257 18.7519C51.3257 9.91678 57.4377 2.51334 65.6629 0.527698C64.2465 0.185711 62.7693 0 61.248 0C50.8916 0 42.4961 8.39552 42.4961 18.7519C42.4961 29.1083 50.8916 37.5038 61.248 37.5038C62.7693 37.5038 64.2465 37.3181 65.6627 36.9761C57.4377 34.9905 51.3257 27.587 51.3257 18.7519Z" fill="#FF4756"/>
<path d="M12.4995 47.1609L9.16136 43.8228C7.96282 42.6243 7.96282 40.681 9.16136 39.4822C10.3599 38.2835 12.3034 38.2835 13.5019 39.4822L14.67 40.65L17.5196 37.8004C18.7182 36.6017 20.6617 36.6017 21.8602 37.8004C23.0587 38.999 23.0587 40.9423 21.8602 42.141L16.8403 47.1609C15.6417 48.3595 13.698 48.3595 12.4995 47.1609Z" fill="#43CB8E"/>
<path d="M12.4995 63.3811L9.16136 60.043C7.96282 58.8445 7.96282 56.9012 9.16136 55.7024C10.3599 54.5037 12.3034 54.5037 13.5019 55.7024L14.67 56.8703L17.5196 54.0206C18.7182 52.8219 20.6617 52.8219 21.8602 54.0206C23.0587 55.2192 23.0587 57.1625 21.8602 58.3612L16.8401 63.3811C15.6418 64.5797 13.698 64.5799 12.4995 63.3811Z" fill="#43CB8E"/>
<path d="M12.4995 79.6009L9.16136 76.2627C7.96282 75.0642 7.96282 73.1209 9.16136 71.9221C10.3599 70.7234 12.3034 70.7234 13.5019 71.9221L14.67 73.09L17.5196 70.2404C18.7182 69.0416 20.6617 69.0416 21.8602 70.2404C23.0587 71.4389 23.0587 73.3822 21.8602 74.581L16.8403 79.6009C15.6417 80.7994 13.698 80.7996 12.4995 79.6009Z" fill="#43CB8E"/>
<path d="M56.3669 39.252H31.6701C30.544 39.252 29.6311 40.1648 29.6311 41.291V43.6703C29.6311 44.7964 30.544 45.7093 31.6701 45.7093H56.3669C57.493 45.7093 58.4059 44.7964 58.4059 43.6703V41.291C58.4059 40.1648 57.493 39.252 56.3669 39.252Z" fill="#8479C2"/>
<path d="M56.3669 55.4722H31.6701C30.544 55.4722 29.6311 56.3851 29.6311 57.5112V59.8905C29.6311 61.0166 30.544 61.9295 31.6701 61.9295H56.3669C57.493 61.9295 58.4059 61.0166 58.4059 59.8905V57.5112C58.4059 56.3851 57.493 55.4722 56.3669 55.4722Z" fill="#8479C2"/>
<path d="M56.3669 71.6924H31.6701C30.544 71.6924 29.6311 72.6053 29.6311 73.7314V76.1107C29.6311 77.2368 30.544 78.1497 31.6701 78.1497H56.3669C57.493 78.1497 58.4059 77.2368 58.4059 76.1107V73.7314C58.4059 72.6053 57.493 71.6924 56.3669 71.6924Z" fill="#8479C2"/>
<path d="M12.4995 95.8211L9.16136 92.483C7.96282 91.2844 7.96282 89.3411 9.16136 88.1424C10.3599 86.9436 12.3034 86.9436 13.5019 88.1424L14.67 89.3102L17.5196 86.4606C18.7182 85.2618 20.6617 85.2618 21.8602 86.4606C23.0587 87.6591 23.0587 89.6024 21.8602 90.8012L16.8403 95.8211C15.6417 97.0198 13.698 97.0198 12.4995 95.8211Z" fill="#43CB8E"/>
<path d="M56.3669 87.9121H31.6701C30.544 87.9121 29.6311 88.825 29.6311 89.9511V92.3304C29.6311 93.4565 30.544 94.3694 31.6701 94.3694H56.3669C57.493 94.3694 58.4059 93.4565 58.4059 92.3304V89.9511C58.4059 88.825 57.493 87.9121 56.3669 87.9121Z" fill="#8479C2"/>
<path d="M40.9429 43.6698V41.2905C40.9429 40.1643 41.8558 39.2515 42.9819 39.2515H31.6701C30.544 39.2515 29.6311 40.1643 29.6311 41.2905V43.6698C29.6311 44.7959 30.544 45.7088 31.6701 45.7088H42.9819C41.8558 45.7088 40.9429 44.7959 40.9429 43.6698Z" fill="#6E60B8"/>
<path d="M40.9429 59.8898V57.5107C40.9429 56.3846 41.8558 55.4717 42.9819 55.4717H31.6701C30.544 55.4717 29.6311 56.3846 29.6311 57.5107V59.89C29.6311 61.0161 30.544 61.929 31.6701 61.929H42.9819C41.8558 61.9288 40.9429 61.0159 40.9429 59.8898Z" fill="#6E60B8"/>
<path d="M40.9429 76.1102V73.7309C40.9429 72.6048 41.8558 71.6919 42.9819 71.6919H31.6701C30.544 71.6919 29.6311 72.6048 29.6311 73.7309V76.1102C29.6311 77.2363 30.544 78.1492 31.6701 78.1492H42.9819C41.8558 78.149 40.9429 77.2363 40.9429 76.1102Z" fill="#6E60B8"/>
<path d="M40.9429 92.3304V89.9511C40.9429 88.825 41.8558 87.9121 42.9819 87.9121H31.6701C30.544 87.9121 29.6311 88.825 29.6311 89.9511V92.3304C29.6311 93.4565 30.544 94.3694 31.6701 94.3694H42.9819C41.8558 94.3694 40.9429 93.4565 40.9429 92.3304Z" fill="#6E60B8"/>
<path d="M61.3234 11.6708C61.0481 11.1325 60.4895 10.7804 59.8671 10.7793C59.2382 10.7793 58.6783 11.1418 58.4086 11.6708L50.4569 27.258C50.0463 28.0629 50.3658 29.0484 51.1707 29.459C51.9758 29.8694 52.9609 29.5501 53.3715 28.745L55.8264 23.9328H63.9049L66.3598 28.745C66.7708 29.5507 67.7568 29.869 68.5608 29.459C69.3657 29.0484 69.6852 28.0631 69.2748 27.258L61.3234 11.6708ZM57.4959 20.6607L59.8659 16.015L62.2358 20.6607H57.4959Z" fill="#DFEBFA"/>
<path d="M70.582 8.38218H69.0849V6.88506C69.0849 5.98149 68.3524 5.24902 67.4489 5.24902C66.5453 5.24902 65.8128 5.98149 65.8128 6.88506V8.38218H64.3157C63.4122 8.38218 62.6797 9.11464 62.6797 10.0182C62.6797 10.9218 63.4122 11.6542 64.3157 11.6542H65.8128V13.1514C65.8128 14.0549 66.5453 14.7874 67.4489 14.7874C68.3524 14.7874 69.0849 14.0549 69.0849 13.1514V11.6542H70.582C71.4856 11.6542 72.2181 10.9218 72.2181 10.0182C72.2181 9.11464 71.4858 8.38218 70.582 8.38218Z" fill="#DFEBFA"/>
</svg>
