<svg width="100" height="125" viewBox="0 0 100 125" fill="none" xmlns="http://www.w3.org/2000/svg">
<path d="M85.2972 93.2743H14.7027C9.92545 93.2743 6.10444 89.3059 6.28521 84.5315L8.46308 27.0593H91.5368L93.7147 84.5315C93.8954 89.3059 90.0744 93.2743 85.2972 93.2743Z" fill="#565C62"/>
<path d="M84.5373 124.708H15.4631V89.658C15.4631 86.4916 18.0311 83.9246 21.1975 83.9246H78.8029C81.9693 83.9246 84.5373 86.4916 84.5373 89.658V124.708Z" fill="#E6CB59"/>
<path d="M100 49.6201C100 54.3755 96.1447 58.2307 91.3894 58.2307C86.6341 58.2307 82.7788 54.3755 82.7788 49.6201C82.7788 44.8648 86.6341 41.0095 91.3894 41.0095C96.1447 41.0095 100 44.8648 100 49.6201Z" fill="#CC9883"/>
<path d="M17.2212 49.6201C17.2212 54.3755 13.3659 58.2307 8.6106 58.2307C3.85526 58.2307 0 54.3755 0 49.6201C0 44.8648 3.85526 41.0095 8.6106 41.0095C13.3659 41.0095 17.2212 44.8648 17.2212 49.6201Z" fill="#CC9883"/>
<path d="M10.3105 124.708C10.3105 102.788 28.0798 85.0183 50.0002 85.0183C71.9196 85.0183 89.6888 102.788 89.6888 124.708H10.3105Z" fill="#EFEDEE"/>
<path d="M56.9976 124.708L51.9796 102.129H47.7266L42.7078 124.708H56.9976Z" fill="#E36465"/>
<path d="M50.0005 87.1545H35.3777V95.9583C35.3777 95.9583 40.9551 99.3949 50.0005 99.3949C59.0449 99.3949 64.6223 95.9583 64.6223 95.9583V87.1545H50.0005Z" fill="#D9D7D8"/>
<path d="M53.7641 85.1972C52.5244 85.0811 51.2694 85.0183 50.0002 85.0183C28.0798 85.0183 10.3105 102.788 10.3105 124.708H17.8384C17.8384 104.058 33.6096 87.0934 53.7641 85.1972Z" fill="#D9D7D8"/>
<path d="M64.0591 87.5837V124.708H75.0997V93.9641C71.8162 91.2801 68.0942 89.1127 64.0591 87.5837Z" fill="#FADC60"/>
<path d="M24.9014 93.9641V124.708H35.942V87.5837C31.9059 89.1127 28.1848 91.2801 24.9014 93.9641Z" fill="#FADC60"/>
<path d="M93.4386 47.2022C93.4386 71.193 73.9901 90.6415 50.0003 90.6415C26.0096 90.6415 6.56104 71.193 6.56104 47.2022C6.56104 23.2124 26.0096 3.76392 50.0003 3.76392C73.9901 3.76392 93.4386 23.2124 93.4386 47.2022Z" fill="#FBC4AC"/>
<path d="M50.0003 3.76392C26.0096 3.76392 6.56104 23.2124 6.56104 47.2022C6.56104 71.193 26.0096 90.6415 50.0003 90.6415C51.2686 90.6415 52.5235 90.5835 53.7642 90.4769C31.5365 88.5683 14.0889 69.9247 14.0889 47.2022C14.0889 45.855 14.1526 44.5211 14.2725 43.2052C16.7501 41.9502 19.3865 40.2881 21.8755 38.0902L23.5101 41.2938C25.2722 44.7456 28.7754 46.8902 32.6507 46.8902H67.349C71.2252 46.8902 74.7275 44.7456 76.4895 41.2928L78.1251 38.0902C83.6064 42.9312 89.8079 45.1852 93.4253 46.1633C92.8735 22.653 73.6428 3.76392 50.0003 3.76392Z" fill="#E3B098"/>
<path d="M47.7724 103.292L45.0113 100.531C43.7811 99.3005 43.7811 97.3053 45.0113 96.0751L47.7724 93.314C49.0026 92.0838 50.9978 92.0838 52.229 93.314L54.9891 96.0751C56.2203 97.3053 56.2203 99.3005 54.9891 100.531L52.229 103.292C50.9978 104.523 49.0026 104.523 47.7724 103.292Z" fill="#FD6F71"/>
<path d="M50.0003 0C25.3502 0 5.05301 18.9918 2.97314 43.112C2.97314 43.112 15.1222 41.3594 22.8165 31.6575L26.8621 39.5821C27.9724 41.7571 30.2083 43.1262 32.6507 43.1262H67.349C69.7914 43.1262 72.0273 41.7571 73.1376 39.5821L77.1832 31.6575C84.8785 41.3594 97.0266 43.112 97.0266 43.112C94.9467 18.9918 74.6495 0 50.0003 0Z" fill="#596674"/>
<path d="M53.7643 0.15128C52.5217 0.053281 51.2667 0 50.0003 0C25.3502 0 5.05301 18.9918 2.97314 43.112C2.97314 43.112 6.40406 42.6172 10.7741 40.6972C13.7835 18.9585 31.6526 1.90385 53.7643 0.15128Z" fill="#565C62"/>
<path d="M50.0003 61.8457C47.6027 61.8457 45.3715 60.5536 44.1756 58.4738C43.6732 57.5994 43.9739 56.4824 44.8492 55.9791C45.7236 55.4767 46.8396 55.7783 47.3429 56.6527C47.8891 57.6023 48.9071 58.1922 50.0003 58.1922C51.0936 58.1922 52.1116 57.6023 52.6568 56.6527C53.1601 55.7783 54.2771 55.4767 55.1515 55.98C56.0259 56.4824 56.3275 57.5994 55.8241 58.4738C54.6282 60.5536 52.397 61.8457 50.0003 61.8457Z" fill="#464C51"/>
<path d="M66.1168 54.4371C65.1073 54.4371 64.29 53.6198 64.29 52.6103V49.7369C64.29 48.7274 65.1073 47.9102 66.1168 47.9102C67.1263 47.9102 67.9436 48.7274 67.9436 49.7369V52.6103C67.9436 53.6198 67.1263 54.4371 66.1168 54.4371Z" fill="#464C51"/>
<path d="M33.8829 54.4371C32.8744 54.4371 32.0562 53.6198 32.0562 52.6103V49.7369C32.0562 48.7274 32.8744 47.9102 33.8829 47.9102C34.8924 47.9102 35.7097 48.7274 35.7097 49.7369V52.6103C35.7097 53.6198 34.8924 54.4371 33.8829 54.4371Z" fill="#464C51"/>
<path d="M67.5537 59.8689H64.6803C63.6708 59.8689 62.8535 59.0516 62.8535 58.0421C62.8535 57.0336 63.6708 56.2153 64.6803 56.2153H67.5537C68.5632 56.2153 69.3804 57.0336 69.3804 58.0421C69.3804 59.0516 68.5622 59.8689 67.5537 59.8689Z" fill="#FD6F71"/>
<path d="M35.3205 59.8689H32.4462C31.4376 59.8689 30.6194 59.0516 30.6194 58.0421C30.6194 57.0336 31.4376 56.2153 32.4462 56.2153H35.3205C36.329 56.2153 37.1473 57.0336 37.1473 58.0421C37.1473 59.0516 36.329 59.8689 35.3205 59.8689Z" fill="#FD6F71"/>
</svg>
