<svg width="109" height="108" viewBox="0 0 109 108" fill="none" xmlns="http://www.w3.org/2000/svg">
    <path
        d="M38.7687 73.4646H102.481C105.922 73.4646 108.71 70.6757 108.71 67.2354V12.0329C108.71 8.5926 105.922 5.80371 102.481 5.80371H38.7687C35.3284 5.80371 32.5396 8.5926 32.5396 12.0329V67.2354C32.5396 70.6757 35.3284 73.4646 38.7687 73.4646Z"
        fill="#6EC17D" />
    <path
        d="M61.7866 71.4704C61.6379 71.4704 61.4872 71.45 61.3373 71.4071C60.4691 71.1594 59.9663 70.2548 60.2141 69.3869L72.848 25.1195C73.0958 24.2513 74.0003 23.7485 74.8683 23.9963C75.7365 24.2441 76.2393 25.1486 75.9915 26.0166L63.3575 70.2839C63.1524 71.002 62.4978 71.4704 61.7866 71.4704Z"
        fill="#665E66" />
    <path
        d="M86.5417 30.5239C86.5307 30.5239 86.5196 30.5237 86.5086 30.5237C85.7818 30.5091 85.1521 30.0163 84.9631 29.3145L82.8296 21.3899H80.0866C79.1838 21.3899 78.4521 20.6581 78.4521 19.7555C78.4521 18.8529 79.184 18.121 80.0866 18.121H84.0824C84.8215 18.121 85.4684 18.617 85.6608 19.3306L86.6593 23.0393L90.2069 11.7003C90.4203 11.0181 91.0521 10.554 91.7668 10.554H99.6789C100.582 10.554 101.313 11.2858 101.313 12.1884C101.313 13.091 100.581 13.8229 99.6789 13.8229H92.9679L88.1012 29.3778C87.8876 30.0606 87.2549 30.5239 86.5417 30.5239Z"
        fill="#DFEAEF" />
    <path
        d="M97.0286 32.8157C94.6026 32.8157 94.416 32.7533 94.1962 32.68C93.6618 32.5019 93.2616 32.0961 93.0987 31.5668C92.8242 30.6744 93.2526 30.1135 94.0306 29.0949C94.6627 28.2675 95.8388 26.7273 97.8104 23.9104C98.3518 23.1369 98.7151 22.4245 98.8648 21.8438L98.8992 21.574C98.8546 20.7565 98.1754 20.1051 97.3469 20.1051C96.6055 20.1051 95.9638 20.6315 95.8213 21.3565C95.6472 22.2424 94.7871 22.8195 93.9026 22.6454C93.0167 22.4715 92.4396 21.6122 92.6138 20.7264C93.0565 18.4721 95.0472 16.8359 97.3471 16.8359C100.007 16.8359 102.171 18.9997 102.171 21.6595C102.171 21.7287 102.166 21.798 102.158 21.8668L102.096 22.3489C102.089 22.4035 102.079 22.4574 102.067 22.511C101.832 23.522 101.301 24.6236 100.489 25.7848C99.3408 27.4246 98.4563 28.6416 97.7881 29.5417C98.7971 29.538 99.9508 29.5283 101.044 29.5145C101.948 29.5092 102.687 30.2258 102.699 31.1284C102.71 32.031 101.987 32.772 101.085 32.7832C99.2914 32.8062 97.9856 32.8157 97.0286 32.8157ZM94.9523 29.5153C94.9523 29.5155 94.9523 29.5155 94.9523 29.5153V29.5153Z"
        fill="#DFEAEF" />
    <path
        d="M11.9446 88.1787C11.9446 88.1787 6.81061 89.7085 5.04937 87.9473C3.28814 86.186 5.04937 81.6676 5.04937 81.6676L13.771 78.0984L11.9446 88.1787Z"
        fill="#F1D0A5" />
    <path
        d="M9.43648 88.6916C7.87165 88.8899 5.98451 88.8834 5.04943 87.9485C3.28862 86.1877 5.04943 81.6677 5.04943 81.6677L7.54042 80.6477L9.10738 81.6677C9.10738 81.6675 6.44419 86.1592 9.43648 88.6916Z"
        fill="#F1B986" />
    <path
        d="M39.5923 66.0606C39.5923 66.0606 42.8198 71.1995 43.5152 78.0992L43.8008 81.6668C43.8008 81.6668 44.8838 94.0171 41.4187 102.9H30.5874C30.5874 102.9 33.3028 90.3078 27.9199 84.925C22.5369 90.308 25.2525 102.9 25.2525 102.9H14.421C10.9558 94.0171 12.0389 81.6668 12.0389 81.6668H5.0498C5.0498 62.1268 12.9848 55.6715 14.3577 54.6997H41.4817C50.2841 57.7202 59.6684 59.5968 59.6684 59.5968L59.9408 63.1405L60.0302 64.2913C54.4686 67.6362 39.5923 66.0606 39.5923 66.0606Z"
        fill="#DFEAEF" />
    <path
        d="M60.0303 64.291C54.4686 67.6364 39.5923 66.0608 39.5923 66.0608L38.3152 62.9226C38.3152 62.9226 51.8292 65.9236 59.9409 63.1405L60.0303 64.291Z"
        fill="#B4D0D5" />
    <path
        d="M27.9196 81.4723C27.0168 81.4723 26.2852 80.7404 26.2852 79.8378V53.748C26.2852 52.8452 27.017 52.1135 27.9196 52.1135C28.8222 52.1135 29.5541 52.8454 29.5541 53.748V79.8378C29.5541 80.7404 28.8224 81.4723 27.9196 81.4723Z"
        fill="#B4D0D5" />
    <path d="M33.7341 55.4102L36.634 62.571L27.919 60.3412L19.2041 62.571L22.104 55.4102" fill="#B4D0D5" />
    <path
        d="M41.4191 102.899L40.6392 104.476L30.5878 102.899C30.5878 102.899 33.3021 90.3088 27.9191 84.9236C22.536 90.3088 25.2525 102.899 25.2525 102.899H14.4212C10.9554 94.0177 12.0391 81.6663 12.0391 81.6663C12.0391 80.4438 12.1542 79.2278 12.3236 78.0986H43.5169L43.8014 81.6663C43.8012 81.6663 44.8847 94.0177 41.4191 102.899Z"
        fill="#665E66" />
    <path
        d="M18.0643 54.6987C14.8352 59.0569 8.95278 68.7873 9.10693 81.6663H5.04834C5.04834 62.1252 12.9829 55.6716 14.3575 54.6987H18.0643Z"
        fill="#B4D0D5" />
    <path
        d="M17.6258 102.899L15.6467 105.449L14.4184 102.899C10.9529 94.0177 12.0363 81.6663 12.0363 81.6663C12.0363 80.4438 12.1514 79.2278 12.3209 78.0986H17.4608C16.3707 82.1768 15.0221 90.6432 17.6258 102.899Z"
        fill="#454045" />
    <path
        d="M33.4124 102.899H30.585C30.585 102.899 33.3015 90.309 27.9185 84.9238C33.4124 84.9238 36.2373 94.3827 33.4124 102.899Z"
        fill="#454045" />
    <path d="M11.1714 108H25.2523V102.9H16.2714C13.4547 102.9 11.1714 105.183 11.1714 108Z" fill="#AA593D" />
    <path
        d="M19.523 102.899C16.7065 102.899 14.4221 105.183 14.4221 108H11.1714C11.1714 105.183 13.4537 102.899 16.2699 102.899H19.523Z"
        fill="#934D36" />
    <path d="M44.6676 108H30.5867V102.9H39.5678C42.3843 102.9 44.6676 105.183 44.6676 108Z" fill="#AA593D" />
    <path
        d="M67.7757 62.0484V63.7984C67.7757 65.1517 66.6794 66.248 65.3261 66.248H62.1181C60.7647 66.248 59.6685 65.1517 59.6685 63.7984V59.5967H65.3261C66.6796 59.5965 67.7757 60.695 67.7757 62.0484Z"
        fill="#F1D0A5" />
    <path
        d="M63.9028 66.248H62.1181C60.7647 66.248 59.6685 65.1517 59.6685 63.7984V59.5967H63.7222C62.9068 62.0658 63.3383 64.5241 63.9028 66.248Z"
        fill="#F1B986" />
    <path
        d="M50.4949 39.3114H50.5266C53.2422 39.3114 55.4425 37.1092 55.4425 34.3954C55.4425 31.6798 53.2422 29.4778 50.5266 29.4778C50.4913 29.4778 50.4559 29.4778 50.4206 29.4797H5.40545C5.3702 29.4778 5.33474 29.4778 5.2995 29.4778C2.58387 29.4778 0.383545 31.68 0.383545 34.3954C0.383545 37.1092 2.58387 39.3114 5.2995 39.3114H5.33113"
        fill="#F1B986" />
    <path
        d="M49.3641 16.6407C35.0634 15.2542 20.7627 15.2542 6.46201 16.6407C5.35219 25.5324 5.02542 34.4239 5.4815 43.3157C5.81336 49.7884 10.9928 54.9402 17.4668 55.246C24.4311 55.5749 31.3953 55.5749 38.3593 55.246C44.8333 54.9402 50.0128 49.7884 50.3446 43.3157C50.8007 34.4239 50.4739 25.5322 49.3641 16.6407Z"
        fill="#F1D0A5" />
    <path
        d="M6.46277 16.6392C13.612 15.9458 20.763 15.6003 27.9144 15.6003C24.294 15.6003 20.6734 15.9503 17.0531 16.6501C16.4898 25.6276 16.3257 34.6049 16.556 43.5803C16.7074 49.4878 18.8666 54.305 21.6998 55.4038C20.2896 55.3654 18.8774 55.3121 17.4671 55.2458C10.9944 54.9407 5.81433 49.7884 5.48162 43.3157C5.02703 34.4236 5.35337 25.5314 6.46277 16.6392Z"
        fill="#F1B986" />
    <path
        d="M27.9129 47.3398C25.4553 47.3398 23.1859 45.9047 22.132 43.6838C21.8224 43.0313 22.1001 42.2514 22.7526 41.9419C23.4044 41.6325 24.1849 41.91 24.4945 42.5625C25.1179 43.8759 26.4596 44.7246 27.9127 44.7246C29.3661 44.7246 30.7077 43.8759 31.3311 42.5625C31.6407 41.91 32.4208 41.6321 33.073 41.9419C33.7255 42.2514 34.0035 43.0313 33.6937 43.6838C32.6399 45.9047 30.3708 47.3398 27.9129 47.3398Z"
        fill="#DA4A54" />
    <path
        d="M39.8243 24.0347C31.6046 27.21 19.9287 25.8098 14.0443 19.9256C14.0443 19.9256 12.647 29.4796 5.40736 29.4796L2.25031 30.5412C-6.18153 -2.55575 11.8028 6.28757 11.8028 6.28757C13.5008 2.99717 15.9739 1.6349 18.5579 1.30643C18.7855 1.27841 19.0129 1.25739 19.2418 1.24316C19.2601 1.24316 19.2783 1.24167 19.2966 1.2404C21.1166 1.14358 22.9592 1.51281 24.5966 2.03959C25.1667 2.22346 25.713 2.42581 26.2243 2.63495C28.2817 3.47618 29.7801 4.42124 30.0948 4.62358C30.1355 4.65161 30.1566 4.66562 30.1566 4.66562C32.0076 2.21646 33.7729 0.000212309 35.7137 0.000212309C36.51 0.000212309 37.0605 0.304898 37.43 0.792183C38.83 2.62773 37.6799 7.04154 37.5873 7.38847L37.583 7.40397C37.5845 7.40121 37.5858 7.39548 37.5886 7.38847L37.5983 7.36321C37.847 6.73685 40.6276 0 45.6144 0C45.9291 0 46.2113 0.0295131 46.4627 0.0855668C50.1801 0.907051 47.2701 7.40928 46.95 8.09743L46.9415 8.11717C46.933 8.13395 46.9275 8.14669 46.9247 8.15221C47.0833 7.95007 53.3089 0.0462869 56.0755 3.67237C56.077 3.67513 56.077 3.67513 56.0782 3.67661C58.8688 7.35493 48.0398 20.8609 39.8243 24.0347Z"
        fill="#F4DD45" />
    <path
        d="M56.0756 3.67286H56.0742C54.6754 2.27555 49.8303 8.87184 46.9204 8.15694L46.9414 8.11766C46.9329 8.13443 46.9274 8.14717 46.9247 8.15269C47.0835 7.95056 53.309 0.0467756 56.0756 3.67286Z"
        fill="#ECC32E" />
    <path
        d="M46.4626 0.0860233C44.3613 -0.391283 42.4134 3.60849 41.3129 6.44791C40.7806 7.82101 39.1321 8.37199 37.8805 7.59616L37.5798 7.40974L37.5826 7.40422L37.5868 7.38872H37.5883L37.5981 7.36345C37.8467 6.73709 40.6273 0.000244141 45.6142 0.000244141C45.9291 0.000244141 46.2113 0.0297573 46.4626 0.0860233Z"
        fill="#ECC32E" />
    <path
        d="M18.5574 1.3064C12.544 2.36675 10.2717 16.1534 14.0438 19.9256C14.0438 19.9256 12.6465 29.4795 5.40688 29.4795L2.24982 30.5412C-6.18202 -2.55579 11.8023 6.28753 11.8023 6.28753C13.5003 2.99714 15.9734 1.63486 18.5574 1.3064Z"
        fill="#ECC32E" />
    <path
        d="M37.4298 0.792459C35.3163 -1.32102 33.9075 9.51773 29.1495 11.2537C24.3915 12.9895 23.9463 10.7707 23.9463 10.7707V10.7692C26.2889 9.90267 28.266 7.16411 30.1551 4.66441C30.1566 4.6659 30.1566 4.6659 30.1566 4.6659C30.2141 4.58861 30.2717 4.51281 30.3294 4.43701C30.401 4.34019 30.4755 4.24316 30.5485 4.14761C32.259 1.91332 33.9107 0.000488392 35.7137 0.000488392C36.51 0.000276067 37.0605 0.305174 37.4298 0.792459Z"
        fill="#ECC32E" />
    <path
        d="M18.7051 39.695C21.5621 39.695 23.8781 37.379 23.8781 34.522C23.8781 31.6649 21.5621 29.3489 18.7051 29.3489C15.848 29.3489 13.532 31.6649 13.532 34.522C13.532 37.379 15.848 39.695 18.7051 39.695Z"
        fill="#DFEAEF" />
    <path
        d="M37.1208 39.695C39.9778 39.695 42.2939 37.379 42.2939 34.522C42.2939 31.6649 39.9778 29.3489 37.1208 29.3489C34.2638 29.3489 31.9478 31.6649 31.9478 34.522C31.9478 37.379 34.2638 39.695 37.1208 39.695Z"
        fill="#DFEAEF" />
    <path
        d="M51.9201 28.6238C51.4485 27.8541 50.4425 27.6123 49.6724 28.084L43.4105 31.9208C42.3867 29.4542 39.9534 27.7146 37.1206 27.7146C33.9304 27.7146 31.2469 29.9209 30.5129 32.8875H25.313C24.579 29.9209 21.8954 27.7146 18.7053 27.7146C15.8726 27.7146 13.4394 29.4542 12.4154 31.9208L6.15348 28.084C5.38359 27.6123 4.3776 27.8541 3.90581 28.6238C3.43424 29.3935 3.67587 30.3997 4.44554 30.8714L11.9665 35.4795C12.4336 38.7814 15.2769 41.3295 18.7053 41.3295C21.8954 41.3295 24.579 39.123 25.313 36.1564H30.5129C31.2469 39.123 33.9304 41.3295 37.1206 41.3295C40.5492 41.3295 43.3925 38.7812 43.8596 35.4795L51.3803 30.8714C52.15 30.3999 52.3916 29.3935 51.9201 28.6238ZM18.7051 38.0605C16.754 38.0605 15.1667 36.4732 15.1667 34.5219C15.1667 32.5709 16.754 30.9836 18.7051 30.9836C20.6561 30.9836 22.2434 32.5709 22.2434 34.5219C22.2437 36.4732 20.6563 38.0605 18.7051 38.0605ZM37.1206 38.0605C35.1696 38.0605 33.5822 36.4732 33.5822 34.5219C33.5822 32.5709 35.1696 30.9836 37.1206 30.9836C39.0719 30.9836 40.6592 32.5709 40.6592 34.5219C40.6592 36.4732 39.0719 38.0605 37.1206 38.0605Z"
        fill="#454045" />
</svg>