<svg width="80" height="93" viewBox="0 0 80 93" fill="none" xmlns="http://www.w3.org/2000/svg">
<path d="M74.6158 92.3077H5.38421C2.41051 92.3077 0 89.8502 0 86.8186V79.1828L80 64.3623V86.8186C80 89.8502 77.5893 92.3077 74.6158 92.3077Z" fill="#B1DBFC"/>
<path d="M59.9682 86.8184H5.39318C2.41464 86.8184 0 84.3567 0 81.3202V13.1413C0 10.1047 2.41464 7.64307 5.39318 7.64307H74.6066C77.5852 7.64307 79.9998 10.1047 79.9998 13.1413V66.3965C79.9998 67.8548 76.7395 69.2532 75.728 70.2844L63.7817 82.4633C62.7705 83.4946 61.3986 86.8184 59.9682 86.8184Z" fill="#DFEBFA"/>
<path d="M59.943 86.8185C61.3734 86.8185 62.7452 86.2392 63.7567 85.208L78.4202 70.2589C79.4317 69.2277 79.9999 67.8293 79.9999 66.371V64.1436C79.9999 66.6316 78.0216 68.6484 75.5811 68.6484H66.5959C64.1555 68.6484 62.1771 70.6653 62.1771 73.1533V82.3134C62.1771 84.8015 60.1988 86.8183 57.7583 86.8183H59.943V86.8185Z" fill="#8BCAFF"/>
<path d="M79.9993 13.1316V27.2532H0.000732422V13.1316C0.000732422 10.1017 2.41106 7.64258 5.38494 7.64258H74.6151C77.589 7.64258 79.9993 10.1017 79.9993 13.1316Z" fill="#8479C2"/>
<path d="M15.2415 17.2234C14.2146 17.2234 13.3427 17.2228 12.5997 17.2228C10.3419 17.2228 8.50586 15.351 8.50586 13.0511V7.64258H11.198V13.0511C11.198 13.8379 11.8261 14.4783 12.5997 14.4783C13.3427 14.4783 15.9845 17.2234 15.2415 17.2234Z" fill="#6E60B8"/>
<path d="M64.1404 17.2234C64.1404 17.2234 62.2421 17.2228 61.4973 17.2228C59.2413 17.2228 57.4053 15.351 57.4053 13.0511V7.64258H60.0974V13.0511C60.0974 13.8379 60.7255 14.4783 61.4973 14.4783C62.2421 14.4783 64.1404 16.4659 64.1404 17.2234Z" fill="#6E60B8"/>
<path d="M17.2608 7.64333V4.17297C17.2608 3.38529 16.6323 2.74453 15.8596 2.74453H15.2417C14.4691 2.74453 13.8405 3.38529 13.8405 4.17297V13.0506C13.8405 13.8383 14.4691 14.479 15.2417 14.479C15.9851 14.479 16.5877 15.0935 16.5877 15.8513C16.5877 16.6092 15.9851 17.2236 15.2417 17.2236C12.9846 17.2236 11.1484 15.3516 11.1484 13.0506V4.17297C11.1484 1.87195 12.9846 0 15.2417 0H15.8596C18.1167 0 19.9529 1.87195 19.9529 4.17297V7.64333H17.2608Z" fill="#554E56"/>
<path d="M66.1597 7.64333V4.17297C66.1597 3.38529 65.5312 2.74453 64.7585 2.74453H64.1406C63.368 2.74453 62.7395 3.38529 62.7395 4.17297V13.0506C62.7395 13.8383 63.368 14.479 64.1406 14.479C64.884 14.479 65.4867 15.0935 65.4867 15.8513C65.4867 16.6092 64.884 17.2236 64.1406 17.2236C61.8836 17.2236 60.0474 15.3516 60.0474 13.0506V4.17297C60.0474 1.87195 61.8836 0 64.1406 0H64.7585C67.0156 0 68.8518 1.87195 68.8518 4.17297V7.64333H66.1597Z" fill="#554E56"/>
<path d="M15.7679 44.6333H9.35815C8.65013 44.6333 8.07617 44.0482 8.07617 43.3264V36.7918C8.07617 36.07 8.65013 35.4849 9.35815 35.4849H15.7679C16.4759 35.4849 17.0499 36.07 17.0499 36.7918V43.3264C17.0499 44.0482 16.4759 44.6333 15.7679 44.6333Z" fill="#2A428C"/>
<path d="M34.0591 44.6333H27.6494C26.9414 44.6333 26.3674 44.0482 26.3674 43.3264V36.7918C26.3674 36.07 26.9414 35.4849 27.6494 35.4849H34.0591C34.7672 35.4849 35.3411 36.07 35.3411 36.7918V43.3264C35.3411 44.0482 34.7672 44.6333 34.0591 44.6333Z" fill="#2A428C"/>
<path d="M52.3504 44.6333H45.9407C45.2326 44.6333 44.6587 44.0482 44.6587 43.3264V36.7918C44.6587 36.07 45.2326 35.4849 45.9407 35.4849H52.3504C53.0584 35.4849 53.6324 36.07 53.6324 36.7918V43.3264C53.6324 44.0482 53.0584 44.6333 52.3504 44.6333Z" fill="#2A428C"/>
<path d="M70.6417 44.6333H64.2319C63.5239 44.6333 62.95 44.0482 62.95 43.3264V36.7918C62.95 36.07 63.5239 35.4849 64.2319 35.4849H70.6417C71.3497 35.4849 71.9236 36.07 71.9236 36.7918V43.3264C71.9236 44.0482 71.3497 44.6333 70.6417 44.6333Z" fill="#2A428C"/>
<path d="M15.7679 61.6079H9.35815C8.65013 61.6079 8.07617 61.0228 8.07617 60.301V53.7664C8.07617 53.0446 8.65013 52.4595 9.35815 52.4595H15.7679C16.4759 52.4595 17.0499 53.0446 17.0499 53.7664V60.301C17.0499 61.0228 16.4759 61.6079 15.7679 61.6079Z" fill="#2A428C"/>
<path d="M34.0591 61.6079H27.6494C26.9414 61.6079 26.3674 61.0228 26.3674 60.301V53.7664C26.3674 53.0446 26.9414 52.4595 27.6494 52.4595H34.0591C34.7672 52.4595 35.3411 53.0446 35.3411 53.7664V60.301C35.3411 61.0228 34.7672 61.6079 34.0591 61.6079Z" fill="#2A428C"/>
<path d="M52.3504 61.6079H45.9407C45.2326 61.6079 44.6587 61.0228 44.6587 60.301V53.7664C44.6587 53.0446 45.2326 52.4595 45.9407 52.4595H52.3504C53.0584 52.4595 53.6324 53.0446 53.6324 53.7664V60.301C53.6324 61.0228 53.0584 61.6079 52.3504 61.6079Z" fill="#2A428C"/>
<path d="M70.6417 62.0151H64.2319C63.5239 62.0151 62.95 61.43 62.95 60.7082V54.1736C62.95 53.4518 63.5239 52.8667 64.2319 52.8667H70.6417C71.3497 52.8667 71.9236 53.4518 71.9236 54.1736V60.7082C71.9236 61.43 71.3497 62.0151 70.6417 62.0151Z" fill="#43CB8E"/>
<path d="M15.7679 78.5825H9.35815C8.65013 78.5825 8.07617 77.9974 8.07617 77.2756V70.741C8.07617 70.0192 8.65013 69.4341 9.35815 69.4341H15.7679C16.4759 69.4341 17.0499 70.0192 17.0499 70.741V77.2756C17.0499 77.9974 16.4759 78.5825 15.7679 78.5825Z" fill="#2A428C"/>
<path d="M34.0591 78.5825H27.6494C26.9414 78.5825 26.3674 77.9974 26.3674 77.2756V70.741C26.3674 70.0192 26.9414 69.4341 27.6494 69.4341H34.0591C34.7672 69.4341 35.3411 70.0192 35.3411 70.741V77.2756C35.3411 77.9974 34.7672 78.5825 34.0591 78.5825Z" fill="#2A428C"/>
<path d="M52.3504 78.5825H45.9407C45.2326 78.5825 44.6587 77.9974 44.6587 77.2756V70.741C44.6587 70.0192 45.2326 69.4341 45.9407 69.4341H52.3504C53.0584 69.4341 53.6324 70.0192 53.6324 70.741V77.2756C53.6324 77.9974 53.0584 78.5825 52.3504 78.5825Z" fill="#2A428C"/>
</svg>
