<svg width="80" height="80" viewBox="0 0 80 80" fill="none" xmlns="http://www.w3.org/2000/svg">
<path d="M52.5 5C48.9865 4.99919 45.5216 5.82142 42.3831 7.40077C39.2446 8.98013 36.5196 11.2727 34.4267 14.0948C32.3337 16.9169 30.9308 20.19 30.3306 23.6518C29.7303 27.1137 29.9493 30.668 30.97 34.03L5 60V75H20L45.97 49.03C49.0648 49.9694 52.3257 50.2305 55.5305 49.7957C58.7353 49.3608 61.8087 48.2402 64.5412 46.5101C67.2738 44.78 69.6012 42.4812 71.365 39.7703C73.1287 37.0593 74.2873 34 74.7618 30.8008C75.2362 27.6016 75.0154 24.3377 74.1144 21.2316C73.2134 18.1255 71.6533 15.2501 69.5405 12.8014C67.4277 10.3527 64.8118 8.38831 61.8712 7.04203C58.9305 5.69575 55.7342 4.99925 52.5 5ZM52.5 45C50.7788 44.9991 49.0671 44.7447 47.42 44.245L44.5525 43.375L42.435 45.4925L34.4825 53.445L31.035 50L27.5 53.535L30.9475 56.9825L26.9825 60.9475L23.535 57.5L20 61.035L23.4475 64.4825L17.93 70H10V62.07L34.505 37.565L36.625 35.4475L35.755 32.58C34.6865 29.0575 34.7559 25.2877 35.9534 21.8069C37.1509 18.3261 39.4155 15.3116 42.4251 13.1921C45.4347 11.0726 49.036 9.95604 52.7167 10.0013C56.3975 10.0466 59.9702 11.2514 62.9268 13.4443C65.8833 15.6372 68.0731 18.7066 69.1846 22.2158C70.2961 25.725 70.2727 29.4953 69.1179 32.9905C67.963 36.4856 65.7354 39.5276 62.7519 41.6837C59.7684 43.8399 56.181 45.0003 52.5 45Z" fill="#F2F2F2"/>
<path d="M55 30C57.7614 30 60 27.7614 60 25C60 22.2386 57.7614 20 55 20C52.2386 20 50 22.2386 50 25C50 27.7614 52.2386 30 55 30Z" fill="#F2F2F2"/>
</svg>
