<svg width="100" height="100" viewBox="0 0 100 100" fill="none" xmlns="http://www.w3.org/2000/svg">
<g clip-path="url(#clip0)">
<path d="M47.686 37.548V8.41176C47.686 6.67485 49.094 5.26685 50.831 5.26685H92.3424C94.0793 5.26685 95.4873 6.67485 95.4873 8.41176V37.548C95.4873 39.2849 94.0793 40.693 92.3424 40.693H50.8311C49.094 40.693 47.686 39.2849 47.686 37.548Z" fill="#46738C"/>
<path d="M50.1154 30.1588C49.6533 30.1588 49.1959 29.9549 48.8877 29.5639C48.3537 28.8864 48.4697 27.9041 49.1472 27.37L61.9519 17.2735C62.6296 16.7393 63.6118 16.8555 64.1458 17.5331C64.6798 18.2106 64.5638 19.1928 63.8863 19.727L51.0816 29.8235C50.7947 30.0491 50.4539 30.1588 50.1154 30.1588Z" fill="#FF8C46"/>
<path d="M25.0565 13.9023C28.8144 13.9023 31.8608 10.8559 31.8608 7.09798C31.8608 3.34008 28.8144 0.293701 25.0565 0.293701C21.2986 0.293701 18.2522 3.34008 18.2522 7.09798C18.2522 10.8559 21.2986 13.9023 25.0565 13.9023Z" fill="#FFB69E"/>
<path d="M29.7734 83.3749C27.5863 83.3749 25.8135 81.6018 25.8135 79.4149V47.7624C25.8135 45.5753 27.5865 43.8025 29.7734 43.8025C31.9603 43.8025 33.7334 45.5755 33.7334 47.7624V79.4149C33.7336 81.6018 31.9605 83.3749 29.7734 83.3749Z" fill="#343E6B"/>
<path d="M20.2141 83.3749C18.027 83.3749 16.2542 81.6018 16.2542 79.4149V47.7624C16.2542 45.5753 18.0272 43.8025 20.2141 43.8025C22.401 43.8025 24.1741 45.5755 24.1741 47.7624V79.4149C24.1743 81.6018 22.4012 83.3749 20.2141 83.3749Z" fill="#414B82"/>
<path d="M52.8578 26.8682C51.9013 25.3278 49.8775 24.8544 48.3369 25.8106L41.6875 29.9391V23.8003C41.6662 19.5378 38.15 16.0698 33.8873 16.0698H33.7658C31.667 16.0698 18.3067 16.0698 16.1354 16.0698C11.7838 16.0698 8.22583 19.5556 8.20435 23.8399C8.20435 23.8454 8.20435 23.8511 8.20435 23.8565V48.1002C8.20435 49.9227 9.68188 51.4002 11.5043 51.4002C13.3268 51.4002 14.8043 49.9227 14.8043 48.1002V23.8677C14.8114 23.2401 15.444 22.67 16.1354 22.67H16.2541V47.7626H33.7336C33.7336 45.4231 33.7336 25.2669 33.7336 22.6364C33.7512 22.6364 33.9051 22.6364 33.8875 22.6364C34.5477 22.6364 35.1479 23.1735 35.1512 23.8337V35.8405C35.1641 38.4114 37.9938 39.962 40.166 38.6133L51.801 31.3895C53.3408 30.4327 53.814 28.4087 52.8578 26.8682Z" fill="#252D5C"/>
<path d="M52.8579 26.8682C51.9014 25.3278 49.8776 24.8544 48.337 25.8106L41.6876 29.9391V23.8003C41.6663 19.5378 38.1501 16.0698 33.8874 16.0698C32.7602 16.0698 26.0767 16.0698 24.9927 16.0698V47.7621H33.7335C33.7335 45.4227 33.7335 25.2665 33.7335 22.636C33.7511 22.636 33.905 22.636 33.8874 22.636C34.5475 22.636 35.1477 23.1731 35.1511 23.8333V35.8401C35.1639 38.411 37.9936 39.9616 40.1659 38.6129L51.8008 31.3891C53.3409 30.4327 53.8141 28.4087 52.8579 26.8682Z" fill="#1B224A"/>
<path d="M52.8578 26.8685C51.9014 25.328 49.8775 24.8546 48.3369 25.8109L51.8004 31.3894C53.3408 30.4329 53.8141 28.4089 52.8578 26.8685Z" fill="#FFB69E"/>
<path d="M47.172 26.5223L50.6035 32.1206L51.7968 31.3892L48.3653 25.7908L47.172 26.5223Z" fill="white"/>
<path d="M8.20337 46.3982V48.1003C8.20337 49.9228 9.68091 51.4003 11.5034 51.4003C13.3258 51.4003 14.8034 49.9228 14.8034 48.1003V46.3982H8.20337Z" fill="white"/>
<path d="M8.20337 48.0154V48.1003C8.20337 49.9228 9.68091 51.4003 11.5034 51.4003C13.3258 51.4003 14.8034 49.9228 14.8034 48.1003V48.0154H8.20337Z" fill="#FFB69E"/>
<path d="M19.9575 16.0698L24.9927 29.2839L30.0292 16.0698H19.9575Z" fill="white"/>
<path d="M27.1827 20.5684L26.0642 18.534L27.0282 16.7807C27.2036 16.4617 26.9725 16.0703 26.6081 16.0703H23.3763C23.0122 16.0703 22.7806 16.4613 22.9562 16.7807L23.9235 18.5398L22.8081 20.5687C22.6536 20.8498 22.6034 21.176 22.6663 21.4904L23.3544 24.9834L24.9927 29.2844L26.6325 24.9828L27.3245 21.4908C27.3876 21.176 27.3372 20.8494 27.1827 20.5684Z" fill="#FF3C3C"/>
<path d="M31.7896 26.2231H27.4304V27.5675H31.7896V26.2231Z" fill="#252D5C"/>
<path d="M83.8112 70.7207C87.4778 70.7207 90.4502 67.7483 90.4502 64.0817C90.4502 60.415 87.4778 57.4426 83.8112 57.4426C80.1445 57.4426 77.1721 60.415 77.1721 64.0817C77.1721 67.7483 80.1445 70.7207 83.8112 70.7207Z" fill="#80391B"/>
<path d="M92.3818 72.8374C90.4309 72.8374 77.1352 72.8374 75.1846 72.8374C71.0256 72.8374 67.5875 76.221 67.5667 80.38V87.8087H73.9735V80.412C73.9766 79.7679 74.5405 79.2438 75.1846 79.2438H75.2477V87.8085H92.2152V79.2438H92.382C93.0262 79.2438 93.5898 79.7679 93.5932 80.412V87.8087H99.9998V80.38C99.9789 76.2212 96.5412 72.8374 92.3818 72.8374Z" fill="#80391B"/>
<path d="M92.3819 72.8376H87.1307C85.0858 74.4589 82.4014 74.3958 80.5368 72.8376H75.1848C71.0259 72.8376 67.5878 76.2212 67.5669 80.3802V85.0429H73.9737V80.4124C73.9768 79.7683 74.5407 79.2443 75.1848 79.2443H75.2479V87.8089H92.2155V79.2443H92.3823C93.0264 79.2443 93.5901 79.7683 93.5934 80.4124V85.0429H100V80.3802C99.979 76.2214 96.5413 72.8376 92.3819 72.8376Z" fill="#55C7A6"/>
<path d="M50.0307 70.7207C53.6973 70.7207 56.6697 67.7483 56.6697 64.0817C56.6697 60.415 53.6973 57.4426 50.0307 57.4426C46.364 57.4426 43.3916 60.415 43.3916 64.0817C43.3916 67.7483 46.364 70.7207 50.0307 70.7207Z" fill="#FFB69E"/>
<path d="M58.6011 72.8374C56.6501 72.8374 43.3544 72.8374 41.4038 72.8374C37.2449 72.8374 33.8068 76.221 33.7859 80.38V87.8087H40.1927V80.412C40.1958 79.7679 40.7597 79.2438 41.4038 79.2438H41.4669V87.8085H58.4345V79.2438H58.6013C59.2454 79.2438 59.8091 79.7679 59.8124 80.412V87.8087H66.2192V80.38C66.1983 76.2212 62.7603 72.8374 58.6011 72.8374Z" fill="#FFB69E"/>
<path d="M58.6011 72.8376H53.0881C51.0431 74.4589 48.3588 74.3958 46.4941 72.8376H41.4041C37.2451 72.8376 33.807 76.2212 33.7861 80.3802V85.0429H40.193V80.4124C40.1961 79.7683 40.76 79.2443 41.4041 79.2443H41.4672V87.8089H58.4347V79.2443H58.6015C59.2457 79.2443 59.8093 79.7683 59.8127 80.4124V85.0429H66.2195V80.3802C66.1984 76.2214 62.7603 72.8376 58.6011 72.8376Z" fill="#252D5C"/>
<path d="M16.2426 70.6153C19.9092 70.6153 22.8816 67.6429 22.8816 63.9762C22.8816 60.3096 19.9092 57.3372 16.2426 57.3372C12.5759 57.3372 9.60352 60.3096 9.60352 63.9762C9.60352 67.6429 12.5759 70.6153 16.2426 70.6153Z" fill="#FFB69E"/>
<path d="M24.8152 72.7317C22.8642 72.7317 9.56854 72.7317 7.61795 72.7317C3.45898 72.7317 0.0208984 76.1153 0 80.2743V87.7031H6.40682V80.3065C6.40995 79.6623 6.97381 79.1383 7.61795 79.1383H7.68104V87.703H24.6484V79.1381H24.8152C25.4593 79.1381 26.023 79.6621 26.0263 80.3063V87.703H32.4331V80.2741C32.4122 76.1153 28.9742 72.7317 24.8152 72.7317Z" fill="#FFB69E"/>
<path d="M24.8152 72.7317H19.3019C17.257 74.353 14.5726 74.2899 12.708 72.7317H7.61795C3.45898 72.7317 0.0208984 76.1153 0 80.2743V84.9369H6.40682V80.3065C6.40995 79.6623 6.97381 79.1383 7.61795 79.1383H7.68104V87.703H24.6484V79.1381H24.8152C25.4593 79.1381 26.023 79.6621 26.0263 80.3063V84.9368H32.4331V80.2741C32.4122 76.1153 28.9742 72.7317 24.8152 72.7317Z" fill="#78BEFF"/>
<path d="M68.8014 82.6189C72.4681 82.6189 75.4405 79.6465 75.4405 75.9799C75.4405 72.3132 72.4681 69.3408 68.8014 69.3408C65.1348 69.3408 62.1624 72.3132 62.1624 75.9799C62.1624 79.6465 65.1348 82.6189 68.8014 82.6189Z" fill="#FFB69E"/>
<path d="M77.3733 84.7351C75.4223 84.7351 62.1266 84.7351 60.1761 84.7351C56.0171 84.7351 52.579 88.1187 52.5581 92.2777V99.7064H58.9649V92.3097C58.9681 91.6656 59.5319 91.1415 60.1761 91.1415H60.2391V99.7062H77.2067V91.1415H77.3735C78.0176 91.1415 78.5813 91.6656 78.5846 92.3097V99.7064H84.9914V92.2777C84.9702 88.1185 81.5323 84.7351 77.3733 84.7351Z" fill="#FFB69E"/>
<path d="M77.3733 84.7349H72.1222C70.0773 86.3561 67.3929 86.2931 65.5282 84.7349H60.1763C56.0173 84.7349 52.5792 88.1185 52.5583 92.2774V96.9401H58.9652V92.3097C58.9683 91.6655 59.5322 91.1415 60.1763 91.1415H60.2394V99.7061H77.2067V91.1415H77.3735C78.0177 91.1415 78.5814 91.6655 78.5847 92.3097V96.9401H84.9915V92.2774C84.9702 88.1183 81.5323 84.7349 77.3733 84.7349Z" fill="#78BEFF"/>
<path d="M35.0209 82.6189C38.6875 82.6189 41.6599 79.6465 41.6599 75.9799C41.6599 72.3132 38.6875 69.3408 35.0209 69.3408C31.3542 69.3408 28.3818 72.3132 28.3818 75.9799C28.3818 79.6465 31.3542 82.6189 35.0209 82.6189Z" fill="#BA6746"/>
<path d="M43.5928 84.7351C41.6418 84.7351 28.3461 84.7351 26.3955 84.7351C22.2366 84.7351 18.7985 88.1187 18.7776 92.2777V99.7064H25.1844V92.3097C25.1875 91.6656 25.7514 91.1415 26.3955 91.1415H26.4586V99.7062H43.4262V91.1415H43.593C44.2371 91.1415 44.8008 91.6656 44.8041 92.3097V99.7064H51.2107V92.2777C51.1896 88.1185 47.7519 84.7351 43.5928 84.7351Z" fill="#BA6746"/>
<path d="M43.5928 84.7349H38.0797C36.0348 86.3561 33.3504 86.2931 31.4858 84.7349H26.3955C22.2366 84.7349 18.7985 88.1185 18.7776 92.2774V96.9401H25.1844V92.3097C25.1875 91.6655 25.7514 91.1415 26.3955 91.1415H26.4586V99.7061H43.4262V91.1415H43.593C44.2371 91.1415 44.8008 91.6655 44.8041 92.3097V96.9401H51.2109V92.2774C51.1896 88.1183 47.7519 84.7349 43.5928 84.7349Z" fill="#FF3C3C"/>
</g>
<defs>
<clipPath id="clip0">
<rect width="100" height="100" fill="white"/>
</clipPath>
</defs>
</svg>
