<svg width="120" height="111" viewBox="0 0 120 111" fill="none" xmlns="http://www.w3.org/2000/svg">
<path d="M60 65.9758L51.5611 58.5352H7.26562V0H112.734V58.5352H68.4389L60 65.9758Z" fill="#4D5E80"/>
<path d="M60 65.9758L68.4389 58.5352H112.734V0H60V65.9758Z" fill="#3D4566"/>
<path d="M77.5781 111H42.4219V100.811C42.4219 95.4309 47.153 91.0547 52.9688 91.0547H67.0312C72.847 91.0547 77.5781 95.4309 77.5781 100.811V111Z" fill="#FFBE40"/>
<path d="M120 111H84.8438V100.811C84.8438 95.4309 89.5748 91.0547 95.3906 91.0547H109.453C115.269 91.0547 120 95.4309 120 100.811V111Z" fill="#E63A57"/>
<path d="M35.1562 111H0V100.811C0 95.4309 4.73109 91.0547 10.5469 91.0547H24.6094C30.4252 91.0547 35.1562 95.4309 35.1562 100.811V111Z" fill="#CC6E5C"/>
<path d="M60 91.0547C54.1842 91.0547 49.4531 86.6784 49.4531 81.2988C49.4531 75.9192 54.1842 71.543 60 71.543C65.8158 71.543 70.5469 75.9192 70.5469 81.2988C70.5469 86.6784 65.8158 91.0547 60 91.0547Z" fill="#FFD9B3"/>
<path d="M102.422 91.0547C96.6061 91.0547 91.875 86.6784 91.875 81.2988C91.875 75.9192 96.6061 71.543 102.422 71.543C108.238 71.543 112.969 75.9192 112.969 81.2988C112.969 86.6784 108.238 91.0547 102.422 91.0547Z" fill="#FFBB99"/>
<path d="M17.5781 91.0547C11.7623 91.0547 7.03125 86.6784 7.03125 81.2988C7.03125 75.9192 11.7623 71.543 17.5781 71.543C23.3939 71.543 28.125 75.9192 28.125 81.2988C28.125 86.6784 23.3939 91.0547 17.5781 91.0547Z" fill="#FFD9B3"/>
<path d="M52.9688 13.0078H35.3906V45.5273H60L67.0312 32.4202L60 15.4793C58.1013 13.9832 55.6406 13.0078 52.9688 13.0078Z" fill="#ECF2FF"/>
<path d="M84.6094 13.0078V45.5273H60V15.4793C61.8987 13.9832 64.3594 13.0078 67.0312 13.0078H84.6094Z" fill="#D9E5FF"/>
<path d="M70.5469 81.2988C70.5469 75.9192 65.8158 71.543 60 71.543V91.0547C65.8158 91.0547 70.5469 86.6784 70.5469 81.2988Z" fill="#FFBB99"/>
<path d="M67.0312 91.0547H60V111H77.5781V100.811C77.5781 95.4309 72.847 91.0547 67.0312 91.0547Z" fill="#FF9F40"/>
</svg>
