<svg width="100" height="116" viewBox="0 0 100 116" fill="none" xmlns="http://www.w3.org/2000/svg">
<path d="M68.3312 111.579V13.8121C68.3312 11.4483 66.415 9.53233 64.0512 9.53233H4.27976C1.91597 9.53233 0 11.4485 0 13.8121V111.579C0 113.943 1.9162 115.859 4.27976 115.859H64.0514C66.415 115.859 68.3312 113.943 68.3312 111.579Z" fill="#FFC250"/>
<path d="M78.0837 9.5321H63.76C66.1238 9.5321 68.04 11.4483 68.04 13.8119V111.579C68.04 113.943 66.1238 115.859 63.76 115.859H78.0837C80.4475 115.859 82.3637 113.942 82.3637 111.579V13.8121C82.3637 11.4483 80.4475 9.5321 78.0837 9.5321Z" fill="#EAB14D"/>
<path d="M6.99512 107.334V18.0572C6.99512 17.2123 7.68009 16.5275 8.52481 16.5275H73.8384C74.6834 16.5275 75.3681 17.2125 75.3681 18.0572V107.334C75.3681 108.179 74.6832 108.863 73.8384 108.863H8.52481C7.67986 108.863 6.99512 108.179 6.99512 107.334Z" fill="#F5F5F5"/>
<path d="M73.8386 16.5275H59.5149C60.3598 16.5275 61.0446 17.2125 61.0446 18.0572V107.334C61.0446 108.179 60.3596 108.863 59.5149 108.863H73.8386C74.6836 108.863 75.3683 108.178 75.3683 107.334V18.0572C75.3683 17.2125 74.6836 16.5275 73.8386 16.5275Z" fill="#EAEAEA"/>
<path d="M50.2737 5.32634V3.0732C50.2737 1.37605 48.8978 0 47.2005 0H35.1627C33.4653 0 32.0895 1.37605 32.0895 3.0732V5.32634C32.0895 6.02036 31.5267 6.58314 30.8327 6.58314H25.8227C24.1561 6.58314 22.8049 7.93429 22.8049 9.6009V16.5275H59.5582V9.6009C59.5582 7.93429 58.2071 6.58314 56.5404 6.58314H51.5305C50.8364 6.58314 50.2737 6.02036 50.2737 5.32634Z" fill="#C2D0DA"/>
<path d="M15.8936 41.3634V27.8908C15.8936 26.3982 17.1037 25.188 18.5963 25.188H32.069C33.5616 25.188 34.7718 26.3982 34.7718 27.8908V41.3634C34.7718 42.856 33.5616 44.0662 32.069 44.0662H18.5963C17.1035 44.0662 15.8936 42.856 15.8936 41.3634Z" fill="#66B49D"/>
<path d="M15.8936 69.432V55.9594C15.8936 54.4668 17.1037 53.2566 18.5963 53.2566H32.069C33.5616 53.2566 34.7718 54.4668 34.7718 55.9594V69.432C34.7718 70.9246 33.5616 72.1348 32.069 72.1348H18.5963C17.1035 72.1348 15.8936 70.9246 15.8936 69.432Z" fill="#66B49D"/>
<path d="M15.8936 97.5004V84.0278C15.8936 82.5352 17.1037 81.325 18.5963 81.325H32.069C33.5616 81.325 34.7718 82.5352 34.7718 84.0278V97.5004C34.7718 98.993 33.5616 100.203 32.069 100.203H18.5963C17.1035 100.203 15.8936 98.9933 15.8936 97.5004Z" fill="#66B49D"/>
<path d="M24.1922 39.4517C24.1902 39.4517 24.1883 39.4517 24.1863 39.4517C23.4144 39.4499 22.6824 39.0761 22.2278 38.4522L20.1862 35.6485C19.6178 34.8679 19.7898 33.7742 20.5705 33.2058C21.3512 32.6376 22.4448 32.8095 23.013 33.59L24.1967 35.2159L27.6578 30.5136C28.2303 29.7359 29.3246 29.5698 30.1021 30.1421C30.8799 30.7144 31.0462 31.8089 30.4737 32.5867L26.1489 38.4622C25.6929 39.082 24.9616 39.4517 24.1922 39.4517Z" fill="#F6F9F9"/>
<path d="M24.192 68.1311C24.1897 68.1311 24.1877 68.1311 24.1856 68.1311C23.4138 68.1291 22.6817 67.7555 22.2273 67.1311L20.1862 64.3279C19.6178 63.5472 19.7898 62.4536 20.5705 61.8851C21.3512 61.3169 22.4448 61.4889 23.013 62.2694L24.1967 63.8953L27.6578 59.193C28.2303 58.4155 29.3246 58.2492 30.1021 58.8214C30.8799 59.3937 31.0462 60.4883 30.4737 61.266L26.1489 67.1416C25.6929 67.7618 24.9616 68.1311 24.192 68.1311Z" fill="#F6F9F9"/>
<path d="M24.1919 95.5892C24.1898 95.5892 24.1878 95.5892 24.186 95.589C23.4144 95.5872 22.6821 95.2136 22.2277 94.5899L20.1862 91.7858C19.6177 91.0051 19.7899 89.9117 20.5706 89.3432C21.3518 88.7748 22.4449 88.9472 23.0132 89.7277L24.1966 91.3533L27.6579 86.6511C28.2304 85.8736 29.3247 85.7073 30.1023 86.2795C30.88 86.8518 31.0463 87.9464 30.4738 88.7241L26.149 94.5997C25.6926 95.2195 24.9615 95.5892 24.1919 95.5892Z" fill="#F6F9F9"/>
<path d="M65.0913 32.7222H43.4775C42.512 32.7222 41.7292 31.9395 41.7292 30.9739C41.7292 30.0083 42.512 29.2256 43.4775 29.2256H65.0913C66.0569 29.2256 66.8396 30.0083 66.8396 30.9739C66.8396 31.9395 66.0569 32.7222 65.0913 32.7222Z" fill="#DDEAFB"/>
<path d="M54.2846 40.0283H43.4778C42.5122 40.0283 41.7295 39.2456 41.7295 38.28C41.7295 37.3145 42.5122 36.5317 43.4778 36.5317H54.2846C55.2501 36.5317 56.0329 37.3145 56.0329 38.28C56.0329 39.2456 55.2501 40.0283 54.2846 40.0283Z" fill="#DDEAFB"/>
<path d="M57.9796 60.7908H43.4778C42.5122 60.7908 41.7295 60.0081 41.7295 59.0425C41.7295 58.077 42.5122 57.2943 43.4778 57.2943H57.9796C58.9452 57.2943 59.7279 58.077 59.7279 59.0425C59.7279 60.0081 58.9452 60.7908 57.9796 60.7908Z" fill="#DDEAFB"/>
<path d="M54.2846 68.0969H43.4778C42.5122 68.0969 41.7295 67.3142 41.7295 66.3486C41.7295 65.3831 42.5122 64.6003 43.4778 64.6003H54.2846C55.2501 64.6003 56.0329 65.3831 56.0329 66.3486C56.0329 67.3142 55.2501 68.0969 54.2846 68.0969Z" fill="#DDEAFB"/>
<path d="M93.2004 45.6461L91.4837 43.3846L85.0606 39.3171L82.5916 38.9281L49.7019 90.9001C48.9083 92.1533 48.3261 93.5284 47.9785 94.9703C51.9802 95.0199 55.6123 97.3198 57.3681 100.916C58.523 99.9855 59.5171 98.8713 60.3107 97.6181L93.2004 45.6461Z" fill="#FC8086"/>
<path d="M97.8438 29.6418L95.0683 27.8842C92.9048 26.514 90.04 27.1578 88.6705 29.3218L86.1255 33.3436L86.9374 34.9803L94.6606 39.8711L96.7345 40.0616L99.2811 36.0373C100.65 33.8745 100.006 31.0113 97.8438 29.6418Z" fill="#8C9BA6"/>
<path d="M82.5952 38.9132L86.1309 33.3289L96.7416 40.0469L93.206 45.6313L82.5952 38.9132Z" fill="#C9E2E7"/>
<path d="M57.3681 100.916L48.0032 108.463C46.6821 109.528 44.7628 108.312 45.1604 106.663L47.9785 94.9706C51.9802 95.0199 55.6125 97.3201 57.3681 100.916Z" fill="#7C8B96"/>
<path d="M54.9117 97.6765L89.3885 43.2323L86.4344 41.3616L51.9575 95.8058C53.0392 96.2615 54.0371 96.8935 54.9117 97.6765Z" fill="#FB636F"/>
</svg>
