<svg width="90" height="95" viewBox="0 0 90 95" fill="none" xmlns="http://www.w3.org/2000/svg">
<g clip-path="url(#clip0)">
<path d="M60.6748 94.9998H6.24295C4.47898 94.9998 3.04883 93.4904 3.04883 91.6283V10.0058C3.04883 8.14389 4.47881 6.63428 6.24295 6.63428H60.6748C62.4388 6.63428 63.869 8.1437 63.869 10.0058V91.6283C63.869 93.4904 62.4388 94.9998 60.6748 94.9998Z" fill="#C8EFFE"/>
<path d="M86.9512 37.4141V70.9377H76.2955V37.4141H86.9512Z" fill="#D83131"/>
<path d="M76.2954 30.2425V37.4148H86.9511V30.2425C86.9511 29.2485 86.1879 28.4429 85.2462 28.4429H78.0003C77.0588 28.4429 76.2954 29.2485 76.2954 30.2425Z" fill="#F47C7C"/>
<path d="M86.9521 70.9375H76.2964L80.753 80.3623C81.1775 81.26 82.071 81.26 82.4953 80.3623L86.9521 70.9375Z" fill="#F9C6C6"/>
<path d="M86.9512 37.4141V70.9377H76.2955V37.4141H86.9512Z" fill="#D83131"/>
<path d="M76.2954 30.2425V37.4148H86.9511V30.2425C86.9511 29.2485 86.1879 28.4429 85.2462 28.4429H78.0003C77.0588 28.4429 76.2954 29.2485 76.2954 30.2425Z" fill="#F47C7C"/>
<path d="M86.9521 70.9375H76.2964L80.753 80.3623C81.1775 81.26 82.071 81.26 82.4953 80.3623L86.9521 70.9375Z" fill="#F9C6C6"/>
<path d="M81.8179 37.4141H86.951V70.9377H81.8179V37.4141Z" fill="#CA2C2C"/>
<path d="M85.2462 28.4419H80.113C81.0547 28.4419 81.8179 29.2475 81.8179 30.2415V37.4138H86.9511V30.2415C86.9511 29.2477 86.1879 28.4419 85.2462 28.4419Z" fill="#EE6161"/>
<path d="M81.8181 70.9375L79.0569 76.777L80.7523 80.3623C81.1768 81.26 82.0703 81.26 82.4946 80.3623L86.9512 70.9375H81.8181Z" fill="#F9B1B1"/>
<path d="M66.9307 0H12.4986C10.7347 0 9.30469 1.50942 9.30469 3.37157V6.6346H60.6453C62.4093 6.6346 63.8394 8.14402 63.8394 10.0062V88.3656H66.9307C68.6947 88.3656 70.1248 86.8562 70.1248 84.994V3.37157C70.1247 1.50942 68.6947 0 66.9307 0V0Z" fill="#3C87D0"/>
<path d="M19.2102 87.3076H11.7252C10.9251 87.3076 10.2766 86.6229 10.2766 85.7785V77.8777C10.2766 77.0331 10.9252 76.3486 11.7252 76.3486H19.2102C20.0103 76.3486 20.6588 77.0333 20.6588 77.8777V85.7785C20.6588 86.6229 20.0101 87.3076 19.2102 87.3076Z" fill="#7CA1B1"/>
<path d="M55.5312 83.2616H26.6782C25.9279 83.2616 25.3201 82.6198 25.3201 81.8281C25.3201 81.0363 25.9281 80.3945 26.6782 80.3945H55.5314C56.2816 80.3945 56.8895 81.0363 56.8895 81.8281C56.8895 82.6198 56.2815 83.2616 55.5312 83.2616Z" fill="#3E5959"/>
<path d="M36.1645 43.5644H12.0873C11.0871 43.5644 10.2764 42.7087 10.2764 41.6529V16.2382C10.2764 15.1824 11.0871 14.3267 12.0873 14.3267H36.1644C37.1646 14.3267 37.9753 15.1824 37.9753 16.2382V41.6529C37.9755 42.7087 37.1646 43.5644 36.1645 43.5644Z" fill="#FEE2CA"/>
<path d="M24.1261 29.7244C26.8033 29.7244 28.9736 27.4335 28.9736 24.6076C28.9736 21.7816 26.8033 19.4907 24.1261 19.4907C21.4489 19.4907 19.2786 21.7816 19.2786 24.6076C19.2786 27.4335 21.4489 29.7244 24.1261 29.7244Z" fill="#FFCEBF"/>
<path d="M18.8396 38.4003H29.4123V35.3041C29.4123 32.2223 27.0456 29.7241 24.126 29.7241C21.2065 29.7241 18.8398 32.2223 18.8398 35.3041V38.4003H18.8396Z" fill="#E94444"/>
<path d="M55.5312 22.7592H43.5273C42.777 22.7592 42.1692 22.1174 42.1692 21.3256C42.1692 20.5337 42.7772 19.8921 43.5273 19.8921H55.5312C56.2814 19.8921 56.8893 20.5339 56.8893 21.3256C56.8895 22.1174 56.2814 22.7592 55.5312 22.7592Z" fill="#3E5959"/>
<path d="M55.5312 30.8871H43.5273C42.777 30.8871 42.1692 30.2453 42.1692 29.4536C42.1692 28.6618 42.7772 28.02 43.5273 28.02H55.5312C56.2814 28.02 56.8893 28.6618 56.8893 29.4536C56.8893 30.2453 56.2814 30.8871 55.5312 30.8871Z" fill="#3E5959"/>
<path d="M55.5312 39.556H43.5273C42.777 39.556 42.1692 38.9142 42.1692 38.1225C42.1692 37.3306 42.7772 36.689 43.5273 36.689H55.5312C56.2814 36.689 56.8893 37.3308 56.8893 38.1225C56.8895 38.9142 56.2814 39.556 55.5312 39.556Z" fill="#3E5959"/>
<path d="M55.5313 53.3998H10.2765C9.52631 53.3998 8.91846 52.758 8.91846 51.9663C8.91846 51.1745 9.52648 50.5327 10.2765 50.5327H55.5314C56.2817 50.5327 56.8895 51.1745 56.8895 51.9663C56.8895 52.758 56.2815 53.3998 55.5313 53.3998Z" fill="#3E5959"/>
<path d="M55.5313 61.5272H10.2765C9.52631 61.5272 8.91846 60.8854 8.91846 60.0937C8.91846 59.302 9.52648 58.6602 10.2765 58.6602H55.5314C56.2817 58.6602 56.8895 59.302 56.8895 60.0937C56.8895 60.8854 56.2815 61.5272 55.5313 61.5272Z" fill="#3E5959"/>
<path d="M55.5313 69.6547H10.2765C9.52631 69.6547 8.91846 69.0129 8.91846 68.2211C8.91846 67.4294 9.52648 66.7876 10.2765 66.7876H55.5314C56.2817 66.7876 56.8895 67.4294 56.8895 68.2211C56.8895 69.0129 56.2815 69.6547 55.5313 69.6547Z" fill="#3E5959"/>
<path d="M14.3479 86.1814C14.3087 86.1814 14.2693 86.1796 14.2299 86.176C13.8154 86.138 13.4405 85.9014 13.2121 85.5344L9.83292 80.099C9.42141 79.4372 9.59614 78.5482 10.2232 78.1139C10.8502 77.6797 11.6923 77.8639 12.1038 78.5258L14.5379 82.441L23.1362 72.7859C23.65 72.2086 24.5094 72.1808 25.0561 72.7232C25.6028 73.2655 25.6293 74.1728 25.1155 74.7497L15.3372 85.7298C15.0795 86.0193 14.7207 86.1814 14.3479 86.1814Z" fill="#3E5959"/>
<path d="M60.6748 6.63477H55.0098C56.7737 6.63477 58.2039 8.14419 58.2039 10.0063V91.6288C58.2039 93.4908 56.7739 95.0004 55.0098 95.0004H60.6748C62.4388 95.0004 63.869 93.4909 63.869 91.6288V10.0062C63.869 8.14419 62.4388 6.63477 60.6748 6.63477Z" fill="#B3DAFE"/>
</g>
<defs>
<clipPath id="clip0">
<rect width="90" height="95" fill="white"/>
</clipPath>
</defs>
</svg>
