<svg width="64" height="65" viewBox="0 0 64 65" fill="none" xmlns="http://www.w3.org/2000/svg">
<path d="M51.7034 62.8963L31.8627 42.6584L12.0221 62.8963C9.27173 65.7012 4.81284 65.7012 2.06244 62.8963C-0.687479 60.0909 -0.687479 55.5428 2.06244 52.7374L21.9035 32.5L2.06244 12.2626C-0.687479 9.45716 -0.687479 4.90909 2.06244 2.10369C4.81284 -0.701228 9.27173 -0.701228 12.0221 2.10369L31.8627 22.3416L51.7034 2.10369C54.4538 -0.701228 58.9126 -0.701228 61.6631 2.10369C64.413 4.90909 64.413 9.45716 61.6631 12.2626L41.8219 32.5L61.6631 52.7374C64.413 55.5428 64.413 60.0909 61.6631 62.8963C58.9126 65.7012 54.4538 65.7012 51.7034 62.8963V62.8963Z" fill="#E76E54"/>
</svg>
