<svg width="100" height="124" viewBox="0 0 100 124" fill="none" xmlns="http://www.w3.org/2000/svg">
<path d="M92.7491 105.468C92.7491 102.144 94.4588 99.2213 97.0454 97.5259H7.9423C3.55581 97.5259 0 101.082 0 105.468C0 109.854 3.55581 113.41 7.94206 113.41H95.0648C95.6994 113.41 96.0004 112.645 95.5504 112.198C93.8206 110.48 92.7491 108.099 92.7491 105.468Z" fill="#E7ECF6"/>
<path d="M92.7492 105.468C92.7492 102.145 94.4589 99.2213 97.0455 97.5259H90.5444C87.9579 99.2213 86.2479 102.144 86.2479 105.468V105.498C86.253 107.071 85.0136 108.362 83.441 108.362H0.546143C1.70304 111.317 4.57714 113.41 7.94216 113.41H90.5444H95.0651C95.6997 113.41 96.0008 112.646 95.5507 112.198C93.8207 110.48 92.7492 108.1 92.7492 105.468Z" fill="#D8E2F1"/>
<path d="M83.4122 123.637L78.73 119.673C78.0802 119.123 77.1284 119.123 76.4786 119.673L71.7963 123.637C71.3112 124.048 70.5674 123.703 70.5674 123.067V94.0189H84.6414V123.067C84.6412 123.703 83.8973 124.048 83.4122 123.637Z" fill="#ECBE6B"/>
<path d="M79.4438 94.0187V120.277L83.4122 123.637C83.8976 124.047 84.6412 123.703 84.6412 123.067V94.0187H79.4438Z" fill="#EAB14D"/>
<path d="M62.1971 108.739L57.5149 104.775C56.8651 104.225 55.9133 104.225 55.2635 104.775L50.5813 108.739C50.0961 109.149 49.3523 108.805 49.3523 108.169V95.6365H63.4263V108.169C63.4263 108.805 62.6825 109.149 62.1971 108.739Z" fill="#E28086"/>
<path d="M58.229 95.6365V105.379L62.1974 108.739C62.6827 109.149 63.4263 108.805 63.4263 108.169V95.6365H58.229Z" fill="#DD636E"/>
<path d="M97.3953 0H6.5119C2.91546 0 0 2.91546 0 6.51214V37.581L2.41512 57.3063L0 77.0316V105.468C0 101.082 3.55581 97.5259 7.9423 97.5259H97.3953C98.8339 97.5259 100 96.3598 100 94.9212V2.60495C100 1.16633 98.8339 0 97.3953 0V0Z" fill="#9DC6FB"/>
<path d="M97.3953 0H86.5842V69.7804C86.5842 77.6944 80.1688 84.1098 72.2548 84.1098H0V105.468C0 101.082 3.55581 97.5256 7.9423 97.5256H97.3953C98.8339 97.5256 100 96.3593 100 94.9209V2.60495C100 1.16633 98.8339 0 97.3953 0V0Z" fill="#80B4FB"/>
<path d="M55.8856 81.0742C69.0122 81.0742 79.6535 70.4329 79.6535 57.3063C79.6535 44.1796 69.0122 33.5384 55.8856 33.5384C42.7589 33.5384 32.1177 44.1796 32.1177 57.3063C32.1177 70.4329 42.7589 81.0742 55.8856 81.0742Z" fill="#B1E4F9"/>
<path d="M67.8294 54.8242H43.2978C42.2669 54.8242 41.4312 53.9884 41.4312 52.9575C41.4312 51.9266 42.2669 51.0909 43.2978 51.0909H67.8294C68.8603 51.0909 69.696 51.9266 69.696 52.9575C69.696 53.9884 68.8603 54.8242 67.8294 54.8242Z" fill="#9DC6FB"/>
<path d="M67.8294 64.5025H43.2978C42.2669 64.5025 41.4312 63.6668 41.4312 62.6359C41.4312 61.605 42.2669 60.7692 43.2978 60.7692H67.8294C68.8603 60.7692 69.696 61.605 69.696 62.6359C69.696 63.6668 68.8603 64.5025 67.8294 64.5025Z" fill="#9DC6FB"/>
<path d="M0 37.581V77.0316C6.33633 72.7626 10.5044 65.5214 10.5044 57.3063C10.5044 49.0912 6.33633 41.85 0 37.581Z" fill="#B1E4F9"/>
<path d="M14.8149 0H18.548V97.5259H14.8149V0Z" fill="#80B4FB"/>
<path d="M51.0063 26.0539L51.9166 23.6639H58.1663L59.0661 26.0486C59.4291 27.0229 60.5321 27.4978 61.4716 27.136C62.436 26.7719 62.923 25.695 62.5591 24.7306L57.1156 10.3064C57.1091 10.2895 57.1025 10.2723 57.0955 10.2556C56.7553 9.42784 55.9575 8.8934 55.0625 8.8934C55.0617 8.8934 55.0613 8.8934 55.0605 8.8934C54.1648 8.89437 53.367 9.43026 53.0277 10.2592C53.0219 10.2733 53.0164 10.2875 53.0111 10.3018L47.5175 24.7255C47.1506 25.689 47.6341 26.7673 48.5975 27.1341C49.5609 27.5007 50.6395 27.0171 51.0063 26.0539ZM55.0557 15.4217L56.7574 19.9308H53.3385L55.0557 15.4217Z" fill="#F9F6F9"/>
<path d="M44.0871 25.1731V10.5434C44.0871 9.51248 43.2513 8.67673 42.2204 8.67673C41.1895 8.67673 40.3538 9.51248 40.3538 10.5434V25.1731C40.3538 26.2041 41.1895 27.0398 42.2204 27.0398C43.2513 27.0398 44.0871 26.2041 44.0871 25.1731Z" fill="#F9F6F9"/>
<path d="M23.2249 24.9424C23.2249 25.0653 23.2374 25.185 23.2602 25.3011C23.2911 25.7516 23.4826 26.1777 23.8052 26.4979C24.1549 26.8451 24.6277 27.0398 25.1203 27.0398H25.1273C25.2489 27.0393 28.1165 27.0284 29.2628 27.0084C33.5794 26.9327 36.7122 23.1757 36.7122 18.0746C36.7122 12.7123 33.6582 9.10959 29.1124 9.10959H25.0915C24.5958 9.10959 24.1206 9.30668 23.7704 9.65757C23.4203 10.0085 23.2239 10.4841 23.2249 10.9796V10.9903V10.9908V24.9424ZM29.1124 12.8427C32.7001 12.8427 32.9792 16.8471 32.9792 18.0746C32.9792 20.6304 31.8099 23.2298 29.1975 23.2755C28.6865 23.2845 27.7985 23.2917 26.9807 23.2968C26.9753 21.6239 26.9645 14.5838 26.9616 12.8424H29.1124V12.8427Z" fill="#F9F6F9"/>
<path d="M86.6274 27.3061H86.6322C87.661 27.3061 88.4962 26.4735 88.4986 25.444L88.5156 18.5225L92.8493 11.865C93.4118 11.0009 93.1673 9.84476 92.3033 9.28227C91.4397 8.72002 90.2831 8.96427 89.7206 9.82831L86.6479 14.5485L83.5402 9.78914C82.9765 8.92582 81.8196 8.68327 80.9568 9.24672C80.0937 9.81042 79.8509 10.9671 80.4144 11.8302L84.7825 18.5195L84.7656 25.4348C84.7629 26.466 85.5965 27.3036 86.6274 27.3061Z" fill="#F9F6F9"/>
<path d="M92.3034 9.28249C91.4399 8.72025 90.2832 8.96473 89.7207 9.82854L86.6481 14.5487L86.584 14.4506V27.3039C86.5985 27.3044 86.6128 27.306 86.6275 27.3063H86.6323C87.6611 27.3063 88.4963 26.4737 88.4988 25.4442L88.5157 18.5227L92.8495 11.8652C93.4119 11.0012 93.1675 9.84498 92.3034 9.28249Z" fill="#B1E4F9"/>
<path d="M77.3859 14.6119C77.3859 11.4863 74.7464 8.94322 71.502 8.94322H67.6142C67.6134 8.94322 67.6125 8.94322 67.6118 8.94322C67.611 8.94322 67.6103 8.94322 67.6093 8.94322C66.5784 8.94322 65.7427 9.77897 65.7427 10.8099V25.4396C65.7427 26.4705 66.5784 27.3063 67.6093 27.3063C68.6402 27.3063 69.476 26.4705 69.476 25.4396V21.3985L74.1181 26.6727C74.4871 27.092 75.0022 27.3061 75.52 27.3061C75.9579 27.3061 76.3978 27.1527 76.7525 26.8405C77.5264 26.1596 77.6016 24.9799 76.9204 24.2061L73.2422 20.0271C75.6399 19.3108 77.3859 17.1542 77.3859 14.6119ZM71.502 16.5475C71.0326 16.5475 70.2421 16.5506 69.4973 16.5542C69.4936 15.8285 69.4886 13.4373 69.4864 12.6765H71.5018C72.6676 12.6765 73.6526 13.5628 73.6526 14.6121C73.6528 15.6612 72.6679 16.5475 71.502 16.5475Z" fill="#F9F6F9"/>
</svg>
