<svg width="70" height="93" viewBox="0 0 70 93" fill="none" xmlns="http://www.w3.org/2000/svg">
<path d="M0 9.98291V88.7768C0 90.7499 1.59952 92.3492 3.5724 92.3492H66.4272C68.4003 92.3492 69.9998 90.7497 69.9998 88.7768V9.98291H0Z" fill="#DFEBFA"/>
<path d="M6.13184 88.7768V9.98291H0V88.7768C0 90.7499 1.59952 92.3492 3.5724 92.3492H9.70425C7.73136 92.3492 6.13184 90.7497 6.13184 88.7768Z" fill="#B1DBFC"/>
<path d="M66.4276 0H9.85498V10.3545H70.0001V3.5724C70.0001 1.59934 68.4004 0 66.4276 0V0Z" fill="#5CB3F8"/>
<path d="M10.2264 0H3.57258C1.59952 0 0 1.59934 0 3.5724V10.3545H10.2262V0H10.2264Z" fill="#FF656F"/>
<path d="M9.70443 0H3.57258C1.59952 0 0 1.59934 0 3.5724V10.3545H6.13184V3.5724C6.13184 1.59934 7.73136 0 9.70443 0V0Z" fill="#FF4756"/>
<path d="M63.0779 6.57076H17.0246C16.255 6.57076 15.6311 5.94686 15.6311 5.17723C15.6311 4.40759 16.255 3.78369 17.0246 3.78369H63.0779C63.8475 3.78369 64.4714 4.40759 64.4714 5.17723C64.4714 5.94686 63.8475 6.57076 63.0779 6.57076Z" fill="#8BCAFF"/>
<path d="M34.9999 16.0552C27.8334 16.0552 22.0239 21.8647 22.0239 29.0311C22.0239 33.158 23.9526 36.832 26.9554 39.2085V35.9142C26.9554 33.4911 28.767 31.5085 30.9811 31.5085H39.0185C41.2327 31.5085 43.0442 33.4911 43.0442 35.9142V39.2085C46.0468 36.832 47.9757 33.1578 47.9757 29.0311C47.9759 21.8647 42.1663 16.0552 34.9999 16.0552Z" fill="#5CB3F8"/>
<path d="M27.8306 29.031C27.8306 22.8632 32.1353 17.7043 37.9031 16.3853C36.9692 16.1717 35.9984 16.0552 34.9999 16.0552C27.8334 16.0552 22.0239 21.8647 22.0239 29.0311C22.0239 33.158 23.9526 36.832 26.9554 39.2085V35.9142C26.9554 34.5993 27.4895 33.415 28.3313 32.6061C28.0061 31.4703 27.8306 30.2714 27.8306 29.031Z" fill="#0290F4"/>
<path d="M35.0001 31.1799C37.6203 31.1799 39.7444 29.0559 39.7444 26.4357C39.7444 23.8155 37.6203 21.6914 35.0001 21.6914C32.3799 21.6914 30.2559 23.8155 30.2559 26.4357C30.2559 29.0559 32.3799 31.1799 35.0001 31.1799Z" fill="#FFCEBE"/>
<path d="M34.3438 26.4357C34.3438 24.5474 35.4471 22.917 37.0441 22.1533C36.425 21.8573 35.7321 21.6914 35.0001 21.6914C32.3799 21.6914 30.2559 23.8154 30.2559 26.4357C30.2559 29.0559 32.3799 31.1799 35.0001 31.1799C35.7321 31.1799 36.425 31.014 37.0441 30.718C35.4471 29.9543 34.3438 28.324 34.3438 26.4357Z" fill="#FFB1A0"/>
<path d="M39.1445 31.1802H30.8556C28.5721 31.1802 26.7039 33.0484 26.7039 35.3319V39.0075C28.9531 40.8799 31.8446 42.0072 35 42.0072C38.1553 42.0072 41.0468 40.8801 43.2961 39.0075V35.3319C43.2961 33.0484 41.4278 31.1802 39.1445 31.1802Z" fill="#FF656F"/>
<path d="M30.7918 34.9602C30.7918 33.2853 31.7975 31.8347 33.2345 31.1802H30.8556C28.5721 31.1802 26.7039 33.0484 26.7039 35.3319V39.0075C27.9028 40.0055 29.2853 40.789 30.7918 41.3058V34.9602Z" fill="#FF4756"/>
<path d="M23.4108 49.0137H9.62194C8.57038 49.0137 7.71777 49.8661 7.71777 50.9178V61.7018C7.71777 62.7535 8.57038 63.6059 9.62194 63.6059H23.4108C24.4624 63.6059 25.315 62.7535 25.315 61.7018V50.9178C25.315 49.8661 24.4626 49.0137 23.4108 49.0137Z" fill="#43CB8E"/>
<path d="M23.4108 69.873H9.62194C8.57038 69.873 7.71777 70.7257 7.71777 71.7772V82.5611C7.71777 83.6127 8.57038 84.4653 9.62194 84.4653H23.4108C24.4624 84.4653 25.315 83.6127 25.315 82.5611V71.7772C25.315 70.7255 24.4626 69.873 23.4108 69.873Z" fill="#43CB8E"/>
<path d="M12.5021 61.7018V50.9178C12.5021 49.8661 13.3545 49.0137 14.4062 49.0137H9.62194C8.57038 49.0137 7.71777 49.8661 7.71777 50.9178V61.7018C7.71777 62.7535 8.57038 63.6059 9.62194 63.6059H14.4062C13.3547 63.6059 12.5021 62.7535 12.5021 61.7018Z" fill="#00BA66"/>
<path d="M12.5021 82.5611V71.7772C12.5021 70.7257 13.3545 69.873 14.4062 69.873H9.62194C8.57038 69.873 7.71777 70.7257 7.71777 71.7772V82.5611C7.71777 83.6127 8.57038 84.4653 9.62194 84.4653H14.4062C13.3547 84.4653 12.5021 83.6127 12.5021 82.5611Z" fill="#00BA66"/>
<path d="M60.9603 52.2036H31.8672C31.0975 52.2036 30.4736 51.5797 30.4736 50.81C30.4736 50.0404 31.0975 49.4165 31.8672 49.4165H60.9603C61.7299 49.4165 62.3538 50.0404 62.3538 50.81C62.3538 51.5797 61.7299 52.2036 60.9603 52.2036Z" fill="#8479C2"/>
<path d="M60.9603 57.7036H31.8672C31.0975 57.7036 30.4736 57.0797 30.4736 56.31C30.4736 55.5404 31.0975 54.9165 31.8672 54.9165H60.9603C61.7299 54.9165 62.3538 55.5404 62.3538 56.31C62.3538 57.0797 61.7299 57.7036 60.9603 57.7036Z" fill="#B1DBFC"/>
<path d="M60.9603 63.2036H31.8672C31.0975 63.2036 30.4736 62.5797 30.4736 61.81C30.4736 61.0404 31.0975 60.4165 31.8672 60.4165H60.9603C61.7299 60.4165 62.3538 61.0404 62.3538 61.81C62.3538 62.5795 61.7299 63.2036 60.9603 63.2036Z" fill="#B1DBFC"/>
<path d="M60.9603 73.0629H31.8672C31.0975 73.0629 30.4736 72.4391 30.4736 71.6694C30.4736 70.8998 31.0975 70.2759 31.8672 70.2759H60.9603C61.7299 70.2759 62.3538 70.8998 62.3538 71.6694C62.3538 72.4391 61.7299 73.0629 60.9603 73.0629Z" fill="#8479C2"/>
<path d="M60.9603 78.5625H31.8672C31.0975 78.5625 30.4736 77.9386 30.4736 77.1689C30.4736 76.3993 31.0975 75.7754 31.8672 75.7754H60.9603C61.7299 75.7754 62.3538 76.3993 62.3538 77.1689C62.3538 77.9386 61.7299 78.5625 60.9603 78.5625Z" fill="#B1DBFC"/>
<path d="M60.9603 84.0629H31.8672C31.0975 84.0629 30.4736 83.4391 30.4736 82.6694C30.4736 81.8998 31.0975 81.2759 31.8672 81.2759H60.9603C61.7299 81.2759 62.3538 81.8998 62.3538 82.6694C62.3538 83.4391 61.7299 84.0629 60.9603 84.0629Z" fill="#B1DBFC"/>
<path d="M15.9518 59.389C15.5952 59.389 15.2384 59.2528 14.9664 58.9808L12.7244 56.7388C12.1801 56.1946 12.1801 55.3123 12.7244 54.7679C13.2686 54.2237 14.151 54.2237 14.6953 54.7679L15.9518 56.0243L18.3375 53.6386C18.8817 53.0944 19.7641 53.0944 20.3084 53.6386C20.8528 54.1828 20.8528 55.0651 20.3084 55.6095L16.9371 58.9808C16.6651 59.2528 16.3084 59.389 15.9518 59.389Z" fill="#DFEBFA"/>
<path d="M15.9518 80.2482C15.5952 80.2482 15.2384 80.1122 14.9664 79.84L12.7244 77.5982C12.1801 77.054 12.1801 76.1716 12.7244 75.6273C13.2686 75.0831 14.151 75.0829 14.6953 75.6273L15.9518 76.8837L18.3375 74.498C18.8817 73.9538 19.7641 73.9538 20.3084 74.498C20.8528 75.0422 20.8528 75.9245 20.3084 76.4689L16.9371 79.8402C16.6651 80.1122 16.3084 80.2482 15.9518 80.2482Z" fill="#DFEBFA"/>
</svg>
