<svg width="100" height="97" viewBox="0 0 100 97" fill="none" xmlns="http://www.w3.org/2000/svg">
<path d="M70.6249 36.2105H60.7246V21.554C60.7246 18.5616 59.6085 15.746 57.5822 13.6262C55.5574 11.5124 52.863 10.3463 49.9993 10.3463C44.0854 10.3463 39.274 15.3741 39.274 21.5542V36.2107H29.3738V21.5542C29.3738 9.66956 38.6265 0.000488281 49.9993 0.000488281C55.5054 0.000488281 60.6844 2.24133 64.5827 6.31069C68.4804 10.3881 70.6249 15.8003 70.6249 21.5542V36.2105Z" fill="#685E68"/>
<path d="M53.0311 0.229575C43.0811 1.75807 35.4174 10.739 35.4174 21.5537V36.2106H29.3735V21.5537C29.3735 9.66949 38.6266 0 49.9991 0C51.0246 0 52.0358 0.0779062 53.0311 0.229575Z" fill="#554E56"/>
<path d="M75.5746 35.7109V79.1292C75.5746 80.9484 74.1648 82.4215 72.424 82.4215H27.5762C25.8353 82.4215 24.4236 80.9484 24.4236 79.1292V35.7109C24.4236 33.8917 25.8353 32.4165 27.5762 32.4165H72.424C74.1648 32.4165 75.5746 33.8917 75.5746 35.7109Z" fill="#FE646F"/>
<path d="M55.1407 70.1293H44.8582C44.2862 70.1293 43.8428 69.6115 43.9053 69.0177L45.4562 54.6001C45.4875 54.3081 45.4181 54.0158 45.2657 53.7688C44.6437 52.7608 44.3084 51.54 44.3827 50.2315C44.5495 47.297 46.8318 44.9043 49.6398 44.7221C52.9113 44.5098 55.6263 47.2176 55.6263 50.5904C55.6263 51.7623 55.298 52.8526 54.7339 53.7678C54.5814 54.0152 54.5112 54.3079 54.5427 54.6003L56.0937 69.0177C56.1561 69.6113 55.7128 70.1293 55.1407 70.1293Z" fill="#554E56"/>
<path d="M33.4729 82.4215H27.5762C25.8353 82.4215 24.4236 80.9484 24.4236 79.1292V35.7109C24.4236 33.8917 25.8353 32.4165 27.5762 32.4165H33.4729C31.7042 32.4165 30.2687 33.9166 30.2687 35.7648V79.0753C30.2687 80.9235 31.7042 82.4215 33.4729 82.4215Z" fill="#FD4755"/>
<path d="M100 68.5953V91.1799C100 93.948 97.8507 96.194 95.1998 96.194H4.79825C2.14732 96.194 0 93.948 0 91.1799V68.5953C0 65.8251 2.14732 63.5791 4.79825 63.5791H95.1998C97.8507 63.5791 100 65.8251 100 68.5953Z" fill="#A2F4C1"/>
<path d="M10.7207 96.194H4.79826C2.14732 96.194 0 93.948 0 91.1799V68.5953C0 65.8251 2.14732 63.5791 4.79826 63.5791H10.7207C8.02816 63.5791 5.84316 65.8603 5.84316 68.6762V91.0991C5.84316 93.9149 8.02816 96.194 10.7207 96.194Z" fill="#78D0B1"/>
<path d="M22.4916 83.2624L18.2711 80.7159L22.4916 78.1694C23.2028 77.7403 23.4465 76.7899 23.0359 76.0467C22.625 75.3035 21.7155 75.0486 21.0045 75.478L16.7841 78.0244V72.9319C16.7841 72.0737 16.1182 71.3779 15.297 71.3779C14.4757 71.3779 13.8099 72.0737 13.8099 72.9319V78.0244L9.58944 75.4782C8.87823 75.0488 7.96874 75.3035 7.55811 76.0469C7.14749 76.7901 7.39117 77.7405 8.10238 78.1697L12.3229 80.7161L8.10238 83.2626C7.39117 83.6917 7.14749 84.6421 7.55811 85.3853C7.83352 85.8838 8.33337 86.1625 8.8473 86.1625C9.0995 86.1625 9.35528 86.0954 9.58944 85.9541L13.8099 83.4078V88.5003C13.8099 89.3585 14.4757 90.0543 15.297 90.0543C16.1182 90.0543 16.7841 89.3585 16.7841 88.5003V83.4078L21.0045 85.9541C21.2387 86.0954 21.4945 86.1625 21.7467 86.1625C22.2606 86.1625 22.7605 85.8838 23.0359 85.3853C23.4467 84.6419 23.2028 83.6913 22.4916 83.2624Z" fill="#78D0B1"/>
<path d="M68.7164 83.2623L64.496 80.7159L68.7164 78.1694C69.4277 77.7403 69.6713 76.7899 69.2607 76.0467C68.8501 75.3035 67.9406 75.0486 67.2294 75.4779L63.0089 78.0242V72.9317C63.0089 72.0735 62.3431 71.3777 61.5218 71.3777C60.7006 71.3777 60.0348 72.0735 60.0348 72.9317V78.0242L55.8143 75.4779C55.1031 75.0486 54.1936 75.3032 53.783 76.0467C53.3723 76.7899 53.616 77.7403 54.3272 78.1694L58.5477 80.7159L54.3272 83.2623C53.616 83.6914 53.3723 84.6418 53.783 85.3851C54.0584 85.8836 54.5582 86.1623 55.0721 86.1623C55.3244 86.1623 55.5801 86.0951 55.8143 85.9538L60.0348 83.4076V88.5001C60.0348 89.3583 60.7006 90.054 61.5218 90.054C62.3431 90.054 63.0089 89.3583 63.0089 88.5001V83.4076L67.2294 85.9538C67.4635 86.0951 67.7193 86.1623 67.9715 86.1623C68.4855 86.1623 68.9853 85.8836 69.2607 85.3851C69.6715 84.6418 69.4279 83.6912 68.7164 83.2623Z" fill="#78D0B1"/>
<path d="M45.6041 83.2623L41.3837 80.7159L45.6041 78.1694C46.3154 77.7403 46.559 76.7899 46.1484 76.0467C45.7378 75.3035 44.8283 75.0486 44.1171 75.4779L39.8966 78.0242V72.9317C39.8966 72.0735 39.2308 71.3777 38.4095 71.3777C37.5883 71.3777 36.9225 72.0735 36.9225 72.9317V78.0242L32.702 75.4779C31.9908 75.0486 31.0813 75.3032 30.6707 76.0467C30.26 76.7899 30.5037 77.7403 31.2149 78.1694L35.4354 80.7159L31.2149 83.2623C30.5037 83.6914 30.26 84.6418 30.6707 85.3851C30.9461 85.8836 31.4459 86.1623 31.9598 86.1623C32.2121 86.1623 32.4678 86.0951 32.702 85.9538L36.9225 83.4076V88.5001C36.9225 89.3583 37.5883 90.054 38.4095 90.054C39.2308 90.054 39.8966 89.3583 39.8966 88.5001V83.4076L44.1171 85.9538C44.3512 86.0951 44.607 86.1623 44.8592 86.1623C45.3731 86.1623 45.873 85.8836 46.1484 85.3851C46.559 84.6418 46.3154 83.6912 45.6041 83.2623Z" fill="#78D0B1"/>
<path d="M91.2122 82.7423L87.0938 80.2576L91.2122 77.7729C91.9234 77.3438 92.1671 76.3934 91.7564 75.6502C91.3456 74.9067 90.4363 74.6521 89.7251 75.0814L85.6067 77.5661V72.5967C85.6067 71.7385 84.9409 71.0427 84.1197 71.0427C83.2984 71.0427 82.6326 71.7385 82.6326 72.5967V77.5663L78.5142 75.0816C77.803 74.6521 76.8935 74.9072 76.4829 75.6504C76.0723 76.3936 76.316 77.344 77.0272 77.7731L81.1456 80.2578L77.0272 82.7425C76.316 83.1716 76.0723 84.1221 76.4829 84.8653C76.7583 85.3638 77.2582 85.6425 77.7721 85.6425C78.0243 85.6425 78.2801 85.5753 78.5142 85.434L82.6326 82.9493V87.919C82.6326 88.7772 83.2984 89.4729 84.1197 89.4729C84.9409 89.4729 85.6067 88.7772 85.6067 87.919V82.9495L89.7251 85.4342C89.9593 85.5756 90.2151 85.6427 90.4673 85.6427C90.9812 85.6427 91.481 85.3638 91.7564 84.8655C92.1673 84.1219 91.9236 83.1714 91.2122 82.7423Z" fill="#78D0B1"/>
</svg>
