<svg width="65" height="65" viewBox="0 0 65 65" fill="none" xmlns="http://www.w3.org/2000/svg">
<path d="M51.8665 4.43651C55.5614 8.09836 55.5882 14.0621 51.9265 17.757C51.9066 17.7771 51.8866 17.7971 51.8665 17.817L50.6342 18.9614L37.3418 5.66903L38.4862 4.52463C42.148 0.829762 48.1118 0.802972 51.8067 4.46465C51.8268 4.48453 51.8468 4.50458 51.8667 4.52463V4.43651H51.8665Z" fill="#0073FC"/>
<path d="M50.6338 18.9611L23.0809 46.5142L9.78857 33.2218L37.3416 5.58081V5.66876L50.6338 18.9611Z" fill="#4FABF7"/>
<path d="M23.0809 46.5145L6.09131 50.2116L9.78854 33.2222L23.0809 46.5145Z" fill="#22C27A"/>
<path d="M53.1866 3.29189H53.0986C48.7423 -1.0837 41.6637 -1.0992 37.2883 3.25701C37.2767 3.26863 37.2651 3.28026 37.2534 3.29189L8.55616 31.9893C8.30309 32.1931 8.11859 32.4696 8.02794 32.7816L4.33071 49.771C4.22978 50.3808 4.42591 51.0024 4.85893 51.4436C5.18395 51.7754 5.62692 51.9651 6.09129 51.9719H6.44344L23.433 48.2746C23.7639 48.2195 24.0706 48.0662 24.3132 47.8345L53.0986 19.0491C55.2014 16.9509 56.3746 14.097 56.3558 11.1266C56.4043 8.1935 55.2607 5.36636 53.1866 3.29189ZM12.2534 33.2217L37.3416 8.13352L48.1691 18.961L23.0809 43.9612L12.2534 33.2217ZM10.8448 36.7429L19.5596 45.4576L8.37992 47.9225L10.8448 36.7429ZM50.6338 16.4963L39.8063 5.58069C42.8053 2.6966 47.5468 2.6966 50.5458 5.58069H50.6338C52.0649 7.03427 52.857 8.99872 52.8344 11.0385C52.8877 13.0838 52.0909 15.0597 50.6338 16.4963Z" fill="#243447"/>
</svg>
