<svg width="100" height="94" viewBox="0 0 100 94" fill="none" xmlns="http://www.w3.org/2000/svg">
<path d="M70.3125 0C53.9428 0 40.625 13.3178 40.625 29.6875C40.625 46.0572 53.9428 59.375 70.3125 59.375C86.6822 59.375 100 46.0572 100 29.6875C100 13.3178 86.6822 0 70.3125 0Z" fill="#4FABF7"/>
<path d="M87.9687 34.531L85.299 32.5287C86.1996 30.7796 86.7188 28.74 86.7188 26.5623C86.7188 20.1005 82.1627 14.8435 76.5625 14.8435C70.9623 14.8435 66.4062 20.1005 66.4062 26.5623C66.4062 33.024 70.9623 38.281 76.5625 38.281C78.7145 38.281 80.7107 37.5025 82.3549 36.18L85.1562 38.2812C85.8467 38.799 86.826 38.6591 87.3438 37.9687L88.2812 36.7187C88.799 36.0283 88.659 35.0488 87.9687 34.531ZM76.5625 33.5937C73.5471 33.5937 71.0938 30.4396 71.0938 26.5625C71.0938 22.6853 73.5471 19.5312 76.5625 19.5312C79.5779 19.5312 82.0312 22.6853 82.0312 26.5625C82.0312 27.6728 81.8293 28.7234 81.4713 29.6582L80.4688 28.9062C79.7783 28.3884 78.799 28.5283 78.2812 29.2187L77.3438 30.4687C76.826 31.1591 76.966 32.1384 77.6563 32.6562L78.3748 33.1951C77.8072 33.4523 77.1977 33.5937 76.5625 33.5937Z" fill="#F3F1F1"/>
<path d="M29.6875 0C13.3178 0 0 13.3178 0 29.6875C0 46.0572 13.3178 59.375 29.6875 59.375C46.0572 59.375 59.375 46.0572 59.375 29.6875C59.375 13.3178 46.0572 0 29.6875 0Z" fill="#43CB8E"/>
<path d="M34.375 57.8124C18.0053 57.8124 4.6875 44.4946 4.6875 28.1249C4.6875 15.9009 12.1145 5.38018 22.6924 0.834473C9.6873 3.98779 0 15.7265 0 29.6874C0 46.0571 13.3178 59.3749 29.6875 59.3749C33.8332 59.3749 37.7826 58.5194 41.3701 56.9778C39.126 57.5218 36.784 57.8124 34.375 57.8124Z" fill="#00BA66"/>
<path d="M35.1562 19.5312V17.9688C35.1562 17.1059 34.4566 16.4062 33.5938 16.4062H20.3125C19.0182 16.4062 17.9688 17.4557 17.9688 18.75V37.5C17.9688 38.3629 18.6684 39.0625 19.5312 39.0625H21.0938C21.9566 39.0625 22.6562 38.3629 22.6562 37.5V30.4688H30.4688C31.3316 30.4688 32.0312 29.7691 32.0312 28.9063V27.3438C32.0312 26.4809 31.3316 25.7813 30.4688 25.7813H22.6562V21.0938H33.5938C34.4566 21.0938 35.1562 20.3941 35.1562 19.5312Z" fill="#F3F1F1"/>
<path d="M50 31.25C33.6303 31.25 20.3125 44.5678 20.3125 60.9375C20.3125 69.1463 23.7143 76.975 29.6805 82.5799L26.6426 91.6934C26.2205 92.9592 27.5525 94.1635 28.7715 93.61L39.5252 88.7219C42.8715 89.9852 46.3918 90.625 50 90.625C66.3697 90.625 79.6875 77.3072 79.6875 60.9375C79.6875 44.5678 66.3697 31.25 50 31.25Z" fill="#F4D844"/>
<path d="M31.3303 91.6932L34.3682 82.5797C28.4018 76.975 25 69.1463 25 60.9375C25 45.3564 37.0654 32.5412 52.3438 31.3424C51.5703 31.2816 50.7889 31.25 50 31.25C33.6303 31.25 20.3125 44.5678 20.3125 60.9375C20.3125 69.1463 23.7143 76.975 29.6805 82.5799L26.6426 91.6934C26.2205 92.9592 27.5525 94.1633 28.7715 93.61L31.2832 92.4682C31.234 92.2229 31.2412 91.96 31.3303 91.6932Z" fill="#ECBD2C"/>
<path d="M59.7243 71.1955L61.1218 70.4966C61.8937 70.1107 62.2064 69.1722 61.8206 68.4004L58.5937 61.7187H58.4798L52.0964 48.9519C51.6386 48.0365 50.6298 47.5097 49.5888 47.6922C48.8407 47.8232 48.2132 48.3332 47.8736 49.0123L41.4062 61.7187V61.9466L38.1792 68.4004C37.7933 69.1722 38.1062 70.1107 38.878 70.4966L40.2757 71.1955C41.0476 71.5814 41.9861 71.2685 42.372 70.4966L44.4173 66.406H55.5827L57.628 70.4966C58.014 71.2687 58.9525 71.5814 59.7243 71.1955ZM46.7611 61.7187L49.9999 55.2408L53.239 61.7187H46.7611Z" fill="#F3F1F1"/>
</svg>
