<svg width="90" height="95" viewBox="0 0 90 95" fill="none" xmlns="http://www.w3.org/2000/svg">
<path d="M65.2592 7.52215C65.2592 3.37683 68.4428 0.0166016 72.3697 0.0166016H17.0237C13.9008 0.0166016 11.3691 2.68894 11.3691 5.98535V73.9544H65.259V18.851V15.0279V7.52215H65.2592Z" fill="#FFE07D"/>
<path d="M68.077 0.0166016C64.1498 0.0166016 60.9664 3.37701 60.9664 7.52215V37.2867C60.9664 39.0379 59.8768 40.5959 58.2799 41.0712C46.5048 44.5759 37.874 55.9971 37.874 69.5477C37.874 73.1101 38.4709 76.5254 39.5642 79.6885H60.9664H65.2593V39.9703V18.8508V7.52215C65.2593 3.37683 68.4429 0.0166016 72.3698 0.0166016H68.077Z" fill="#FFD064"/>
<path d="M56.6653 12.9616H21.0408C20.2907 12.9616 19.6826 12.3199 19.6826 11.5279C19.6826 10.7359 20.2905 10.0942 21.0408 10.0942H56.6653C57.4154 10.0942 58.0235 10.7359 58.0235 11.5279C58.0235 12.3199 57.4154 12.9616 56.6653 12.9616Z" fill="#2B4D66"/>
<path d="M56.6653 27.257H21.0408C20.2907 27.257 19.6826 26.6153 19.6826 25.8233C19.6826 25.0313 20.2905 24.3896 21.0408 24.3896H56.6653C57.4154 24.3896 58.0235 25.0313 58.0235 25.8233C58.0235 26.6153 57.4154 27.257 56.6653 27.257Z" fill="#2B4D66"/>
<path d="M56.6653 41.5529H21.0408C20.2907 41.5529 19.6826 40.9112 19.6826 40.1192C19.6826 39.3274 20.2905 38.6855 21.0408 38.6855H56.6653C57.4154 38.6855 58.0235 39.3272 58.0235 40.1192C58.0235 40.9112 57.4154 41.5529 56.6653 41.5529Z" fill="#2B4D66"/>
<path d="M56.6653 55.8483H21.0408C20.2907 55.8483 19.6826 55.2066 19.6826 54.4146C19.6826 53.6227 20.2905 52.981 21.0408 52.981H56.6653C57.4154 52.981 58.0235 53.6227 58.0235 54.4146C58.0235 55.2066 57.4154 55.8483 56.6653 55.8483Z" fill="#2B4D66"/>
<path d="M58.7626 79.6888H10.0531C4.50098 79.6888 0 74.9378 0 69.077V67.1977C0 66.7011 0.381555 66.2983 0.852039 66.2983H58.7626V79.6888Z" fill="#EAB14D"/>
<path d="M37.874 69.548C37.874 73.1104 38.4709 76.5258 39.5642 79.6888H58.7627V66.2983H38.0431C37.9325 67.3658 37.874 68.4498 37.874 69.548Z" fill="#E49542"/>
<path d="M65.9032 94.9838C79.2116 94.9838 90.0001 83.5958 90.0001 69.548C90.0001 55.5003 79.2116 44.1123 65.9032 44.1123C52.5947 44.1123 41.8062 55.5003 41.8062 69.548C41.8062 83.5958 52.5947 94.9838 65.9032 94.9838Z" fill="#DD636E"/>
<path d="M65.903 44.1123C65.2641 44.1123 64.6313 44.139 64.0049 44.1906C76.4261 45.2122 86.2038 56.1747 86.2038 69.548C86.2038 82.9214 76.4259 93.8839 64.0049 94.9055C64.6313 94.9571 65.2641 94.9838 65.903 94.9838C79.2114 94.9838 90 83.5958 90 69.548C90 55.5003 79.2114 44.1123 65.903 44.1123Z" fill="#DA4A54"/>
<path d="M65.9031 88.5201C75.8297 88.5201 83.8768 80.026 83.8768 69.5479C83.8768 59.0698 75.8297 50.5757 65.9031 50.5757C55.9765 50.5757 47.9294 59.0698 47.9294 69.5479C47.9294 80.026 55.9765 88.5201 65.9031 88.5201Z" fill="#F4FBFF"/>
<path d="M65.903 50.5757C65.0701 50.5757 64.2509 50.6369 63.4482 50.7525C72.2135 52.0162 78.9672 59.9488 78.9672 69.5479C78.9672 79.147 72.2133 87.0796 63.4482 88.3433C64.2509 88.4591 65.0701 88.5201 65.903 88.5201C75.8295 88.5201 83.8766 80.026 83.8766 69.5477C83.8766 59.0698 75.8295 50.5757 65.903 50.5757Z" fill="#DAF1F4"/>
<path d="M65.9029 57.8478C65.1528 57.8478 64.5447 57.2061 64.5447 56.4141V55.7574C64.5447 54.9656 65.1526 54.3237 65.9029 54.3237C66.653 54.3237 67.2611 54.9654 67.2611 55.7574V56.4141C67.2611 57.2061 66.6532 57.8478 65.9029 57.8478Z" fill="#365E7D"/>
<path d="M74.7007 61.6946C74.3531 61.6946 74.0055 61.5545 73.7401 61.2744C73.2098 60.7145 73.21 59.8068 73.7406 59.2471L74.1805 58.7829C74.7109 58.2234 75.5709 58.2232 76.1011 58.7835C76.6313 59.3434 76.6312 60.2511 76.1006 60.8108L75.6607 61.2749C75.3958 61.5547 75.0484 61.6946 74.7007 61.6946Z" fill="#365E7D"/>
<path d="M78.9672 70.9811H78.345C77.5949 70.9811 76.9868 70.3394 76.9868 69.5474C76.9868 68.7555 77.5947 68.1138 78.345 68.1138H78.9672C79.7173 68.1138 80.3254 68.7555 80.3254 69.5474C80.3254 70.3394 79.7173 70.9811 78.9672 70.9811Z" fill="#365E7D"/>
<path d="M53.4606 70.9811H52.8384C52.0883 70.9811 51.4802 70.3394 51.4802 69.5474C51.4802 68.7555 52.0881 68.1138 52.8384 68.1138H53.4606C54.2107 68.1138 54.8188 68.7555 54.8188 69.5474C54.8188 70.3394 54.2109 70.9811 53.4606 70.9811Z" fill="#365E7D"/>
<path d="M75.1409 80.7324C74.7934 80.7324 74.446 80.5926 74.1807 80.3128L73.7408 79.8487C73.2103 79.2888 73.2101 78.381 73.7403 77.8214C74.2706 77.2609 75.1305 77.2607 75.6609 77.8208L76.1008 78.285C76.6314 78.8448 76.6316 79.7526 76.1013 80.3123C75.8361 80.5924 75.4885 80.7324 75.1409 80.7324Z" fill="#365E7D"/>
<path d="M65.9029 84.7711C65.1528 84.7711 64.5447 84.1294 64.5447 83.3375V82.6807C64.5447 81.889 65.1526 81.2471 65.9029 81.2471C66.653 81.2471 67.2611 81.8888 67.2611 82.6807V83.3375C67.2611 84.1294 66.6532 84.7711 65.9029 84.7711Z" fill="#365E7D"/>
<path d="M56.6649 80.7321C56.3175 80.7321 55.9698 80.5921 55.7045 80.3123C55.174 79.7522 55.174 78.8447 55.7045 78.2848L56.1442 77.8207C56.6748 77.261 57.5345 77.261 58.065 77.8207C58.5954 78.3807 58.5954 79.2883 58.065 79.8481L57.6252 80.3123C57.36 80.5921 57.0124 80.7321 56.6649 80.7321Z" fill="#365E7D"/>
<path d="M57.1047 61.6945C56.7572 61.6945 56.4096 61.5545 56.1442 61.2747L55.7045 60.8105C55.174 60.2505 55.174 59.3429 55.7045 58.7831C56.235 58.2234 57.0948 58.2234 57.6252 58.7831L58.065 59.2472C58.5954 59.8073 58.5954 60.7148 58.065 61.2747C57.7999 61.5546 57.4521 61.6945 57.1047 61.6945Z" fill="#365E7D"/>
<path d="M69.6047 70.9816H65.9029C65.1528 70.9816 64.5447 70.3399 64.5447 69.5479V61.9815C64.5447 61.1897 65.1526 60.5479 65.9029 60.5479C66.653 60.5479 67.2611 61.1895 67.2611 61.9815V68.1143H69.6047C70.3548 68.1143 70.9629 68.756 70.9629 69.5479C70.9629 70.3399 70.355 70.9816 69.6047 70.9816Z" fill="#2B4D66"/>
<path d="M78.2145 18.8508H65.259V7.52215C65.259 3.37683 68.4426 0.0166016 72.3696 0.0166016C76.2967 0.0166016 79.4801 3.37701 79.4801 7.52215V17.5147C79.4804 18.2527 78.9136 18.8508 78.2145 18.8508Z" fill="#EAB14D"/>
<path d="M74.6862 0.426218C73.9598 0.162045 73.1813 0.0166016 72.3698 0.0166016C68.4428 0.0166016 65.2593 3.37701 65.2593 7.52215V18.8508H69.8921V7.52215C69.8919 4.23335 71.8969 1.44061 74.6862 0.426218Z" fill="#E49542"/>
</svg>
