<svg width="100" height="108" viewBox="0 0 100 108" fill="none" xmlns="http://www.w3.org/2000/svg">
<path d="M47.9556 89.2821H7.14256C3.19788 89.2821 0.000244141 86.0843 0.000244141 82.1398V74.9971H54.8163L47.9556 89.2821Z" fill="#D3DCFB"/>
<path d="M92.8609 32.1418V62.1487V82.1397H7.14256C3.19788 82.1397 0.000244141 78.9419 0.000244141 74.9972V32.1418L50.0019 14.2852L92.8609 32.1418Z" fill="#EBF5FC"/>
<path d="M12.6135 46.4267H8.81907C7.89457 46.4267 7.14502 45.6772 7.14502 44.7527V40.9582C7.14502 40.0337 7.89457 39.2842 8.81907 39.2842H12.6135C13.538 39.2842 14.2875 40.0337 14.2875 40.9582V44.7527C14.2875 45.6772 13.538 46.4267 12.6135 46.4267Z" fill="#3C58A0"/>
<path d="M26.8989 46.4267H23.1045C22.18 46.4267 21.4304 45.6772 21.4304 44.7527V40.9582C21.4304 40.0337 22.18 39.2842 23.1045 39.2842H26.8989C27.8234 39.2842 28.5729 40.0337 28.5729 40.9582V44.7527C28.5729 45.6772 27.8234 46.4267 26.8989 46.4267Z" fill="#3C58A0"/>
<path d="M41.1838 46.4267H37.3894C36.4649 46.4267 35.7153 45.6772 35.7153 44.7527V40.9582C35.7153 40.0337 36.4649 39.2842 37.3894 39.2842H41.1838C42.1083 39.2842 42.8579 40.0337 42.8579 40.9582V44.7527C42.8579 45.6772 42.1085 46.4267 41.1838 46.4267Z" fill="#3C58A0"/>
<path d="M55.4692 46.4267H51.6748C50.7503 46.4267 50.0007 45.6772 50.0007 44.7527V40.9582C50.0007 40.0337 50.7503 39.2842 51.6748 39.2842H55.4692C56.3937 39.2842 57.1433 40.0337 57.1433 40.9582V44.7527C57.1433 45.6772 56.3937 46.4267 55.4692 46.4267Z" fill="#3C58A0"/>
<path d="M69.7519 46.4267H65.9575C65.033 46.4267 64.2834 45.6772 64.2834 44.7527V40.9582C64.2834 40.0337 65.033 39.2842 65.9575 39.2842H69.7519C70.6764 39.2842 71.426 40.0337 71.426 40.9582V44.7527C71.426 45.6772 70.6766 46.4267 69.7519 46.4267Z" fill="#3C58A0"/>
<path d="M84.0371 46.4267H80.2427C79.3182 46.4267 78.5686 45.6772 78.5686 44.7527V40.9582C78.5686 40.0337 79.3182 39.2842 80.2427 39.2842H84.0371C84.9616 39.2842 85.7111 40.0337 85.7111 40.9582V44.7527C85.7111 45.6772 84.9616 46.4267 84.0371 46.4267Z" fill="#3C58A0"/>
<path d="M12.6135 60.7119H8.81907C7.89457 60.7119 7.14502 59.9623 7.14502 59.0378V55.2434C7.14502 54.3189 7.89457 53.5693 8.81907 53.5693H12.6135C13.538 53.5693 14.2875 54.3189 14.2875 55.2434V59.0378C14.2875 59.9625 13.538 60.7119 12.6135 60.7119Z" fill="#3C58A0"/>
<path d="M26.8989 60.7119H23.1045C22.18 60.7119 21.4304 59.9623 21.4304 59.0378V55.2434C21.4304 54.3189 22.18 53.5693 23.1045 53.5693H26.8989C27.8234 53.5693 28.5729 54.3189 28.5729 55.2434V59.0378C28.5729 59.9625 27.8234 60.7119 26.8989 60.7119Z" fill="#3C58A0"/>
<path d="M41.1838 60.7119H37.3894C36.4649 60.7119 35.7153 59.9623 35.7153 59.0378V55.2434C35.7153 54.3189 36.4649 53.5693 37.3894 53.5693H41.1838C42.1083 53.5693 42.8579 54.3189 42.8579 55.2434V59.0378C42.8579 59.9625 42.1085 60.7119 41.1838 60.7119Z" fill="#3C58A0"/>
<path d="M57.1433 60.7119V55.3549C57.1433 54.3687 56.3439 53.5693 55.3577 53.5693H51.7863C50.8001 53.5693 50.0007 54.3687 50.0007 55.3549V58.9263C50.0007 59.9125 50.8003 60.7119 51.7863 60.7119H57.1433Z" fill="#3C58A0"/>
<path d="M12.6135 74.997H8.81907C7.89457 74.997 7.14502 74.2475 7.14502 73.323V69.5285C7.14502 68.604 7.89457 67.8545 8.81907 67.8545H12.6135C13.538 67.8545 14.2875 68.604 14.2875 69.5285V73.323C14.2875 74.2475 13.538 74.997 12.6135 74.997Z" fill="#3C58A0"/>
<path d="M26.8989 74.997H23.1045C22.18 74.997 21.4304 74.2475 21.4304 73.323V69.5285C21.4304 68.604 22.18 67.8545 23.1045 67.8545H26.8989C27.8234 67.8545 28.5729 68.604 28.5729 69.5285V73.323C28.5729 74.2475 27.8234 74.997 26.8989 74.997Z" fill="#3C58A0"/>
<path d="M41.1838 74.997H37.3894C36.4649 74.997 35.7153 74.2475 35.7153 73.323V69.5285C35.7153 68.604 36.4649 67.8545 37.3894 67.8545H41.1838C42.1083 67.8545 42.8579 68.604 42.8579 69.5285V73.323C42.8579 74.2475 42.1085 74.997 41.1838 74.997Z" fill="#3C58A0"/>
<path d="M83.9866 39.2842H80.2933C80.0698 39.2842 79.857 39.3281 79.6609 39.4053C80.3002 39.6577 80.753 40.2796 80.753 41.0087V44.702C80.753 45.4311 80.3 46.053 79.6609 46.3053C79.857 46.3828 80.0698 46.4267 80.2933 46.4267H83.9866C84.9392 46.4267 85.7113 45.6546 85.7113 44.7022V41.0089C85.7111 40.0563 84.9389 39.2842 83.9866 39.2842Z" fill="#2A428C"/>
<path d="M69.7015 39.2842H66.0081C65.7846 39.2842 65.5718 39.3281 65.3757 39.4053C66.015 39.6577 66.4678 40.2796 66.4678 41.0087V44.702C66.4678 45.4311 66.0148 46.053 65.3757 46.3053C65.5718 46.3828 65.7846 46.4267 66.0081 46.4267H69.7015C70.654 46.4267 71.4259 45.6546 71.4259 44.7022V41.0089C71.4259 40.0563 70.654 39.2842 69.7015 39.2842Z" fill="#2A428C"/>
<path d="M55.4188 39.2842H51.7254C51.5019 39.2842 51.2891 39.3281 51.093 39.4053C51.7323 39.6577 52.1853 40.2796 52.1853 41.0087V44.702C52.1853 45.4311 51.7323 46.053 51.093 46.3053C51.2891 46.3828 51.5019 46.4267 51.7254 46.4267H55.4188C56.3713 46.4267 57.1434 45.6546 57.1434 44.7022V41.0089C57.1432 40.0563 56.3711 39.2842 55.4188 39.2842Z" fill="#2A428C"/>
<path d="M41.1334 39.2842H37.44C37.2165 39.2842 37.0037 39.3281 36.8076 39.4053C37.4469 39.6577 37.8999 40.2796 37.8999 41.0087V44.702C37.8999 45.4311 37.4469 46.053 36.8076 46.3053C37.0037 46.3828 37.2165 46.4267 37.44 46.4267H41.1334C42.0859 46.4267 42.858 45.6546 42.858 44.7022V41.0089C42.8578 40.0563 42.0859 39.2842 41.1334 39.2842Z" fill="#2A428C"/>
<path d="M26.8482 39.2842H23.1548C22.9313 39.2842 22.7185 39.3281 22.5225 39.4053C23.1617 39.6577 23.6146 40.2796 23.6146 41.0087V44.702C23.6146 45.4311 23.1615 46.053 22.5225 46.3053C22.7185 46.3828 22.9313 46.4267 23.1548 46.4267H26.8482C27.8007 46.4267 28.5729 45.6546 28.5729 44.7022V41.0089C28.5729 40.0563 27.8007 39.2842 26.8482 39.2842Z" fill="#2A428C"/>
<path d="M12.563 39.2842H8.86968C8.64619 39.2842 8.43338 39.3281 8.2373 39.4053C8.87658 39.6577 9.32962 40.2796 9.32962 41.0087V44.702C9.32962 45.4311 8.87658 46.053 8.2373 46.3053C8.43338 46.3828 8.64619 46.4267 8.86968 46.4267H12.563C13.5156 46.4267 14.2877 45.6546 14.2877 44.7022V41.0089C14.2875 40.0563 13.5154 39.2842 12.563 39.2842Z" fill="#2A428C"/>
<path d="M12.563 53.5693H8.86968C8.64619 53.5693 8.43338 53.6133 8.2373 53.6905C8.87658 53.9429 9.32962 54.5648 9.32962 55.2938V58.9874C9.32962 59.7164 8.87658 60.3383 8.2373 60.5907C8.43338 60.6681 8.64619 60.7121 8.86968 60.7121H12.563C13.5156 60.7121 14.2877 59.9399 14.2877 58.9876V55.294C14.2875 54.3415 13.5154 53.5693 12.563 53.5693Z" fill="#2A428C"/>
<path d="M12.563 67.855H8.86968C8.64619 67.855 8.43338 67.8989 8.2373 67.9761C8.87658 68.2285 9.32962 68.8504 9.32962 69.5795V73.273C9.32962 74.0021 8.87658 74.624 8.2373 74.8764C8.43338 74.9538 8.64619 74.9977 8.86968 74.9977H12.563C13.5156 74.9977 14.2877 74.2256 14.2877 73.2732V69.5797C14.2875 68.6269 13.5154 67.855 12.563 67.855Z" fill="#2A428C"/>
<path d="M26.8482 53.5693H23.1548C22.9313 53.5693 22.7185 53.6133 22.5225 53.6905C23.1617 53.9429 23.6146 54.5648 23.6146 55.2938V58.9874C23.6146 59.7164 23.1615 60.3383 22.5225 60.5907C22.7185 60.6681 22.9313 60.7121 23.1548 60.7121H26.8482C27.8007 60.7121 28.5729 59.9399 28.5729 58.9876V55.294C28.5729 54.3415 27.8007 53.5693 26.8482 53.5693Z" fill="#2A428C"/>
<path d="M26.8482 67.855H23.1548C22.9313 67.855 22.7185 67.8989 22.5225 67.9761C23.1617 68.2285 23.6146 68.8504 23.6146 69.5795V73.273C23.6146 74.0021 23.1615 74.624 22.5225 74.8764C22.7185 74.9538 22.9313 74.9977 23.1548 74.9977H26.8482C27.8007 74.9977 28.5729 74.2256 28.5729 73.2732V69.5797C28.5729 68.6269 27.8007 67.855 26.8482 67.855Z" fill="#2A428C"/>
<path d="M41.1334 53.5693H37.44C37.2165 53.5693 37.0037 53.6133 36.8076 53.6905C37.4469 53.9429 37.8999 54.5648 37.8999 55.2938V58.9874C37.8999 59.7164 37.4469 60.3383 36.8076 60.5907C37.0037 60.6681 37.2165 60.7121 37.44 60.7121H41.1334C42.0859 60.7121 42.858 59.9399 42.858 58.9876V55.294C42.8578 54.3415 42.0859 53.5693 41.1334 53.5693Z" fill="#2A428C"/>
<path d="M57.1432 60.7119V55.2938C57.1432 54.3413 56.371 53.5693 55.4185 53.5693H51.7251C51.5017 53.5693 51.2888 53.6133 51.0928 53.6905C51.7321 53.9429 52.1851 54.5648 52.1851 55.2938V58.9874C52.1851 59.7164 51.7321 60.3383 51.0928 60.5907C51.2888 60.6681 51.5017 60.7121 51.7251 60.7121H57.1432V60.7119Z" fill="#2A428C"/>
<path d="M41.1334 67.855H37.44C37.2165 67.855 37.0037 67.8989 36.8076 67.9761C37.4469 68.2285 37.8999 68.8504 37.8999 69.5795V73.273C37.8999 74.0021 37.4469 74.624 36.8076 74.8764C37.0037 74.9538 37.2165 74.9977 37.44 74.9977H41.1334C42.0859 74.9977 42.858 74.2256 42.858 73.2732V69.5797C42.8578 68.6269 42.0859 67.855 41.1334 67.855Z" fill="#2A428C"/>
<path d="M87.8992 30.0742V62.1483V82.1396H92.8608V62.1483V32.1415L87.8992 30.0742Z" fill="#D3DCFB"/>
<path d="M92.8609 32.1415V14.2849C92.8609 10.3402 89.663 7.14258 85.7185 7.14258H7.14256C3.19788 7.14258 0.000244141 10.3402 0.000244141 14.2849V32.1415H92.8609Z" fill="#FF4155"/>
<path d="M22.5057 15.9019H17.8567C16.9636 15.9019 16.24 15.1781 16.24 14.2852C16.24 13.3923 16.9638 12.6685 17.8567 12.6685H22.5057C23.3988 12.6685 24.1224 13.3923 24.1224 14.2852C24.1224 15.1781 23.3986 15.9019 22.5057 15.9019Z" fill="#E80054"/>
<path d="M33.9274 15.9019H29.2783C28.3852 15.9019 27.6616 15.1781 27.6616 14.2852C27.6616 13.3923 28.3854 12.6685 29.2783 12.6685H33.9274C34.8205 12.6685 35.5441 13.3923 35.5441 14.2852C35.5441 15.1781 34.8205 15.9019 33.9274 15.9019Z" fill="#E80054"/>
<path d="M63.578 15.9019H58.9287C58.0356 15.9019 57.312 15.1781 57.312 14.2852C57.312 13.3923 58.0358 12.6685 58.9287 12.6685H63.578C64.4711 12.6685 65.1947 13.3923 65.1947 14.2852C65.1947 15.1781 64.4711 15.9019 63.578 15.9019Z" fill="#E80054"/>
<path d="M74.9998 15.9019H70.3506C69.4575 15.9019 68.7339 15.1781 68.7339 14.2852C68.7339 13.3923 69.4577 12.6685 70.3506 12.6685H74.9998C75.8929 12.6685 76.6166 13.3923 76.6166 14.2852C76.6166 15.1781 75.8927 15.9019 74.9998 15.9019Z" fill="#E80054"/>
<path d="M30.3561 13.3924C30.3561 15.8578 28.3575 17.8564 25.892 17.8564C23.4266 17.8564 21.428 15.8578 21.428 13.3924V4.46405C21.4278 1.9986 23.4264 0 25.8918 0C28.3573 0 30.3559 1.9986 30.3559 4.46405V13.3924H30.3561Z" fill="#EBF5FC"/>
<path d="M71.4283 13.3924C71.4283 15.8578 69.4297 17.8564 66.9643 17.8564C64.4988 17.8564 62.5 15.8578 62.5 13.3924V4.46405C62.5 1.9986 64.4986 0 66.9641 0C69.4295 0 71.4281 1.9986 71.4281 4.46405V13.3924H71.4283Z" fill="#EBF5FC"/>
<path d="M66.9641 0C66.0475 0 65.1963 0.277055 64.4873 0.75081C65.6853 1.55142 66.4748 2.91514 66.4748 4.46426V13.3924C66.4748 14.9413 65.6853 16.3052 64.4873 17.1058C65.1961 17.5794 66.0475 17.8566 66.9641 17.8566C69.4295 17.8566 71.4281 15.858 71.4281 13.3926V4.46405C71.4283 1.9986 69.4297 0 66.9641 0V0Z" fill="#D3DCFB"/>
<path d="M25.8918 0C24.9753 0 24.124 0.277055 23.415 0.75081C24.613 1.55142 25.4026 2.91514 25.4026 4.46426V13.3924C25.4026 14.9413 24.613 16.3052 23.415 17.1058C24.1238 17.5794 24.9753 17.8566 25.8918 17.8566C28.3572 17.8566 30.3558 15.858 30.3558 13.3926V4.46405C30.3561 1.9986 28.3575 0 25.8918 0V0Z" fill="#D3DCFB"/>
<path d="M85.7185 7.14258H80.7585C84.7032 7.14258 87.9009 10.3402 87.9009 14.2849V32.1417H92.8606V14.2851C92.8609 10.3404 89.663 7.14258 85.7185 7.14258Z" fill="#E80054"/>
<path d="M0 23.3823H92.8608V26.616H0V23.3823Z" fill="#E80054"/>
<path d="M73.2152 107.139C88.008 107.139 99.9999 95.1469 99.9999 80.3541C99.9999 65.5613 88.008 53.5693 73.2152 53.5693C58.4224 53.5693 46.4304 65.5613 46.4304 80.3541C46.4304 95.1469 58.4224 107.139 73.2152 107.139Z" fill="#4FABF7"/>
<path d="M73.2152 99.9963C84.0633 99.9963 92.8574 91.2022 92.8574 80.3541C92.8574 69.506 84.0633 60.7119 73.2152 60.7119C62.3671 60.7119 53.573 69.506 53.573 80.3541C53.573 91.2022 62.3671 99.9963 73.2152 99.9963Z" fill="#EBF5FC"/>
<path d="M73.2153 78.3995C72.3222 78.3995 71.5986 77.6757 71.5986 76.7828V67.8545C71.5986 66.9616 72.3224 66.2378 73.2153 66.2378C74.1084 66.2378 74.8321 66.9616 74.8321 67.8545V76.7828C74.8321 77.6757 74.1082 78.3995 73.2153 78.3995Z" fill="#3C58A0"/>
<path d="M82.1435 81.9707H76.7864C75.8933 81.9707 75.1697 81.2469 75.1697 80.354C75.1697 79.4611 75.8935 78.7373 76.7864 78.7373H82.1435C83.0366 78.7373 83.7603 79.4611 83.7603 80.354C83.7603 81.2469 83.0364 81.9707 82.1435 81.9707Z" fill="#3C58A0"/>
<path d="M73.2153 53.5693C72.3794 53.5693 71.5528 53.6097 70.7363 53.6846C84.3666 54.9358 95.0418 66.3973 95.0418 80.3541C95.0418 94.3108 84.3664 105.772 70.7361 107.024C71.5526 107.098 72.3792 107.139 73.2151 107.139C88.0079 107.139 99.9999 95.1468 99.9999 80.3541C99.9999 65.5614 88.0081 53.5693 73.2153 53.5693Z" fill="#1886EA"/>
<path d="M73.2152 60.7119C72.3761 60.7119 71.5493 60.7649 70.7378 60.867C80.4163 62.0851 87.9026 70.3452 87.9026 80.3541C87.9026 90.363 80.4163 98.6232 70.7378 99.8413C71.5493 99.9434 72.3761 99.9963 73.2152 99.9963C84.0632 99.9963 92.8574 91.2022 92.8574 80.3541C92.8574 69.5061 84.0632 60.7119 73.2152 60.7119Z" fill="#D3DCFB"/>
<path d="M73.2152 83.9254C75.1876 83.9254 76.7865 82.3265 76.7865 80.3541C76.7865 78.3817 75.1876 76.7827 73.2152 76.7827C71.2428 76.7827 69.6438 78.3817 69.6438 80.3541C69.6438 82.3265 71.2428 83.9254 73.2152 83.9254Z" fill="#FFDD40"/>
</svg>
