<svg width="128" height="128" viewBox="0 0 128 128" fill="none" xmlns="http://www.w3.org/2000/svg">
<path d="M64.0062 128C55.3679 128 46.9796 126.312 39.0913 122.975C31.4656 119.75 24.6274 115.125 18.7518 109.25C12.8763 103.375 8.25081 96.5375 5.02549 88.9125C1.68766 81.025 0 72.6375 0 64C0 61.5125 2.0127 59.5 4.50044 59.5C6.98818 59.5 9.00088 61.5125 9.00088 64C9.00088 71.425 10.451 78.625 13.3263 85.4125C16.1016 91.9625 20.0645 97.85 25.115 102.9C30.1654 107.95 36.0535 111.925 42.6042 114.688C49.3798 117.55 56.5805 119 64.0062 119C71.432 119 78.6327 117.55 85.4208 114.675C91.9715 111.9 97.8596 107.937 102.91 102.887C107.961 97.8375 111.936 91.95 114.699 85.4C117.561 78.625 119.012 71.425 119.012 64C119.012 56.575 117.561 49.375 114.686 42.5875C111.92 36.0532 107.917 30.1151 102.898 25.1C97.8875 20.074 91.9474 16.0704 85.4083 13.3125C78.6327 10.45 71.432 9 64.0062 9C61.5185 9 59.5058 6.9875 59.5058 4.5C59.5058 2.0125 61.5185 0 64.0062 0C72.6446 0 81.0329 1.6875 88.9212 5.025C96.5469 8.25 103.385 12.875 109.261 18.75C115.136 24.625 119.749 31.475 122.975 39.0875C126.312 46.975 128 55.3625 128 64C128 72.6375 126.312 81.025 122.975 88.9125C119.762 96.5375 115.136 103.375 109.261 109.25C103.385 115.125 96.5344 119.738 88.9212 122.963C81.0329 126.313 72.6446 128 64.0062 128V128Z" fill="#0073FC"/>
</svg>
