<svg width="90" height="95" viewBox="0 0 90 95" fill="none" xmlns="http://www.w3.org/2000/svg">
<g clip-path="url(#clip0)">
<path fill-rule="evenodd" clip-rule="evenodd" d="M11.8999 62.3085L0.0530829 27.5369C-0.117073 27.0305 0.135524 26.4696 0.615231 26.2846C16.1909 20.3714 33.7419 14.8718 48.745 8.11456C49.4154 7.66813 49.9416 8.10918 50.2304 8.95305L68.8438 59.597L73.8983 74.4346C74.0684 74.9409 73.8209 75.5072 73.3412 75.687L37.7235 89.2069L23.8394 94.4777C23.3597 94.6629 22.8285 94.3961 22.6533 93.8897L11.8999 62.3085Z" fill="white"/>
<path fill-rule="evenodd" clip-rule="evenodd" d="M21.7765 50.7704L15.8609 14.3542C15.7732 13.8206 16.1137 13.3142 16.614 13.2216L57.3531 5.84911L66.683 4.22651C67.1936 3.99235 68.024 4.26454 68.2198 5.468L78.2976 58.5895L80.8197 74.1296C80.9074 74.6579 80.5669 75.1696 80.0666 75.2622L42.7623 82.0141L28.2182 84.6494C27.7179 84.7366 27.2331 84.3772 27.1454 83.8489L21.7765 50.7704Z" fill="white"/>
<path fill-rule="evenodd" clip-rule="evenodd" d="M33.1901 40.0336V75.045C33.1901 75.6059 33.6234 76.0687 34.1546 76.0687H49.5497H72.3408H75.6158H89.0356C89.5668 76.0687 90.0001 75.6059 90.0001 75.045V58.5958V13.1572V12.6835H80.2009C79.2571 12.6835 77.2971 12.825 77.2971 10.5655L77.2764 0.464844H34.1545C33.6232 0.464844 33.1899 0.922217 33.1899 1.48312V10.2224V13.9196V40.0336H33.1901Z" fill="white"/>
<path fill-rule="evenodd" clip-rule="evenodd" d="M16.8407 20.3926C11.3222 22.3529 5.85527 24.2967 0.615231 26.2841C0.135524 26.4692 -0.117073 27.03 0.0530829 27.5363L11.8999 62.3082L22.6533 93.8892C22.8287 94.3955 23.3599 94.6624 23.8394 94.4772L37.7235 89.2064L69.3598 77.2002L16.8407 20.3926Z" fill="#B5C4CF"/>
<path fill-rule="evenodd" clip-rule="evenodd" d="M33.1902 10.2217L16.614 13.2218C16.1137 13.3144 15.7732 13.8207 15.8609 14.3544L16.8409 20.3928L21.7767 50.7705L27.1456 83.8489C27.2333 84.3771 27.7181 84.7364 28.2184 84.6493L42.7625 82.014L69.3598 77.2006L75.6158 76.068H72.3409L33.1902 10.2217Z" fill="#D7E7EC"/>
<path fill-rule="evenodd" clip-rule="evenodd" d="M90 58.5958V13.1572V12.6835V12.5256C90 12.2315 89.8813 12.1825 89.4533 11.7415L78.8753 1.09106C78.375 0.590088 78.2926 0.464844 77.9985 0.464844H77.2764H34.1545C33.6232 0.464844 33.1899 0.922217 33.1899 1.48312V75.045C33.1899 75.6059 33.6232 76.0687 34.1545 76.0687H89.0355C89.5667 76.0687 90 75.6059 90 75.045V58.5958Z" fill="#EDF3F4"/>
<path fill-rule="evenodd" clip-rule="evenodd" d="M33.1902 10.2217L29.3066 10.9242V78.807C29.3066 79.3733 29.7399 79.8307 30.2712 79.8307H45.6663H54.826L69.3598 77.2008L75.6159 76.0682H72.3409H68.3129H49.5498H34.1547C33.6235 76.0682 33.1902 75.6054 33.1902 75.0445C33.1902 53.4385 33.1902 31.8273 33.1902 10.2217Z" fill="#B5C4CF"/>
<path fill-rule="evenodd" clip-rule="evenodd" d="M21.7764 50.7703L16.8406 20.3926C15.5049 20.8663 14.1742 21.34 12.8486 21.8137L13.4625 25.5871L18.3982 55.9649L23.7724 89.0433C23.8548 89.5713 24.3396 89.9307 24.8399 89.8437L39.384 87.2084L46.2849 85.9615L67.0696 78.0663L66.8221 77.6579L54.8257 79.8305L42.7624 82.014L28.2182 84.6493C27.718 84.7365 27.2332 84.3771 27.1454 83.8489L21.7764 50.7703Z" fill="#9AAFB7"/>
<path fill-rule="evenodd" clip-rule="evenodd" d="M89.9999 58.5958V13.1572V12.6835C89.9999 12.1335 89.8297 12.1281 89.4532 11.7415L78.8752 1.09106C78.3749 0.590088 78.2925 0.464844 77.9984 0.464844H77.2763H66.5435C79.659 18.9997 80.4068 52.4102 70.6747 73.2645C70.2259 74.2338 69.7566 75.1649 69.2667 76.0687H72.3405H75.6155H89.0354C89.5666 76.0687 89.9999 75.6059 89.9999 75.045V58.5958Z" fill="#D7E7EC"/>
<path fill-rule="evenodd" clip-rule="evenodd" d="M77.2969 10.5645C77.2969 12.8241 79.2567 12.6825 80.2007 12.6825H89.9999V12.5246C89.9999 12.2305 89.8813 12.1815 89.4533 11.7405L78.8753 1.09009C78.375 0.589111 78.2926 0.463867 77.9985 0.463867H77.2764L77.2969 10.5645Z" fill="white"/>
<path fill-rule="evenodd" clip-rule="evenodd" d="M89.4533 11.7415L78.8753 1.09106C78.375 0.590088 78.2926 0.464844 77.9985 0.464844H77.2764L77.2969 10.5653C77.2969 12.8249 79.2567 12.6833 80.2007 12.6833H89.9999V12.5254C89.9999 12.2315 89.8813 12.1825 89.4533 11.7415Z" fill="#B5C4CF"/>
<path d="M81.2838 22.731H42.4531C41.703 22.731 41.095 22.089 41.095 21.2969C41.095 20.5048 41.703 19.8628 42.4531 19.8628H81.2838C82.0339 19.8628 82.6419 20.5048 82.6419 21.2969C82.6419 22.089 82.0341 22.731 81.2838 22.731Z" fill="#9AAFB7"/>
<path d="M81.2838 32.9185H42.4531C41.703 32.9185 41.095 32.2765 41.095 31.4844C41.095 30.6923 41.703 30.0503 42.4531 30.0503H81.2838C82.0339 30.0503 82.6419 30.6923 82.6419 31.4844C82.6419 32.2765 82.0341 32.9185 81.2838 32.9185Z" fill="#9AAFB7"/>
<path d="M81.2838 43.106H42.4531C41.703 43.106 41.095 42.464 41.095 41.6719C41.095 40.8798 41.703 40.2378 42.4531 40.2378H81.2838C82.0339 40.2378 82.6419 40.8798 82.6419 41.6719C82.6419 42.464 82.0341 43.106 81.2838 43.106Z" fill="#9AAFB7"/>
<path d="M81.2838 53.2935H42.4531C41.703 53.2935 41.095 52.6515 41.095 51.8594C41.095 51.0673 41.703 50.4253 42.4531 50.4253H81.2838C82.0339 50.4253 82.6419 51.0673 82.6419 51.8594C82.6419 52.6515 82.0341 53.2935 81.2838 53.2935Z" fill="#9AAFB7"/>
<path d="M81.2838 63.481H42.4531C41.703 63.481 41.095 62.839 41.095 62.0469C41.095 61.2548 41.703 60.6128 42.4531 60.6128H81.2838C82.0339 60.6128 82.6419 61.2548 82.6419 62.0469C82.6419 62.839 82.0341 63.481 81.2838 63.481Z" fill="#9AAFB7"/>
</g>
<defs>
<clipPath id="clip0">
<rect width="90" height="95" fill="white"/>
</clipPath>
</defs>
</svg>
