<svg width="90" height="95" viewBox="0 0 90 95" fill="none" xmlns="http://www.w3.org/2000/svg">
<path d="M2.69116 17.9307H70.9899V37.8709H2.69116V17.9307Z" fill="#FFDA45"/>
<path d="M63.3743 17.9307H70.9899V37.8709H63.3743V17.9307Z" fill="#FAC800"/>
<path d="M41.8562 17.9307H63.4633V37.8709H41.8562V17.9307Z" fill="#FFF5F5"/>
<path d="M85.1295 93.6062H17.3564C11.8137 93.6062 7.32031 88.891 7.32031 83.0747C7.32031 77.2584 11.8137 72.5432 17.3564 72.5432H85.1295V93.6062Z" fill="#F0F5FA"/>
<path d="M78.0452 72.5435H85.1295V93.6063H78.0452V72.5435Z" fill="#E4ECF2"/>
<path d="M88.6714 95.0001H17.3564C11.0901 95.0001 5.99194 89.6505 5.99194 83.0748C5.99194 76.4991 11.09 71.1494 17.3564 71.1494H88.6716C89.4052 71.1494 89.9999 71.7735 89.9999 72.5433C89.9999 73.3131 89.4052 73.9371 88.6716 73.9371H17.3564C12.555 73.9371 8.64855 78.0362 8.64855 83.0748C8.64855 88.1131 12.5548 92.2124 17.3564 92.2124H88.6716C89.4052 92.2124 89.9999 92.8365 89.9999 93.6063C89.9999 94.3761 89.4052 95.0001 88.6714 95.0001Z" fill="#6E9EFF"/>
<path d="M85.1294 80.9584H30.4194C29.6858 80.9584 29.0911 80.3343 29.0911 79.5645C29.0911 78.7947 29.6858 78.1707 30.4194 78.1707H85.1294V80.9584Z" fill="#C5D7E6"/>
<path d="M85.1294 87.9794H44.9457C44.2122 87.9794 43.6174 87.3553 43.6174 86.5855C43.6174 85.8157 44.2122 85.1917 44.9457 85.1917H85.1294V87.9794Z" fill="#C5D7E6"/>
<path d="M73.77 69.7637H7.8236C4.23647 69.7637 1.32837 66.7123 1.32837 62.9479C1.32837 59.1837 4.23629 56.1321 7.8236 56.1321H73.7701V69.7637H73.77Z" fill="#F0F5FA"/>
<path d="M66.6855 56.1321H73.7698V69.7637H66.6855V56.1321Z" fill="#E4ECF2"/>
<path d="M77.8335 71.1574H7.82353C3.50973 71.1574 0 67.4746 0 62.9477C0 58.4208 3.50956 54.738 7.82353 54.738H77.8335C78.567 54.738 79.1618 55.3621 79.1618 56.1319C79.1618 56.9017 78.567 57.5258 77.8335 57.5258H7.82353C4.97459 57.5258 2.65661 59.958 2.65661 62.9477C2.65661 65.9375 4.97441 68.3697 7.82353 68.3697H77.8335C78.567 68.3697 79.1618 68.9938 79.1618 69.7636C79.1618 70.5333 78.567 71.1574 77.8335 71.1574Z" fill="#74D84B"/>
<path d="M73.7699 64.6312H55.1179C54.3843 64.6312 53.7896 64.0072 53.7896 63.2374C53.7896 62.4676 54.3843 61.8435 55.1179 61.8435H73.7699V64.6312Z" fill="#C5D7E6"/>
<path d="M23.2976 1.3938H76.2296C80.2145 1.3938 83.4448 4.78368 83.4448 8.9651C83.4448 13.1467 80.2144 16.5364 76.2296 16.5364H23.2976V1.3938Z" fill="#F0F5FA"/>
<path d="M76.2295 1.3938H69.1453C73.1302 1.3938 76.3604 4.78368 76.3604 8.9651C76.3604 13.1467 73.13 16.5364 69.1453 16.5364H76.2295C80.2145 16.5364 83.4447 13.1465 83.4447 8.9651C83.4447 4.78368 80.2145 1.3938 76.2295 1.3938Z" fill="#E4ECF2"/>
<path d="M76.2296 17.9305H18.7836C18.05 17.9305 17.4553 17.3064 17.4553 16.5366C17.4553 15.7669 18.05 15.1428 18.7836 15.1428H76.2296C79.4756 15.1428 82.1164 12.3716 82.1164 8.96535C82.1164 5.55911 79.4756 2.78773 76.2296 2.78773H18.7836C18.05 2.78773 17.4553 2.16365 17.4553 1.39387C17.4553 0.62408 18.05 0 18.7836 0H76.2296C80.9404 0 84.773 4.02177 84.773 8.96516C84.773 13.9086 80.9404 17.9305 76.2296 17.9305Z" fill="#FC435F"/>
<path d="M10.3782 37.8706H89.3506V54.7379H10.3782V37.8706Z" fill="#6E9EFF"/>
<path d="M65.2344 37.8706H89.3505V54.7379H65.2344V37.8706Z" fill="#BF6930"/>
<path d="M82.2664 37.8706H89.3506V54.7379H82.2664V37.8706Z" fill="#AD5F2C"/>
<path d="M37.5469 49.0921H19.4803C18.0132 49.0921 16.8237 47.8439 16.8237 46.3043C16.8237 44.7648 18.0132 43.5166 19.4803 43.5166H37.5469C39.014 43.5166 40.2035 44.7648 40.2035 46.3043C40.2035 47.8439 39.014 49.0921 37.5469 49.0921Z" fill="#FFF5F5"/>
<path d="M81.6759 47.6981H73.0273C72.2937 47.6981 71.699 47.0741 71.699 46.3043C71.699 45.5345 72.2937 44.9104 73.0273 44.9104H81.6759C82.4095 44.9104 83.0043 45.5345 83.0043 46.3043C83.0043 47.0741 82.4097 47.6981 81.6759 47.6981Z" fill="#FFF5F5"/>
<path d="M57.5009 31.0285C56.7673 31.0285 56.1726 30.4044 56.1726 29.6346V26.1663C56.1726 25.3965 56.7673 24.7725 57.5009 24.7725C58.2345 24.7725 58.8292 25.3965 58.8292 26.1663V29.6346C58.8292 30.4044 58.2347 31.0285 57.5009 31.0285Z" fill="#677A8F"/>
<path d="M52.6598 31.0285C51.9263 31.0285 51.3315 30.4044 51.3315 29.6346V26.1663C51.3315 25.3965 51.9263 24.7725 52.6598 24.7725C53.3934 24.7725 53.9882 25.3965 53.9882 26.1663V29.6346C53.9882 30.4044 53.3936 31.0285 52.6598 31.0285Z" fill="#677A8F"/>
<path d="M47.819 31.0285C47.0854 31.0285 46.4907 30.4044 46.4907 29.6346V26.1663C46.4907 25.3965 47.0854 24.7725 47.819 24.7725C48.5526 24.7725 49.1473 25.3965 49.1473 26.1663V29.6346C49.1473 30.4044 48.5526 31.0285 47.819 31.0285Z" fill="#677A8F"/>
<path d="M23.26 7.57129H53.5698C54.3033 7.57129 54.8981 8.19537 54.8981 8.96516C54.8981 9.73494 54.3033 10.359 53.5698 10.359H23.26V7.57129Z" fill="#C5D7E6"/>
</svg>
