<svg width="65" height="56" viewBox="0 0 65 56" fill="none" xmlns="http://www.w3.org/2000/svg">
<path d="M55.0076 9.61087L55.0231 6.91112L44.1774 10.8433C40.2415 8.24213 35.6807 6.87207 30.9241 6.87207C26.1675 6.87207 21.6067 8.24213 17.6708 10.8434L6.8252 6.91112L6.84063 9.61087C6.86229 13.4206 8.21173 16.3106 10.1577 18.7518C7.98505 22.4421 6.84063 26.6421 6.84063 30.9555V44.2857L8.2748 44.6367C17.4312 46.878 24.3273 49.9129 29.9771 54.1876L31.1124 55.0465L32.2476 54.1876C38.0203 49.8201 44.7968 46.7851 53.5736 44.6367L55.0077 44.2857V30.9556C55.0077 26.6422 53.8633 22.4422 51.6907 18.7519C53.6365 16.3106 54.9859 13.4207 55.0076 9.61087ZM18.2359 15.051L19.0429 14.4684C22.5162 11.9606 26.6247 10.6351 30.9241 10.6351C35.2235 10.6351 39.332 11.9606 42.8053 14.4684L43.6122 15.051L50.8548 12.425C49.7992 16.1579 46.7322 18.7003 43.2841 21.5587C40.0332 24.2536 36.6727 27.0404 34.5471 31.1707L30.924 37.3816L27.301 31.1707C25.1753 27.0403 21.8148 24.2536 18.5639 21.5587C15.1159 18.7004 12.0489 16.158 10.9934 12.4251L18.2359 15.051ZM36.2124 32.0962L36.1923 32.0845L36.2136 32.0953L36.2124 32.0962ZM39.8479 29.9544C40.2809 30.3427 40.8529 30.5793 41.4803 30.5793C42.8196 30.5793 43.9067 29.5028 43.9254 28.168C44.0959 28.5841 44.1888 29.0298 44.1888 29.4831C44.1888 31.5051 42.4746 33.2134 40.4455 33.2134C39.6235 33.2134 38.8208 32.9073 38.1719 32.3772C38.6589 31.5173 39.2249 30.7142 39.8479 29.9544ZM17.9227 28.1681C17.9415 29.5029 19.0286 30.5793 20.3677 30.5793C20.9952 30.5793 21.5672 30.3428 22.0002 29.9545C22.6232 30.7142 23.1893 31.5173 23.6763 32.3772C23.0274 32.9074 22.2246 33.2135 21.4027 33.2135C19.3736 33.2135 17.6593 31.5052 17.6593 29.4832C17.6593 29.0298 17.7523 28.5842 17.9227 28.1681ZM25.6346 32.0953L25.6558 32.0845L25.6359 32.0962L25.6346 32.0953ZM51.2446 41.3448C43.1867 43.4543 36.7228 46.3458 31.1109 50.3531C25.5742 46.4177 18.9901 43.5257 10.6035 41.3436V30.9556C10.6035 27.6855 11.3825 24.4938 12.8691 21.6225C13.8822 22.5607 14.9506 23.4511 16.0136 24.3325C14.6799 25.695 13.8962 27.5272 13.8962 29.4831C13.8962 31.4687 14.6833 33.3467 16.1124 34.7711C17.5391 36.1933 19.4179 36.9764 21.4027 36.9764C22.8912 36.9764 24.3419 36.5008 25.563 35.6595L30.9241 44.8499L36.2852 35.6595C37.5063 36.5008 38.957 36.9764 40.4455 36.9764C42.4303 36.9764 44.309 36.1933 45.7358 34.7711C47.1649 33.3467 47.9519 31.4687 47.9519 29.4831C47.9519 27.5272 47.1682 25.695 45.8346 24.3325C46.8976 23.4511 47.966 22.5607 48.9791 21.6225C50.4657 24.4937 51.2446 27.6855 51.2446 30.9556V41.3448ZM21.7195 17.1901C22.909 16.3921 24.1832 15.7583 25.5169 15.2981C27.3623 16.7216 29.1591 18.3857 30.9241 20.3053C32.689 18.3857 34.4859 16.7215 36.3313 15.2981C37.665 15.7583 38.9391 16.3921 40.1286 17.1901C37.4571 19.0126 34.8873 21.3876 32.3582 24.3652L30.9241 26.0536L29.49 24.3652C26.9609 21.3876 24.391 19.0126 21.7195 17.1901Z" fill="#F7F7F7"/>
<path d="M49.1027 4.38958L49.0399 4.38957L49.0567 4.44915C50.3146 8.95182 51.019 12.1298 51.4089 14.1817C51.6039 15.2076 51.7202 15.952 51.7877 16.4397C51.8215 16.6836 51.8431 16.8632 51.8563 16.9818C51.8627 17.0407 51.8671 17.0844 51.87 17.1136L30.3823 20.2356L10.0597 17.1098L12.8709 4.44229L12.8836 4.38517L12.8244 4.38516L0 4.3836L0.000574029 0L64.1562 0.00781333L64.1558 4.39141L49.1027 4.38958ZM65 29.6972L58.6981 29.6964L59.3847 21.0972L59.9988 21.0973H60.0962L60.0365 21.0213C59.7342 20.6367 59.5483 20.1589 59.5484 19.6349C59.5485 18.6061 60.2425 17.7472 61.1889 17.4643L61.2228 17.4542V17.4193L61.2243 5.17097L62.6739 5.17114L62.6724 17.4777V17.5096L62.7023 17.5213C63.5516 17.8575 64.1532 18.6753 64.1531 19.6347C64.153 20.1587 63.9662 20.6355 63.6645 21.021L63.6052 21.0969H63.7023L64.3164 21.097L65 29.6972Z" fill="#F7F7F7"/>
</svg>
