<svg width="73" height="64" viewBox="0 0 73 64" fill="none" xmlns="http://www.w3.org/2000/svg">
<g filter="url(#filter0_d)">
<path d="M59.0076 9.61087L59.0231 6.91112L48.1774 10.8433C44.2415 8.24213 39.6807 6.87207 34.9241 6.87207C30.1675 6.87207 25.6067 8.24213 21.6708 10.8434L10.8252 6.91112L10.8406 9.61087C10.8623 13.4206 12.2117 16.3106 14.1577 18.7518C11.985 22.4421 10.8406 26.6421 10.8406 30.9555V44.2857L12.2748 44.6367C21.4312 46.878 28.3273 49.9129 33.9771 54.1876L35.1124 55.0465L36.2476 54.1876C42.0203 49.8201 48.7968 46.7851 57.5736 44.6367L59.0077 44.2857V30.9556C59.0077 26.6422 57.8633 22.4422 55.6907 18.7519C57.6365 16.3106 58.9859 13.4207 59.0076 9.61087ZM22.2359 15.051L23.0429 14.4684C26.5162 11.9606 30.6247 10.6351 34.9241 10.6351C39.2235 10.6351 43.332 11.9606 46.8053 14.4684L47.6122 15.051L54.8548 12.425C53.7992 16.1579 50.7322 18.7003 47.2841 21.5587C44.0332 24.2536 40.6727 27.0404 38.5471 31.1707L34.924 37.3816L31.301 31.1707C29.1753 27.0403 25.8148 24.2536 22.5639 21.5587C19.1159 18.7004 16.0489 16.158 14.9934 12.4251L22.2359 15.051ZM40.2124 32.0962L40.1923 32.0845L40.2136 32.0953L40.2124 32.0962ZM43.8479 29.9544C44.2809 30.3427 44.8529 30.5793 45.4803 30.5793C46.8196 30.5793 47.9067 29.5028 47.9254 28.168C48.0959 28.5841 48.1888 29.0298 48.1888 29.4831C48.1888 31.5051 46.4746 33.2134 44.4455 33.2134C43.6235 33.2134 42.8208 32.9073 42.1719 32.3772C42.6589 31.5173 43.2249 30.7142 43.8479 29.9544ZM21.9227 28.1681C21.9415 29.5029 23.0286 30.5793 24.3677 30.5793C24.9952 30.5793 25.5672 30.3428 26.0002 29.9545C26.6232 30.7142 27.1893 31.5173 27.6763 32.3772C27.0274 32.9074 26.2246 33.2135 25.4027 33.2135C23.3736 33.2135 21.6593 31.5052 21.6593 29.4832C21.6593 29.0298 21.7523 28.5842 21.9227 28.1681ZM29.6346 32.0953L29.6558 32.0845L29.6359 32.0962L29.6346 32.0953ZM55.2446 41.3448C47.1867 43.4543 40.7228 46.3458 35.1109 50.3531C29.5742 46.4177 22.9901 43.5257 14.6035 41.3436V30.9556C14.6035 27.6855 15.3825 24.4938 16.8691 21.6225C17.8822 22.5607 18.9506 23.4511 20.0136 24.3325C18.6799 25.695 17.8962 27.5272 17.8962 29.4831C17.8962 31.4687 18.6833 33.3467 20.1124 34.7711C21.5391 36.1933 23.4179 36.9764 25.4027 36.9764C26.8912 36.9764 28.3419 36.5008 29.563 35.6595L34.9241 44.8499L40.2852 35.6595C41.5063 36.5008 42.957 36.9764 44.4455 36.9764C46.4303 36.9764 48.309 36.1933 49.7358 34.7711C51.1649 33.3467 51.9519 31.4687 51.9519 29.4831C51.9519 27.5272 51.1682 25.695 49.8346 24.3325C50.8976 23.4511 51.966 22.5607 52.9791 21.6225C54.4657 24.4937 55.2446 27.6855 55.2446 30.9556V41.3448ZM25.7195 17.1901C26.909 16.3921 28.1832 15.7583 29.5169 15.2981C31.3623 16.7216 33.1591 18.3857 34.9241 20.3053C36.689 18.3857 38.4859 16.7215 40.3313 15.2981C41.665 15.7583 42.9391 16.3921 44.1286 17.1901C41.4571 19.0126 38.8873 21.3876 36.3582 24.3652L34.9241 26.0536L33.49 24.3652C30.9609 21.3876 28.391 19.0126 25.7195 17.1901Z" fill="#F7F7F7"/>
<path d="M53.1027 4.38958L53.0399 4.38957L53.0567 4.44915C54.3146 8.95182 55.019 12.1298 55.4089 14.1817C55.6039 15.2076 55.7202 15.952 55.7877 16.4397C55.8215 16.6836 55.8431 16.8632 55.8563 16.9818C55.8627 17.0407 55.8671 17.0844 55.87 17.1136L34.3823 20.2356L14.0597 17.1098L16.8709 4.44229L16.8836 4.38517L16.8244 4.38516L4 4.3836L4.00057 0L68.1562 0.00781333L68.1558 4.39141L53.1027 4.38958ZM69 29.6972L62.6981 29.6964L63.3847 21.0972L63.9988 21.0973H64.0962L64.0365 21.0213C63.7342 20.6367 63.5483 20.1589 63.5484 19.6349C63.5485 18.6061 64.2425 17.7472 65.1889 17.4643L65.2228 17.4542V17.4193L65.2243 5.17097L66.6739 5.17114L66.6724 17.4777V17.5096L66.7023 17.5213C67.5516 17.8575 68.1532 18.6753 68.1531 19.6347C68.153 20.1587 67.9662 20.6355 67.6645 21.021L67.6052 21.0969H67.7023L68.3164 21.097L69 29.6972Z" fill="#F7F7F7"/>
</g>
<defs>
<filter id="filter0_d" x="0" y="0" width="73" height="63.0465" filterUnits="userSpaceOnUse" color-interpolation-filters="sRGB">
<feFlood flood-opacity="0" result="BackgroundImageFix"/>
<feColorMatrix in="SourceAlpha" type="matrix" values="0 0 0 0 0 0 0 0 0 0 0 0 0 0 0 0 0 0 127 0"/>
<feOffset dy="4"/>
<feGaussianBlur stdDeviation="2"/>
<feColorMatrix type="matrix" values="0 0 0 0 0 0 0 0 0 0 0 0 0 0 0 0 0 0 0.25 0"/>
<feBlend mode="normal" in2="BackgroundImageFix" result="effect1_dropShadow"/>
<feBlend mode="normal" in="SourceGraphic" in2="effect1_dropShadow" result="shape"/>
</filter>
</defs>
</svg>
