<svg width="334" height="357" viewBox="0 0 334 357" fill="none" xmlns="http://www.w3.org/2000/svg">
<path d="M88.72 208L80.4 199.2V156.8L88.72 148H111.28L119.6 156.8V199.2L111.28 208H88.72ZM91.84 201.12H108.08L112.24 196.88V159.12L108.16 154.88H91.92L87.76 159.12V196.88L91.84 201.12ZM127.631 154.4V148H144.591V154.4H138.671L150.271 199.2L161.871 154.4H158.431V148H175.711V154.4H172.191L183.791 199.2L195.391 154.4H189.551V148H206.511V154.4H202.751L188.911 208H179.071L167.071 161.68L155.071 208H145.231L131.311 154.4H127.631ZM214.541 148H233.901V154.4H227.501V201.6H244.941V192.32H251.021V208H214.541V201.6H220.141V154.4H214.541V148Z" fill="#005CC9"/>
<path d="M88.72 208L87.2667 209.374L87.8585 210H88.72V208ZM80.4 199.2H78.4V199.996L78.9467 200.574L80.4 199.2ZM80.4 156.8L78.9467 155.426L78.4 156.004V156.8H80.4ZM88.72 148V146H87.8585L87.2667 146.626L88.72 148ZM111.28 148L112.733 146.626L112.141 146H111.28V148ZM119.6 156.8H121.6V156.004L121.053 155.426L119.6 156.8ZM119.6 199.2L121.053 200.574L121.6 199.996V199.2H119.6ZM111.28 208V210H112.141L112.733 209.374L111.28 208ZM91.84 201.12L90.3989 202.507L90.989 203.12H91.84V201.12ZM108.08 201.12V203.12H108.92L109.508 202.521L108.08 201.12ZM112.24 196.88L113.668 198.281L114.24 197.697V196.88H112.24ZM112.24 159.12H114.24V158.314L113.681 157.733L112.24 159.12ZM108.16 154.88L109.601 153.493L109.011 152.88H108.16V154.88ZM91.92 154.88V152.88H91.0804L90.4924 153.479L91.92 154.88ZM87.76 159.12L86.3324 157.719L85.76 158.303V159.12H87.76ZM87.76 196.88H85.76V197.686L86.3189 198.267L87.76 196.88ZM90.1733 206.626L81.8533 197.826L78.9467 200.574L87.2667 209.374L90.1733 206.626ZM82.4 199.2V156.8H78.4V199.2H82.4ZM81.8533 158.174L90.1733 149.374L87.2667 146.626L78.9467 155.426L81.8533 158.174ZM88.72 150H111.28V146H88.72V150ZM109.827 149.374L118.147 158.174L121.053 155.426L112.733 146.626L109.827 149.374ZM117.6 156.8V199.2H121.6V156.8H117.6ZM118.147 197.826L109.827 206.626L112.733 209.374L121.053 200.574L118.147 197.826ZM111.28 206H88.72V210H111.28V206ZM91.84 203.12H108.08V199.12H91.84V203.12ZM109.508 202.521L113.668 198.281L110.812 195.479L106.652 199.719L109.508 202.521ZM114.24 196.88V159.12H110.24V196.88H114.24ZM113.681 157.733L109.601 153.493L106.719 156.267L110.799 160.507L113.681 157.733ZM108.16 152.88H91.92V156.88H108.16V152.88ZM90.4924 153.479L86.3324 157.719L89.1876 160.521L93.3476 156.281L90.4924 153.479ZM85.76 159.12V196.88H89.76V159.12H85.76ZM86.3189 198.267L90.3989 202.507L93.2811 199.733L89.2011 195.493L86.3189 198.267ZM127.631 154.4H125.631V156.4H127.631V154.4ZM127.631 148V146H125.631V148H127.631ZM144.591 148H146.591V146H144.591V148ZM144.591 154.4V156.4H146.591V154.4H144.591ZM138.671 154.4V152.4H136.087L136.735 154.901L138.671 154.4ZM150.271 199.2L148.335 199.701L150.271 207.179L152.207 199.701L150.271 199.2ZM161.871 154.4L163.807 154.901L164.455 152.4H161.871V154.4ZM158.431 154.4H156.431V156.4H158.431V154.4ZM158.431 148V146H156.431V148H158.431ZM175.711 148H177.711V146H175.711V148ZM175.711 154.4V156.4H177.711V154.4H175.711ZM172.191 154.4V152.4H169.607L170.255 154.901L172.191 154.4ZM183.791 199.2L181.855 199.701L183.791 207.179L185.727 199.701L183.791 199.2ZM195.391 154.4L197.327 154.901L197.975 152.4H195.391V154.4ZM189.551 154.4H187.551V156.4H189.551V154.4ZM189.551 148V146H187.551V148H189.551ZM206.511 148H208.511V146H206.511V148ZM206.511 154.4V156.4H208.511V154.4H206.511ZM202.751 154.4V152.4H201.202L200.815 153.9L202.751 154.4ZM188.911 208V210H190.46L190.848 208.5L188.911 208ZM179.071 208L177.135 208.502L177.523 210H179.071V208ZM167.071 161.68L169.007 161.178L167.071 153.705L165.135 161.178L167.071 161.68ZM155.071 208V210H156.619L157.007 208.502L155.071 208ZM145.231 208L143.295 208.503L143.684 210H145.231V208ZM131.311 154.4L133.247 153.897L132.858 152.4H131.311V154.4ZM129.631 154.4V148H125.631V154.4H129.631ZM127.631 150H144.591V146H127.631V150ZM142.591 148V154.4H146.591V148H142.591ZM144.591 152.4H138.671V156.4H144.591V152.4ZM136.735 154.901L148.335 199.701L152.207 198.699L140.607 153.899L136.735 154.901ZM152.207 199.701L163.807 154.901L159.935 153.899L148.335 198.699L152.207 199.701ZM161.871 152.4H158.431V156.4H161.871V152.4ZM160.431 154.4V148H156.431V154.4H160.431ZM158.431 150H175.711V146H158.431V150ZM173.711 148V154.4H177.711V148H173.711ZM175.711 152.4H172.191V156.4H175.711V152.4ZM170.255 154.901L181.855 199.701L185.727 198.699L174.127 153.899L170.255 154.901ZM185.727 199.701L197.327 154.901L193.455 153.899L181.855 198.699L185.727 199.701ZM195.391 152.4H189.551V156.4H195.391V152.4ZM191.551 154.4V148H187.551V154.4H191.551ZM189.551 150H206.511V146H189.551V150ZM204.511 148V154.4H208.511V148H204.511ZM206.511 152.4H202.751V156.4H206.511V152.4ZM200.815 153.9L186.975 207.5L190.848 208.5L204.688 154.9L200.815 153.9ZM188.911 206H179.071V210H188.911V206ZM181.007 207.498L169.007 161.178L165.135 162.182L177.135 208.502L181.007 207.498ZM165.135 161.178L153.135 207.498L157.007 208.502L169.007 162.182L165.135 161.178ZM155.071 206H145.231V210H155.071V206ZM147.167 207.497L133.247 153.897L129.375 154.903L143.295 208.503L147.167 207.497ZM131.311 152.4H127.631V156.4H131.311V152.4ZM214.541 148V146H212.541V148H214.541ZM233.901 148H235.901V146H233.901V148ZM233.901 154.4V156.4H235.901V154.4H233.901ZM227.501 154.4V152.4H225.501V154.4H227.501ZM227.501 201.6H225.501V203.6H227.501V201.6ZM244.941 201.6V203.6H246.941V201.6H244.941ZM244.941 192.32V190.32H242.941V192.32H244.941ZM251.021 192.32H253.021V190.32H251.021V192.32ZM251.021 208V210H253.021V208H251.021ZM214.541 208H212.541V210H214.541V208ZM214.541 201.6V199.6H212.541V201.6H214.541ZM220.141 201.6V203.6H222.141V201.6H220.141ZM220.141 154.4H222.141V152.4H220.141V154.4ZM214.541 154.4H212.541V156.4H214.541V154.4ZM214.541 150H233.901V146H214.541V150ZM231.901 148V154.4H235.901V148H231.901ZM233.901 152.4H227.501V156.4H233.901V152.4ZM225.501 154.4V201.6H229.501V154.4H225.501ZM227.501 203.6H244.941V199.6H227.501V203.6ZM246.941 201.6V192.32H242.941V201.6H246.941ZM244.941 194.32H251.021V190.32H244.941V194.32ZM249.021 192.32V208H253.021V192.32H249.021ZM251.021 206H214.541V210H251.021V206ZM216.541 208V201.6H212.541V208H216.541ZM214.541 203.6H220.141V199.6H214.541V203.6ZM222.141 201.6V154.4H218.141V201.6H222.141ZM220.141 152.4H214.541V156.4H220.141V152.4ZM216.541 154.4V148H212.541V154.4H216.541Z" fill="white"/>
<path d="M55.75 226.5H69.1V230.5H66.8L75.6 260H78.1V264H67.5V260H71L68.7 252.3H56.15L53.85 260H57.35V264H46.75V260H49.25L58.05 230.5H55.75V226.5ZM62.4 231.25L57.35 248.3H67.5L62.4 231.25ZM101.861 252.2H105.861V258.5L100.661 264H88.0613L82.8613 258.5V237L88.0613 231.5H100.661L105.861 237V243.3H101.861V239.05L98.7113 235.8H90.0613L87.4613 238.45V257.05L90.0113 259.7H98.6613L101.861 256.45V252.2ZM130.342 264V260H133.642L131.492 253.8H118.992L116.842 260H120.192V264H109.592V260H112.242L120.692 235.5H118.592V231.5H131.942V235.5H129.792L138.242 260H140.942V264H130.342ZM125.242 235.65L120.342 249.8H130.142L125.242 235.65ZM145.703 231.5H167.003L172.203 237V258.5L167.003 264H145.703V260H149.203V235.5H145.703V231.5ZM153.803 259.7H165.003L167.603 257.05V238.45L165.053 235.8H153.803V259.7ZM180.225 231.5H204.025V241.3H200.025V235.5H188.325V245.75H200.025V249.75H188.325V260H200.025V254.2H204.025V264H180.225V260H183.725V235.5H180.225V231.5ZM220.112 260H223.612V264H212.012V260H215.512V235.5H212.012V231.5H222.212L231.662 255.15L241.112 231.5H251.312V235.5H247.812V260H251.312V264H239.712V260H243.212V237.15L233.862 260H229.462L220.112 237.15V260ZM277.326 264H263.726V260H268.226V252.3L258.826 230.5H256.326V226.5H266.926V230.5H263.226L270.476 247.35L277.726 230.5H274.076V226.5H284.676V230.5H282.126L272.826 252.15V260H277.326V264Z" fill="#005CC9"/>
<path d="M55.75 226.5V224.5H53.75V226.5H55.75ZM69.1 226.5H71.1V224.5H69.1V226.5ZM69.1 230.5V232.5H71.1V230.5H69.1ZM66.8 230.5V228.5H64.1163L64.8835 231.072L66.8 230.5ZM75.6 260L73.6835 260.572L74.1095 262H75.6V260ZM78.1 260H80.1V258H78.1V260ZM78.1 264V266H80.1V264H78.1ZM67.5 264H65.5V266H67.5V264ZM67.5 260V258H65.5V260H67.5ZM71 260V262H73.6847L72.9163 259.428L71 260ZM68.7 252.3L70.6163 251.728L70.1899 250.3H68.7V252.3ZM56.15 252.3V250.3H54.6601L54.2337 251.728L56.15 252.3ZM53.85 260L51.9337 259.428L51.1653 262H53.85V260ZM57.35 260H59.35V258H57.35V260ZM57.35 264V266H59.35V264H57.35ZM46.75 264H44.75V266H46.75V264ZM46.75 260V258H44.75V260H46.75ZM49.25 260V262H50.7405L51.1665 260.572L49.25 260ZM58.05 230.5L59.9665 231.072L60.7337 228.5H58.05V230.5ZM55.75 230.5H53.75V232.5H55.75V230.5ZM62.4 231.25L64.3161 230.677L62.3906 224.239L60.4823 230.682L62.4 231.25ZM57.35 248.3L55.4323 247.732L54.6717 250.3H57.35V248.3ZM67.5 248.3V250.3H70.1858L69.4161 247.727L67.5 248.3ZM55.75 228.5H69.1V224.5H55.75V228.5ZM67.1 226.5V230.5H71.1V226.5H67.1ZM69.1 228.5H66.8V232.5H69.1V228.5ZM64.8835 231.072L73.6835 260.572L77.5165 259.428L68.7165 229.928L64.8835 231.072ZM75.6 262H78.1V258H75.6V262ZM76.1 260V264H80.1V260H76.1ZM78.1 262H67.5V266H78.1V262ZM69.5 264V260H65.5V264H69.5ZM67.5 262H71V258H67.5V262ZM72.9163 259.428L70.6163 251.728L66.7837 252.872L69.0837 260.572L72.9163 259.428ZM68.7 250.3H56.15V254.3H68.7V250.3ZM54.2337 251.728L51.9337 259.428L55.7663 260.572L58.0663 252.872L54.2337 251.728ZM53.85 262H57.35V258H53.85V262ZM55.35 260V264H59.35V260H55.35ZM57.35 262H46.75V266H57.35V262ZM48.75 264V260H44.75V264H48.75ZM46.75 262H49.25V258H46.75V262ZM51.1665 260.572L59.9665 231.072L56.1335 229.928L47.3335 259.428L51.1665 260.572ZM58.05 228.5H55.75V232.5H58.05V228.5ZM57.75 230.5V226.5H53.75V230.5H57.75ZM60.4823 230.682L55.4323 247.732L59.2677 248.868L64.3177 231.818L60.4823 230.682ZM57.35 250.3H67.5V246.3H57.35V250.3ZM69.4161 247.727L64.3161 230.677L60.4839 231.823L65.5839 248.873L69.4161 247.727ZM101.861 252.2V250.2H99.8613V252.2H101.861ZM105.861 252.2H107.861V250.2H105.861V252.2ZM105.861 258.5L107.315 259.874L107.861 259.296V258.5H105.861ZM100.661 264V266H101.523L102.115 265.374L100.661 264ZM88.0613 264L86.608 265.374L87.1999 266H88.0613V264ZM82.8613 258.5H80.8613V259.296L81.408 259.874L82.8613 258.5ZM82.8613 237L81.408 235.626L80.8613 236.204V237H82.8613ZM88.0613 231.5V229.5H87.1999L86.608 230.126L88.0613 231.5ZM100.661 231.5L102.115 230.126L101.523 229.5H100.661V231.5ZM105.861 237H107.861V236.204L107.315 235.626L105.861 237ZM105.861 243.3V245.3H107.861V243.3H105.861ZM101.861 243.3H99.8613V245.3H101.861V243.3ZM101.861 239.05H103.861V238.24L103.297 237.658L101.861 239.05ZM98.7113 235.8L100.147 234.408L99.5581 233.8H98.7113V235.8ZM90.0613 235.8V233.8H89.2217L88.6337 234.399L90.0613 235.8ZM87.4613 238.45L86.0337 237.049L85.4613 237.633V238.45H87.4613ZM87.4613 257.05H85.4613V257.856L86.0202 258.437L87.4613 257.05ZM90.0113 259.7L88.5702 261.087L89.1603 261.7H90.0113V259.7ZM98.6613 259.7V261.7H99.4989L100.086 261.103L98.6613 259.7ZM101.861 256.45L103.286 257.853L103.861 257.269V256.45H101.861ZM101.861 254.2H105.861V250.2H101.861V254.2ZM103.861 252.2V258.5H107.861V252.2H103.861ZM104.408 257.126L99.208 262.626L102.115 265.374L107.315 259.874L104.408 257.126ZM100.661 262H88.0613V266H100.661V262ZM89.5146 262.626L84.3146 257.126L81.408 259.874L86.608 265.374L89.5146 262.626ZM84.8613 258.5V237H80.8613V258.5H84.8613ZM84.3146 238.374L89.5146 232.874L86.608 230.126L81.408 235.626L84.3146 238.374ZM88.0613 233.5H100.661V229.5H88.0613V233.5ZM99.208 232.874L104.408 238.374L107.315 235.626L102.115 230.126L99.208 232.874ZM103.861 237V243.3H107.861V237H103.861ZM105.861 241.3H101.861V245.3H105.861V241.3ZM103.861 243.3V239.05H99.8613V243.3H103.861ZM103.297 237.658L100.147 234.408L97.2752 237.192L100.425 240.442L103.297 237.658ZM98.7113 233.8H90.0613V237.8H98.7113V233.8ZM88.6337 234.399L86.0337 237.049L88.8889 239.851L91.4889 237.201L88.6337 234.399ZM85.4613 238.45V257.05H89.4613V238.45H85.4613ZM86.0202 258.437L88.5702 261.087L91.4525 258.313L88.9025 255.663L86.0202 258.437ZM90.0113 261.7H98.6613V257.7H90.0113V261.7ZM100.086 261.103L103.286 257.853L100.436 255.047L97.2362 258.297L100.086 261.103ZM103.861 256.45V252.2H99.8613V256.45H103.861ZM130.342 264H128.342V266H130.342V264ZM130.342 260V258H128.342V260H130.342ZM133.642 260V262H136.452L135.531 259.345L133.642 260ZM131.492 253.8L133.381 253.145L132.915 251.8H131.492V253.8ZM118.992 253.8V251.8H117.569L117.102 253.145L118.992 253.8ZM116.842 260L114.952 259.345L114.031 262H116.842V260ZM120.192 260H122.192V258H120.192V260ZM120.192 264V266H122.192V264H120.192ZM109.592 264H107.592V266H109.592V264ZM109.592 260V258H107.592V260H109.592ZM112.242 260V262H113.668L114.132 260.652L112.242 260ZM120.692 235.5L122.583 236.152L123.497 233.5H120.692V235.5ZM118.592 235.5H116.592V237.5H118.592V235.5ZM118.592 231.5V229.5H116.592V231.5H118.592ZM131.942 231.5H133.942V229.5H131.942V231.5ZM131.942 235.5V237.5H133.942V235.5H131.942ZM129.792 235.5V233.5H126.986L127.901 236.152L129.792 235.5ZM138.242 260L136.351 260.652L136.816 262H138.242V260ZM140.942 260H142.942V258H140.942V260ZM140.942 264V266H142.942V264H140.942ZM125.242 235.65L127.132 234.996L125.242 229.538L123.352 234.996L125.242 235.65ZM120.342 249.8L118.452 249.146L117.533 251.8H120.342V249.8ZM130.142 249.8V251.8H132.951L132.032 249.146L130.142 249.8ZM132.342 264V260H128.342V264H132.342ZM130.342 262H133.642V258H130.342V262ZM135.531 259.345L133.381 253.145L129.602 254.455L131.752 260.655L135.531 259.345ZM131.492 251.8H118.992V255.8H131.492V251.8ZM117.102 253.145L114.952 259.345L118.731 260.655L120.881 254.455L117.102 253.145ZM116.842 262H120.192V258H116.842V262ZM118.192 260V264H122.192V260H118.192ZM120.192 262H109.592V266H120.192V262ZM111.592 264V260H107.592V264H111.592ZM109.592 262H112.242V258H109.592V262ZM114.132 260.652L122.583 236.152L118.801 234.848L110.351 259.348L114.132 260.652ZM120.692 233.5H118.592V237.5H120.692V233.5ZM120.592 235.5V231.5H116.592V235.5H120.592ZM118.592 233.5H131.942V229.5H118.592V233.5ZM129.942 231.5V235.5H133.942V231.5H129.942ZM131.942 233.5H129.792V237.5H131.942V233.5ZM127.901 236.152L136.351 260.652L140.132 259.348L131.683 234.848L127.901 236.152ZM138.242 262H140.942V258H138.242V262ZM138.942 260V264H142.942V260H138.942ZM140.942 262H130.342V266H140.942V262ZM123.352 234.996L118.452 249.146L122.232 250.454L127.132 236.304L123.352 234.996ZM120.342 251.8H130.142V247.8H120.342V251.8ZM132.032 249.146L127.132 234.996L123.352 236.304L128.252 250.454L132.032 249.146ZM145.703 231.5V229.5H143.703V231.5H145.703ZM167.003 231.5L168.456 230.126L167.865 229.5H167.003V231.5ZM172.203 237H174.203V236.204L173.656 235.626L172.203 237ZM172.203 258.5L173.656 259.874L174.203 259.296V258.5H172.203ZM167.003 264V266H167.865L168.456 265.374L167.003 264ZM145.703 264H143.703V266H145.703V264ZM145.703 260V258H143.703V260H145.703ZM149.203 260V262H151.203V260H149.203ZM149.203 235.5H151.203V233.5H149.203V235.5ZM145.703 235.5H143.703V237.5H145.703V235.5ZM153.803 259.7H151.803V261.7H153.803V259.7ZM165.003 259.7V261.7H165.843L166.431 261.101L165.003 259.7ZM167.603 257.05L169.031 258.451L169.603 257.867V257.05H167.603ZM167.603 238.45H169.603V237.644L169.044 237.063L167.603 238.45ZM165.053 235.8L166.494 234.413L165.904 233.8H165.053V235.8ZM153.803 235.8V233.8H151.803V235.8H153.803ZM145.703 233.5H167.003V229.5H145.703V233.5ZM165.55 232.874L170.75 238.374L173.656 235.626L168.456 230.126L165.55 232.874ZM170.203 237V258.5H174.203V237H170.203ZM170.75 257.126L165.55 262.626L168.456 265.374L173.656 259.874L170.75 257.126ZM167.003 262H145.703V266H167.003V262ZM147.703 264V260H143.703V264H147.703ZM145.703 262H149.203V258H145.703V262ZM151.203 260V235.5H147.203V260H151.203ZM149.203 233.5H145.703V237.5H149.203V233.5ZM147.703 235.5V231.5H143.703V235.5H147.703ZM153.803 261.7H165.003V257.7H153.803V261.7ZM166.431 261.101L169.031 258.451L166.176 255.649L163.576 258.299L166.431 261.101ZM169.603 257.05V238.45H165.603V257.05H169.603ZM169.044 237.063L166.494 234.413L163.612 237.187L166.162 239.837L169.044 237.063ZM165.053 233.8H153.803V237.8H165.053V233.8ZM151.803 235.8V259.7H155.803V235.8H151.803ZM180.225 231.5V229.5H178.225V231.5H180.225ZM204.025 231.5H206.025V229.5H204.025V231.5ZM204.025 241.3V243.3H206.025V241.3H204.025ZM200.025 241.3H198.025V243.3H200.025V241.3ZM200.025 235.5H202.025V233.5H200.025V235.5ZM188.325 235.5V233.5H186.325V235.5H188.325ZM188.325 245.75H186.325V247.75H188.325V245.75ZM200.025 245.75H202.025V243.75H200.025V245.75ZM200.025 249.75V251.75H202.025V249.75H200.025ZM188.325 249.75V247.75H186.325V249.75H188.325ZM188.325 260H186.325V262H188.325V260ZM200.025 260V262H202.025V260H200.025ZM200.025 254.2V252.2H198.025V254.2H200.025ZM204.025 254.2H206.025V252.2H204.025V254.2ZM204.025 264V266H206.025V264H204.025ZM180.225 264H178.225V266H180.225V264ZM180.225 260V258H178.225V260H180.225ZM183.725 260V262H185.725V260H183.725ZM183.725 235.5H185.725V233.5H183.725V235.5ZM180.225 235.5H178.225V237.5H180.225V235.5ZM180.225 233.5H204.025V229.5H180.225V233.5ZM202.025 231.5V241.3H206.025V231.5H202.025ZM204.025 239.3H200.025V243.3H204.025V239.3ZM202.025 241.3V235.5H198.025V241.3H202.025ZM200.025 233.5H188.325V237.5H200.025V233.5ZM186.325 235.5V245.75H190.325V235.5H186.325ZM188.325 247.75H200.025V243.75H188.325V247.75ZM198.025 245.75V249.75H202.025V245.75H198.025ZM200.025 247.75H188.325V251.75H200.025V247.75ZM186.325 249.75V260H190.325V249.75H186.325ZM188.325 262H200.025V258H188.325V262ZM202.025 260V254.2H198.025V260H202.025ZM200.025 256.2H204.025V252.2H200.025V256.2ZM202.025 254.2V264H206.025V254.2H202.025ZM204.025 262H180.225V266H204.025V262ZM182.225 264V260H178.225V264H182.225ZM180.225 262H183.725V258H180.225V262ZM185.725 260V235.5H181.725V260H185.725ZM183.725 233.5H180.225V237.5H183.725V233.5ZM182.225 235.5V231.5H178.225V235.5H182.225ZM220.112 260H218.112V262H220.112V260ZM223.612 260H225.612V258H223.612V260ZM223.612 264V266H225.612V264H223.612ZM212.012 264H210.012V266H212.012V264ZM212.012 260V258H210.012V260H212.012ZM215.512 260V262H217.512V260H215.512ZM215.512 235.5H217.512V233.5H215.512V235.5ZM212.012 235.5H210.012V237.5H212.012V235.5ZM212.012 231.5V229.5H210.012V231.5H212.012ZM222.212 231.5L224.069 230.758L223.566 229.5H222.212V231.5ZM231.662 255.15L229.804 255.892L231.662 260.54L233.519 255.892L231.662 255.15ZM241.112 231.5V229.5H239.757L239.255 230.758L241.112 231.5ZM251.312 231.5H253.312V229.5H251.312V231.5ZM251.312 235.5V237.5H253.312V235.5H251.312ZM247.812 235.5V233.5H245.812V235.5H247.812ZM247.812 260H245.812V262H247.812V260ZM251.312 260H253.312V258H251.312V260ZM251.312 264V266H253.312V264H251.312ZM239.712 264H237.712V266H239.712V264ZM239.712 260V258H237.712V260H239.712ZM243.212 260V262H245.212V260H243.212ZM243.212 237.15H245.212L241.361 236.393L243.212 237.15ZM233.862 260V262H235.204L235.713 260.757L233.862 260ZM229.462 260L227.611 260.757L228.119 262H229.462V260ZM220.112 237.15L221.963 236.393L218.112 237.15H220.112ZM220.112 262H223.612V258H220.112V262ZM221.612 260V264H225.612V260H221.612ZM223.612 262H212.012V266H223.612V262ZM214.012 264V260H210.012V264H214.012ZM212.012 262H215.512V258H212.012V262ZM217.512 260V235.5H213.512V260H217.512ZM215.512 233.5H212.012V237.5H215.512V233.5ZM214.012 235.5V231.5H210.012V235.5H214.012ZM212.012 233.5H222.212V229.5H212.012V233.5ZM220.354 232.242L229.804 255.892L233.519 254.408L224.069 230.758L220.354 232.242ZM233.519 255.892L242.969 232.242L239.255 230.758L229.804 254.408L233.519 255.892ZM241.112 233.5H251.312V229.5H241.112V233.5ZM249.312 231.5V235.5H253.312V231.5H249.312ZM251.312 233.5H247.812V237.5H251.312V233.5ZM245.812 235.5V260H249.812V235.5H245.812ZM247.812 262H251.312V258H247.812V262ZM249.312 260V264H253.312V260H249.312ZM251.312 262H239.712V266H251.312V262ZM241.712 264V260H237.712V264H241.712ZM239.712 262H243.212V258H239.712V262ZM245.212 260V237.15H241.212V260H245.212ZM241.361 236.393L232.011 259.243L235.713 260.757L245.063 237.907L241.361 236.393ZM233.862 258H229.462V262H233.862V258ZM231.313 259.243L221.963 236.393L218.261 237.907L227.611 260.757L231.313 259.243ZM218.112 237.15V260H222.112V237.15H218.112ZM277.326 264V266H279.326V264H277.326ZM263.726 264H261.726V266H263.726V264ZM263.726 260V258H261.726V260H263.726ZM268.226 260V262H270.226V260H268.226ZM268.226 252.3H270.226V251.887L270.063 251.508L268.226 252.3ZM258.826 230.5L260.663 229.708L260.142 228.5H258.826V230.5ZM256.326 230.5H254.326V232.5H256.326V230.5ZM256.326 226.5V224.5H254.326V226.5H256.326ZM266.926 226.5H268.926V224.5H266.926V226.5ZM266.926 230.5V232.5H268.926V230.5H266.926ZM263.226 230.5V228.5H260.188L261.389 231.29L263.226 230.5ZM270.476 247.35L268.639 248.14L270.476 252.41L272.313 248.14L270.476 247.35ZM277.726 230.5L279.563 231.29L280.764 228.5H277.726V230.5ZM274.076 230.5H272.076V232.5H274.076V230.5ZM274.076 226.5V224.5H272.076V226.5H274.076ZM284.676 226.5H286.676V224.5H284.676V226.5ZM284.676 230.5V232.5H286.676V230.5H284.676ZM282.126 230.5V228.5H280.809L280.289 229.711L282.126 230.5ZM272.826 252.15L270.989 251.361L270.826 251.739V252.15H272.826ZM272.826 260H270.826V262H272.826V260ZM277.326 260H279.326V258H277.326V260ZM277.326 262H263.726V266H277.326V262ZM265.726 264V260H261.726V264H265.726ZM263.726 262H268.226V258H263.726V262ZM270.226 260V252.3H266.226V260H270.226ZM270.063 251.508L260.663 229.708L256.99 231.292L266.39 253.092L270.063 251.508ZM258.826 228.5H256.326V232.5H258.826V228.5ZM258.326 230.5V226.5H254.326V230.5H258.326ZM256.326 228.5H266.926V224.5H256.326V228.5ZM264.926 226.5V230.5H268.926V226.5H264.926ZM266.926 228.5H263.226V232.5H266.926V228.5ZM261.389 231.29L268.639 248.14L272.313 246.56L265.063 229.71L261.389 231.29ZM272.313 248.14L279.563 231.29L275.889 229.71L268.639 246.56L272.313 248.14ZM277.726 228.5H274.076V232.5H277.726V228.5ZM276.076 230.5V226.5H272.076V230.5H276.076ZM274.076 228.5H284.676V224.5H274.076V228.5ZM282.676 226.5V230.5H286.676V226.5H282.676ZM284.676 228.5H282.126V232.5H284.676V228.5ZM280.289 229.711L270.989 251.361L274.664 252.939L283.964 231.289L280.289 229.711ZM270.826 252.15V260H274.826V252.15H270.826ZM272.826 262H277.326V258H272.826V262ZM275.326 260V264H279.326V260H275.326Z" fill="white"/>
<path d="M50.8672 296.71C50.6072 296.41 50.1772 296.1 49.5772 295.78C48.9972 295.44 48.3172 295.15 47.5372 294.91C46.7572 294.67 45.9472 294.55 45.1072 294.55C43.6872 294.55 42.6372 294.81 41.9572 295.33C41.2972 295.85 40.9672 296.57 40.9672 297.49C40.9672 298.17 41.1572 298.71 41.5372 299.11C41.9172 299.49 42.4972 299.82 43.2772 300.1C44.0572 300.36 45.0372 300.63 46.2172 300.91C47.6572 301.25 48.8972 301.66 49.9372 302.14C50.9972 302.6 51.8072 303.22 52.3672 304C52.9472 304.78 53.2372 305.81 53.2372 307.09C53.2372 308.55 52.8872 309.73 52.1872 310.63C51.4872 311.53 50.5372 312.19 49.3372 312.61C48.1572 313.01 46.8572 313.21 45.4372 313.21C43.8172 313.21 42.2472 312.96 40.7272 312.46C39.2072 311.96 37.8472 311.25 36.6472 310.33L38.1772 307.45C38.5172 307.79 39.0572 308.18 39.7972 308.62C40.5372 309.04 41.3972 309.41 42.3772 309.73C43.3772 310.03 44.4172 310.18 45.4972 310.18C46.8172 310.18 47.8372 309.95 48.5572 309.49C49.2772 309.01 49.6372 308.33 49.6372 307.45C49.6372 306.73 49.3972 306.16 48.9172 305.74C48.4572 305.3 47.7872 304.94 46.9072 304.66C46.0472 304.36 45.0072 304.05 43.7872 303.73C42.3872 303.37 41.2172 302.96 40.2772 302.5C39.3372 302.04 38.6272 301.46 38.1472 300.76C37.6872 300.06 37.4572 299.15 37.4572 298.03C37.4572 296.63 37.7972 295.45 38.4772 294.49C39.1572 293.51 40.0772 292.78 41.2372 292.3C42.4172 291.8 43.7372 291.55 45.1972 291.55C46.6372 291.55 47.9672 291.78 49.1872 292.24C50.4072 292.7 51.4772 293.27 52.3972 293.95L50.8672 296.71ZM56.0077 306.91V297.31H59.3077V306.25C59.3077 309.07 60.3077 310.48 62.3077 310.48C63.2477 310.48 64.1377 310.19 64.9777 309.61C65.8177 309.01 66.4677 308.17 66.9277 307.09V297.31H70.2277V309.28C70.2277 309.66 70.2977 309.93 70.4377 310.09C70.5777 310.25 70.8077 310.34 71.1277 310.36V313C70.7877 313.06 70.5077 313.1 70.2877 313.12C70.0677 313.14 69.8577 313.15 69.6577 313.15C69.0577 313.15 68.5577 312.99 68.1577 312.67C67.7577 312.35 67.5277 311.92 67.4677 311.38L67.4077 309.82C66.7077 310.96 65.7977 311.83 64.6777 312.43C63.5577 313.01 62.3277 313.3 60.9877 313.3C59.3477 313.3 58.1077 312.76 57.2677 311.68C56.4277 310.6 56.0077 309.01 56.0077 306.91ZM73.299 308.41C73.299 307.41 73.579 306.54 74.139 305.8C74.699 305.04 75.479 304.46 76.479 304.06C77.499 303.64 78.669 303.43 79.989 303.43C80.689 303.43 81.399 303.49 82.119 303.61C82.859 303.71 83.509 303.86 84.069 304.06V303.07C84.069 301.97 83.739 301.11 83.079 300.49C82.419 299.87 81.469 299.56 80.229 299.56C79.369 299.56 78.539 299.71 77.739 300.01C76.939 300.31 76.109 300.75 75.249 301.33L74.139 299.11C75.179 298.43 76.219 297.92 77.259 297.58C78.319 297.22 79.429 297.04 80.589 297.04C82.689 297.04 84.339 297.6 85.539 298.72C86.759 299.82 87.369 301.39 87.369 303.43V309.28C87.369 309.66 87.429 309.93 87.549 310.09C87.689 310.25 87.919 310.34 88.239 310.36V313C87.939 313.06 87.669 313.1 87.429 313.12C87.189 313.14 86.989 313.15 86.829 313.15C86.109 313.15 85.569 312.98 85.209 312.64C84.869 312.28 84.669 311.88 84.609 311.44L84.519 310.54C83.839 311.42 82.969 312.1 81.909 312.58C80.849 313.06 79.779 313.3 78.699 313.3C77.659 313.3 76.729 313.09 75.909 312.67C75.089 312.23 74.449 311.64 73.989 310.9C73.529 310.16 73.299 309.33 73.299 308.41ZM83.289 309.37C83.809 308.85 84.069 308.36 84.069 307.9V306.1C82.889 305.66 81.689 305.44 80.469 305.44C79.269 305.44 78.289 305.69 77.529 306.19C76.789 306.67 76.419 307.32 76.419 308.14C76.419 308.82 76.689 309.45 77.229 310.03C77.789 310.59 78.589 310.87 79.629 310.87C80.329 310.87 81.009 310.73 81.669 310.45C82.329 310.17 82.869 309.81 83.289 309.37ZM107.695 313.3C106.435 313.3 105.325 313 104.365 312.4C103.405 311.8 102.645 311.02 102.085 310.06V319.39H98.7847V297.31H101.695V300.13C102.295 299.19 103.075 298.44 104.035 297.88C104.995 297.32 106.065 297.04 107.245 297.04C108.685 297.04 109.955 297.42 111.055 298.18C112.175 298.92 113.055 299.91 113.695 301.15C114.335 302.37 114.655 303.7 114.655 305.14C114.655 306.66 114.355 308.04 113.755 309.28C113.155 310.5 112.335 311.48 111.295 312.22C110.255 312.94 109.055 313.3 107.695 313.3ZM106.615 310.48C107.555 310.48 108.365 310.23 109.045 309.73C109.745 309.21 110.285 308.55 110.665 307.75C111.065 306.93 111.265 306.06 111.265 305.14C111.265 304.18 111.045 303.3 110.605 302.5C110.185 301.7 109.605 301.06 108.865 300.58C108.145 300.1 107.315 299.86 106.375 299.86C105.815 299.86 105.225 300 104.605 300.28C104.005 300.56 103.475 300.93 103.015 301.39C102.555 301.85 102.245 302.37 102.085 302.95V307.06C102.485 308.02 103.095 308.83 103.915 309.49C104.755 310.15 105.655 310.48 106.615 310.48ZM117.653 291.1H120.953V308.47C120.953 309.27 121.073 309.78 121.313 310C121.553 310.22 121.853 310.33 122.213 310.33C122.613 310.33 122.993 310.29 123.353 310.21C123.713 310.13 124.013 310.03 124.253 309.91L124.733 312.52C124.253 312.72 123.683 312.89 123.023 313.03C122.363 313.17 121.773 313.24 121.253 313.24C120.133 313.24 119.253 312.93 118.613 312.31C117.973 311.67 117.653 310.79 117.653 309.67V291.1ZM125.506 308.41C125.506 307.41 125.786 306.54 126.346 305.8C126.906 305.04 127.686 304.46 128.686 304.06C129.706 303.64 130.876 303.43 132.196 303.43C132.896 303.43 133.606 303.49 134.326 303.61C135.066 303.71 135.716 303.86 136.276 304.06V303.07C136.276 301.97 135.946 301.11 135.286 300.49C134.626 299.87 133.676 299.56 132.436 299.56C131.576 299.56 130.746 299.71 129.946 300.01C129.146 300.31 128.316 300.75 127.456 301.33L126.346 299.11C127.386 298.43 128.426 297.92 129.466 297.58C130.526 297.22 131.636 297.04 132.796 297.04C134.896 297.04 136.546 297.6 137.746 298.72C138.966 299.82 139.576 301.39 139.576 303.43V309.28C139.576 309.66 139.636 309.93 139.756 310.09C139.896 310.25 140.126 310.34 140.446 310.36V313C140.146 313.06 139.876 313.1 139.636 313.12C139.396 313.14 139.196 313.15 139.036 313.15C138.316 313.15 137.776 312.98 137.416 312.64C137.076 312.28 136.876 311.88 136.816 311.44L136.726 310.54C136.046 311.42 135.176 312.1 134.116 312.58C133.056 313.06 131.986 313.3 130.906 313.3C129.866 313.3 128.936 313.09 128.116 312.67C127.296 312.23 126.656 311.64 126.196 310.9C125.736 310.16 125.506 309.33 125.506 308.41ZM135.496 309.37C136.016 308.85 136.276 308.36 136.276 307.9V306.1C135.096 305.66 133.896 305.44 132.676 305.44C131.476 305.44 130.496 305.69 129.736 306.19C128.996 306.67 128.626 307.32 128.626 308.14C128.626 308.82 128.896 309.45 129.436 310.03C129.996 310.59 130.796 310.87 131.836 310.87C132.536 310.87 133.216 310.73 133.876 310.45C134.536 310.17 135.076 309.81 135.496 309.37ZM152.192 312.19C151.772 312.39 151.192 312.62 150.452 312.88C149.712 313.12 148.922 313.24 148.082 313.24C147.042 313.24 146.142 312.96 145.382 312.4C144.642 311.84 144.272 310.93 144.272 309.67V299.86H142.202V297.31H144.272V292.15H147.572V297.31H150.992V299.86H147.572V308.62C147.612 309.18 147.782 309.59 148.082 309.85C148.402 310.09 148.792 310.21 149.252 310.21C149.712 310.21 150.152 310.13 150.572 309.97C150.992 309.81 151.302 309.68 151.502 309.58L152.192 312.19ZM153.338 308.41C153.338 307.41 153.618 306.54 154.178 305.8C154.738 305.04 155.518 304.46 156.518 304.06C157.538 303.64 158.708 303.43 160.028 303.43C160.728 303.43 161.438 303.49 162.158 303.61C162.898 303.71 163.548 303.86 164.108 304.06V303.07C164.108 301.97 163.778 301.11 163.118 300.49C162.458 299.87 161.508 299.56 160.268 299.56C159.408 299.56 158.578 299.71 157.778 300.01C156.978 300.31 156.148 300.75 155.288 301.33L154.178 299.11C155.218 298.43 156.258 297.92 157.298 297.58C158.358 297.22 159.468 297.04 160.628 297.04C162.728 297.04 164.378 297.6 165.578 298.72C166.798 299.82 167.408 301.39 167.408 303.43V309.28C167.408 309.66 167.468 309.93 167.588 310.09C167.728 310.25 167.958 310.34 168.278 310.36V313C167.978 313.06 167.708 313.1 167.468 313.12C167.228 313.14 167.028 313.15 166.868 313.15C166.148 313.15 165.608 312.98 165.248 312.64C164.908 312.28 164.708 311.88 164.648 311.44L164.558 310.54C163.878 311.42 163.008 312.1 161.948 312.58C160.888 313.06 159.818 313.3 158.738 313.3C157.698 313.3 156.768 313.09 155.948 312.67C155.128 312.23 154.488 311.64 154.028 310.9C153.568 310.16 153.338 309.33 153.338 308.41ZM163.328 309.37C163.848 308.85 164.108 308.36 164.108 307.9V306.1C162.928 305.66 161.728 305.44 160.508 305.44C159.308 305.44 158.328 305.69 157.568 306.19C156.828 306.67 156.458 307.32 156.458 308.14C156.458 308.82 156.728 309.45 157.268 310.03C157.828 310.59 158.628 310.87 159.668 310.87C160.368 310.87 161.048 310.73 161.708 310.45C162.368 310.17 162.908 309.81 163.328 309.37ZM172.224 313V300.25H170.124V297.7H172.224V297.07C172.224 295.15 172.674 293.63 173.574 292.51C174.494 291.37 175.714 290.8 177.234 290.8C178.514 290.8 179.734 291.12 180.894 291.76L180.174 294.22C179.874 294.04 179.514 293.89 179.094 293.77C178.694 293.65 178.304 293.59 177.924 293.59C177.144 293.59 176.544 293.88 176.124 294.46C175.724 295.04 175.524 295.88 175.524 296.98V297.7H179.544V300.25H175.524V313H172.224ZM188.803 313.3C187.163 313.3 185.733 312.93 184.513 312.19C183.313 311.43 182.383 310.44 181.723 309.22C181.063 307.98 180.733 306.63 180.733 305.17C180.733 303.71 181.063 302.37 181.723 301.15C182.403 299.91 183.343 298.92 184.543 298.18C185.763 297.42 187.183 297.04 188.803 297.04C190.423 297.04 191.833 297.42 193.033 298.18C194.253 298.92 195.193 299.91 195.853 301.15C196.533 302.37 196.873 303.71 196.873 305.17C196.873 306.63 196.543 307.98 195.883 309.22C195.223 310.44 194.283 311.43 193.063 312.19C191.863 312.93 190.443 313.3 188.803 313.3ZM184.123 305.2C184.123 306.2 184.333 307.1 184.753 307.9C185.173 308.7 185.733 309.33 186.433 309.79C187.133 310.25 187.923 310.48 188.803 310.48C189.663 310.48 190.443 310.25 191.143 309.79C191.863 309.31 192.433 308.67 192.853 307.87C193.273 307.07 193.483 306.17 193.483 305.17C193.483 304.17 193.273 303.27 192.853 302.47C192.433 301.67 191.863 301.04 191.143 300.58C190.443 300.1 189.663 299.86 188.803 299.86C187.943 299.86 187.153 300.1 186.433 300.58C185.733 301.04 185.173 301.68 184.753 302.5C184.333 303.3 184.123 304.2 184.123 305.2ZM208.62 300.16C207.34 300.2 206.2 300.5 205.2 301.06C204.22 301.6 203.52 302.38 203.1 303.4V313H199.8V297.31H202.86V300.82C203.4 299.74 204.11 298.88 204.99 298.24C205.87 297.58 206.8 297.22 207.78 297.16C207.96 297.16 208.12 297.16 208.26 297.16C208.4 297.16 208.52 297.17 208.62 297.19V300.16ZM235.021 313H231.721V304.21C231.721 302.77 231.481 301.71 231.001 301.03C230.521 300.33 229.821 299.98 228.901 299.98C227.981 299.98 227.121 300.33 226.321 301.03C225.541 301.71 224.991 302.6 224.671 303.7V313H221.371V304.21C221.371 302.73 221.131 301.66 220.651 301C220.171 300.32 219.481 299.98 218.581 299.98C217.661 299.98 216.801 300.32 216.001 301C215.221 301.68 214.661 302.57 214.321 303.67V313H211.021V297.31H214.021V300.46C214.621 299.36 215.431 298.52 216.451 297.94C217.471 297.34 218.631 297.04 219.931 297.04C221.231 297.04 222.251 297.38 222.991 298.06C223.751 298.74 224.221 299.59 224.401 300.61C225.761 298.23 227.731 297.04 230.311 297.04C231.551 297.04 232.511 297.34 233.191 297.94C233.871 298.52 234.341 299.3 234.601 300.28C234.881 301.24 235.021 302.29 235.021 303.43V313ZM237.684 308.41C237.684 307.41 237.964 306.54 238.524 305.8C239.084 305.04 239.864 304.46 240.864 304.06C241.884 303.64 243.054 303.43 244.374 303.43C245.074 303.43 245.784 303.49 246.504 303.61C247.244 303.71 247.894 303.86 248.454 304.06V303.07C248.454 301.97 248.124 301.11 247.464 300.49C246.804 299.87 245.854 299.56 244.614 299.56C243.754 299.56 242.924 299.71 242.124 300.01C241.324 300.31 240.494 300.75 239.634 301.33L238.524 299.11C239.564 298.43 240.604 297.92 241.644 297.58C242.704 297.22 243.814 297.04 244.974 297.04C247.074 297.04 248.724 297.6 249.924 298.72C251.144 299.82 251.754 301.39 251.754 303.43V309.28C251.754 309.66 251.814 309.93 251.934 310.09C252.074 310.25 252.304 310.34 252.624 310.36V313C252.324 313.06 252.054 313.1 251.814 313.12C251.574 313.14 251.374 313.15 251.214 313.15C250.494 313.15 249.954 312.98 249.594 312.64C249.254 312.28 249.054 311.88 248.994 311.44L248.904 310.54C248.224 311.42 247.354 312.1 246.294 312.58C245.234 313.06 244.164 313.3 243.084 313.3C242.044 313.3 241.114 313.09 240.294 312.67C239.474 312.23 238.834 311.64 238.374 310.9C237.914 310.16 237.684 309.33 237.684 308.41ZM247.674 309.37C248.194 308.85 248.454 308.36 248.454 307.9V306.1C247.274 305.66 246.074 305.44 244.854 305.44C243.654 305.44 242.674 305.69 241.914 306.19C241.174 306.67 240.804 307.32 240.804 308.14C240.804 308.82 241.074 309.45 241.614 310.03C242.174 310.59 242.974 310.87 244.014 310.87C244.714 310.87 245.394 310.73 246.054 310.45C246.714 310.17 247.254 309.81 247.674 309.37ZM262.179 305.17C262.179 303.67 262.479 302.31 263.079 301.09C263.699 299.85 264.539 298.87 265.599 298.15C266.659 297.41 267.879 297.04 269.259 297.04C270.459 297.04 271.539 297.35 272.499 297.97C273.479 298.59 274.239 299.36 274.779 300.28V291.1H278.079V309.28C278.079 309.66 278.149 309.93 278.289 310.09C278.429 310.25 278.659 310.34 278.979 310.36V313C278.359 313.1 277.879 313.15 277.539 313.15C276.919 313.15 276.389 312.98 275.949 312.64C275.529 312.28 275.309 311.84 275.289 311.32L275.259 310.15C274.659 311.15 273.849 311.93 272.829 312.49C271.809 313.03 270.749 313.3 269.649 313.3C268.209 313.3 266.919 312.93 265.779 312.19C264.659 311.45 263.779 310.47 263.139 309.25C262.499 308.01 262.179 306.65 262.179 305.17ZM274.779 307.36V303.25C274.539 302.61 274.179 302.04 273.699 301.54C273.219 301.02 272.669 300.61 272.049 300.31C271.449 300.01 270.849 299.86 270.249 299.86C269.309 299.86 268.489 300.12 267.789 300.64C267.109 301.14 266.569 301.8 266.169 302.62C265.789 303.44 265.599 304.31 265.599 305.23C265.599 306.19 265.809 307.07 266.229 307.87C266.669 308.67 267.259 309.31 267.999 309.79C268.739 310.25 269.569 310.48 270.489 310.48C271.049 310.48 271.629 310.35 272.229 310.09C272.849 309.81 273.389 309.44 273.849 308.98C274.309 308.5 274.619 307.96 274.779 307.36ZM289.381 313.3C287.761 313.3 286.341 312.93 285.121 312.19C283.901 311.45 282.951 310.47 282.271 309.25C281.591 308.01 281.251 306.66 281.251 305.2C281.251 303.72 281.591 302.36 282.271 301.12C282.951 299.88 283.901 298.89 285.121 298.15C286.341 297.41 287.771 297.04 289.411 297.04C291.051 297.04 292.471 297.42 293.671 298.18C294.871 298.92 295.791 299.9 296.431 301.12C297.091 302.34 297.421 303.65 297.421 305.05C297.421 305.55 297.391 305.95 297.331 306.25H284.761C284.821 307.17 285.071 307.98 285.511 308.68C285.971 309.36 286.541 309.9 287.221 310.3C287.921 310.68 288.681 310.87 289.501 310.87C290.381 310.87 291.211 310.65 291.991 310.21C292.771 309.77 293.311 309.19 293.611 308.47L296.431 309.28C295.891 310.46 294.991 311.43 293.731 312.19C292.491 312.93 291.041 313.3 289.381 313.3ZM284.671 304.06H294.151C294.071 303.16 293.811 302.37 293.371 301.69C292.931 300.99 292.361 300.45 291.661 300.07C290.981 299.67 290.221 299.47 289.381 299.47C288.561 299.47 287.801 299.67 287.101 300.07C286.421 300.45 285.861 300.99 285.421 301.69C284.981 302.37 284.731 303.16 284.671 304.06ZM66.3082 348.15C64.8882 348.15 63.6382 347.78 62.5582 347.04C61.4982 346.3 60.6582 345.33 60.0382 344.13C59.4382 342.91 59.1382 341.59 59.1382 340.17C59.1382 338.69 59.4482 337.33 60.0682 336.09C60.6882 334.85 61.5382 333.87 62.6182 333.15C63.7182 332.41 64.9882 332.04 66.4282 332.04C67.6882 332.04 68.7882 332.34 69.7282 332.94C70.6882 333.54 71.4782 334.32 72.0982 335.28V332.31H75.0082V347.55C75.0082 349.07 74.6382 350.36 73.8982 351.42C73.1782 352.48 72.1882 353.29 70.9282 353.85C69.6682 354.41 68.2482 354.69 66.6682 354.69C64.9282 354.69 63.4782 354.39 62.3182 353.79C61.1782 353.19 60.2182 352.37 59.4382 351.33L61.2982 349.59C61.8982 350.43 62.6682 351.07 63.6082 351.51C64.5682 351.95 65.5882 352.17 66.6682 352.17C67.5682 352.17 68.3982 352 69.1582 351.66C69.9382 351.34 70.5582 350.84 71.0182 350.16C71.4782 349.48 71.7082 348.61 71.7082 347.55V345.15C71.1482 346.09 70.3782 346.83 69.3982 347.37C68.4182 347.89 67.3882 348.15 66.3082 348.15ZM67.3882 345.48C68.0482 345.48 68.6782 345.34 69.2782 345.06C69.8782 344.76 70.3882 344.37 70.8082 343.89C71.2482 343.41 71.5482 342.9 71.7082 342.36V338.25C71.3082 337.25 70.6782 336.44 69.8182 335.82C68.9782 335.18 68.0882 334.86 67.1482 334.86C66.1882 334.86 65.3582 335.12 64.6582 335.64C63.9782 336.16 63.4482 336.84 63.0682 337.68C62.6882 338.5 62.4982 339.36 62.4982 340.26C62.4982 341.22 62.7082 342.1 63.1282 342.9C63.5682 343.68 64.1582 344.31 64.8982 344.79C65.6382 345.25 66.4682 345.48 67.3882 345.48ZM86.0754 348.3C84.4554 348.3 83.0354 347.93 81.8154 347.19C80.5954 346.45 79.6454 345.47 78.9654 344.25C78.2854 343.01 77.9454 341.66 77.9454 340.2C77.9454 338.72 78.2854 337.36 78.9654 336.12C79.6454 334.88 80.5954 333.89 81.8154 333.15C83.0354 332.41 84.4654 332.04 86.1054 332.04C87.7454 332.04 89.1654 332.42 90.3654 333.18C91.5654 333.92 92.4854 334.9 93.1254 336.12C93.7854 337.34 94.1154 338.65 94.1154 340.05C94.1154 340.55 94.0854 340.95 94.0254 341.25H81.4554C81.5154 342.17 81.7654 342.98 82.2054 343.68C82.6654 344.36 83.2354 344.9 83.9154 345.3C84.6154 345.68 85.3754 345.87 86.1954 345.87C87.0754 345.87 87.9054 345.65 88.6854 345.21C89.4654 344.77 90.0054 344.19 90.3054 343.47L93.1254 344.28C92.5854 345.46 91.6854 346.43 90.4254 347.19C89.1854 347.93 87.7354 348.3 86.0754 348.3ZM81.3654 339.06H90.8454C90.7654 338.16 90.5054 337.37 90.0654 336.69C89.6254 335.99 89.0554 335.45 88.3554 335.07C87.6754 334.67 86.9154 334.47 86.0754 334.47C85.2554 334.47 84.4954 334.67 83.7954 335.07C83.1154 335.45 82.5554 335.99 82.1154 336.69C81.6754 337.37 81.4254 338.16 81.3654 339.06ZM102.387 348.3C101.067 348.3 99.8171 348.08 98.6371 347.64C97.4571 347.2 96.4471 346.56 95.6071 345.72L96.8371 343.5C97.7371 344.3 98.6371 344.88 99.5371 345.24C100.437 345.6 101.347 345.78 102.267 345.78C103.187 345.78 103.937 345.61 104.517 345.27C105.097 344.91 105.387 344.39 105.387 343.71C105.387 343.23 105.237 342.86 104.937 342.6C104.637 342.34 104.197 342.13 103.617 341.97C103.057 341.81 102.377 341.61 101.577 341.37C100.457 341.03 99.5171 340.68 98.7571 340.32C97.9971 339.94 97.4271 339.48 97.0471 338.94C96.6671 338.4 96.4771 337.71 96.4771 336.87C96.4771 335.35 97.0471 334.17 98.1871 333.33C99.3271 332.47 100.817 332.04 102.657 332.04C103.797 332.04 104.847 332.22 105.807 332.58C106.787 332.92 107.647 333.46 108.387 334.2L106.977 336.39C105.617 335.15 104.117 334.53 102.477 334.53C101.757 334.53 101.087 334.67 100.467 334.95C99.8671 335.23 99.5671 335.75 99.5671 336.51C99.5671 337.15 99.8371 337.61 100.377 337.89C100.917 338.17 101.717 338.47 102.777 338.79C103.977 339.15 105.007 339.51 105.867 339.87C106.747 340.21 107.417 340.66 107.877 341.22C108.357 341.76 108.597 342.51 108.597 343.47C108.597 344.99 108.027 346.18 106.887 347.04C105.747 347.88 104.247 348.3 102.387 348.3ZM120.244 347.19C119.824 347.39 119.244 347.62 118.504 347.88C117.764 348.12 116.974 348.24 116.134 348.24C115.094 348.24 114.194 347.96 113.434 347.4C112.694 346.84 112.324 345.93 112.324 344.67V334.86H110.254V332.31H112.324V327.15H115.624V332.31H119.044V334.86H115.624V343.62C115.664 344.18 115.834 344.59 116.134 344.85C116.454 345.09 116.844 345.21 117.304 345.21C117.764 345.21 118.204 345.13 118.624 344.97C119.044 344.81 119.354 344.68 119.554 344.58L120.244 347.19ZM121.39 343.41C121.39 342.41 121.67 341.54 122.23 340.8C122.79 340.04 123.57 339.46 124.57 339.06C125.59 338.64 126.76 338.43 128.08 338.43C128.78 338.43 129.49 338.49 130.21 338.61C130.95 338.71 131.6 338.86 132.16 339.06V338.07C132.16 336.97 131.83 336.11 131.17 335.49C130.51 334.87 129.56 334.56 128.32 334.56C127.46 334.56 126.63 334.71 125.83 335.01C125.03 335.31 124.2 335.75 123.34 336.33L122.23 334.11C123.27 333.43 124.31 332.92 125.35 332.58C126.41 332.22 127.52 332.04 128.68 332.04C130.78 332.04 132.43 332.6 133.63 333.72C134.85 334.82 135.46 336.39 135.46 338.43V344.28C135.46 344.66 135.52 344.93 135.64 345.09C135.78 345.25 136.01 345.34 136.33 345.36V348C136.03 348.06 135.76 348.1 135.52 348.12C135.28 348.14 135.08 348.15 134.92 348.15C134.2 348.15 133.66 347.98 133.3 347.64C132.96 347.28 132.76 346.88 132.7 346.44L132.61 345.54C131.93 346.42 131.06 347.1 130 347.58C128.94 348.06 127.87 348.3 126.79 348.3C125.75 348.3 124.82 348.09 124 347.67C123.18 347.23 122.54 346.64 122.08 345.9C121.62 345.16 121.39 344.33 121.39 343.41ZM131.38 344.37C131.9 343.85 132.16 343.36 132.16 342.9V341.1C130.98 340.66 129.78 340.44 128.56 340.44C127.36 340.44 126.38 340.69 125.62 341.19C124.88 341.67 124.51 342.32 124.51 343.14C124.51 343.82 124.78 344.45 125.32 345.03C125.88 345.59 126.68 345.87 127.72 345.87C128.42 345.87 129.1 345.73 129.76 345.45C130.42 345.17 130.96 344.81 131.38 344.37ZM130.54 329.55C129.94 329.55 129.43 329.44 129.01 329.22C128.59 329 128.19 328.79 127.81 328.59C127.45 328.37 127.06 328.26 126.64 328.26C126.18 328.26 125.85 328.37 125.65 328.59C125.45 328.81 125.32 329.04 125.26 329.28C125.2 329.52 125.17 329.66 125.17 329.7H123.31C123.31 329.54 123.36 329.28 123.46 328.92C123.56 328.54 123.73 328.15 123.97 327.75C124.21 327.33 124.54 326.98 124.96 326.7C125.38 326.4 125.9 326.25 126.52 326.25C127.12 326.25 127.62 326.36 128.02 326.58C128.42 326.8 128.8 327.02 129.16 327.24C129.52 327.46 129.95 327.57 130.45 327.57C130.93 327.57 131.29 327.46 131.53 327.24C131.77 327 131.92 326.76 131.98 326.52C132.04 326.28 132.07 326.14 132.07 326.1H133.96C133.96 326.22 133.9 326.47 133.78 326.85C133.68 327.21 133.5 327.6 133.24 328.02C132.98 328.44 132.63 328.8 132.19 329.1C131.75 329.4 131.2 329.55 130.54 329.55ZM146.513 348.3C144.873 348.3 143.443 347.93 142.223 347.19C141.023 346.43 140.093 345.44 139.433 344.22C138.773 342.98 138.443 341.63 138.443 340.17C138.443 338.71 138.773 337.37 139.433 336.15C140.113 334.91 141.053 333.92 142.253 333.18C143.473 332.42 144.893 332.04 146.513 332.04C148.133 332.04 149.543 332.42 150.743 333.18C151.963 333.92 152.903 334.91 153.563 336.15C154.243 337.37 154.583 338.71 154.583 340.17C154.583 341.63 154.253 342.98 153.593 344.22C152.933 345.44 151.993 346.43 150.773 347.19C149.573 347.93 148.153 348.3 146.513 348.3ZM141.833 340.2C141.833 341.2 142.043 342.1 142.463 342.9C142.883 343.7 143.443 344.33 144.143 344.79C144.843 345.25 145.633 345.48 146.513 345.48C147.373 345.48 148.153 345.25 148.853 344.79C149.573 344.31 150.143 343.67 150.563 342.87C150.983 342.07 151.193 341.17 151.193 340.17C151.193 339.17 150.983 338.27 150.563 337.47C150.143 336.67 149.573 336.04 148.853 335.58C148.153 335.1 147.373 334.86 146.513 334.86C145.653 334.86 144.863 335.1 144.143 335.58C143.443 336.04 142.883 336.68 142.463 337.5C142.043 338.3 141.833 339.2 141.833 340.2ZM172.032 348.3C170.412 348.3 168.992 347.93 167.772 347.19C166.552 346.45 165.602 345.47 164.922 344.25C164.242 343.01 163.902 341.66 163.902 340.2C163.902 338.72 164.242 337.36 164.922 336.12C165.602 334.88 166.552 333.89 167.772 333.15C168.992 332.41 170.422 332.04 172.062 332.04C173.702 332.04 175.122 332.42 176.322 333.18C177.522 333.92 178.442 334.9 179.082 336.12C179.742 337.34 180.072 338.65 180.072 340.05C180.072 340.55 180.042 340.95 179.982 341.25H167.412C167.472 342.17 167.722 342.98 168.162 343.68C168.622 344.36 169.192 344.9 169.872 345.3C170.572 345.68 171.332 345.87 172.152 345.87C173.032 345.87 173.862 345.65 174.642 345.21C175.422 344.77 175.962 344.19 176.262 343.47L179.082 344.28C178.542 345.46 177.642 346.43 176.382 347.19C175.142 347.93 173.692 348.3 172.032 348.3ZM167.322 339.06H176.802C176.722 338.16 176.462 337.37 176.022 336.69C175.582 335.99 175.012 335.45 174.312 335.07C173.632 334.67 172.872 334.47 172.032 334.47C171.212 334.47 170.452 334.67 169.752 335.07C169.072 335.45 168.512 335.99 168.072 336.69C167.632 337.37 167.382 338.16 167.322 339.06ZM188.344 348.3C187.024 348.3 185.774 348.08 184.594 347.64C183.414 347.2 182.404 346.56 181.564 345.72L182.794 343.5C183.694 344.3 184.594 344.88 185.494 345.24C186.394 345.6 187.304 345.78 188.224 345.78C189.144 345.78 189.894 345.61 190.474 345.27C191.054 344.91 191.344 344.39 191.344 343.71C191.344 343.23 191.194 342.86 190.894 342.6C190.594 342.34 190.154 342.13 189.574 341.97C189.014 341.81 188.334 341.61 187.534 341.37C186.414 341.03 185.474 340.68 184.714 340.32C183.954 339.94 183.384 339.48 183.004 338.94C182.624 338.4 182.434 337.71 182.434 336.87C182.434 335.35 183.004 334.17 184.144 333.33C185.284 332.47 186.774 332.04 188.614 332.04C189.754 332.04 190.804 332.22 191.764 332.58C192.744 332.92 193.604 333.46 194.344 334.2L192.934 336.39C191.574 335.15 190.074 334.53 188.434 334.53C187.714 334.53 187.044 334.67 186.424 334.95C185.824 335.23 185.524 335.75 185.524 336.51C185.524 337.15 185.794 337.61 186.334 337.89C186.874 338.17 187.674 338.47 188.734 338.79C189.934 339.15 190.964 339.51 191.824 339.87C192.704 340.21 193.374 340.66 193.834 341.22C194.314 341.76 194.554 342.51 194.554 343.47C194.554 344.99 193.984 346.18 192.844 347.04C191.704 347.88 190.204 348.3 188.344 348.3ZM204.611 348.3C202.991 348.3 201.571 347.93 200.351 347.19C199.131 346.43 198.181 345.43 197.501 344.19C196.821 342.95 196.481 341.6 196.481 340.14C196.481 338.68 196.811 337.34 197.471 336.12C198.151 334.88 199.091 333.89 200.291 333.15C201.511 332.41 202.951 332.04 204.611 332.04C206.231 332.04 207.621 332.4 208.781 333.12C209.961 333.82 210.841 334.76 211.421 335.94L208.211 336.96C207.851 336.3 207.341 335.79 206.681 335.43C206.041 335.05 205.331 334.86 204.551 334.86C203.671 334.86 202.871 335.09 202.151 335.55C201.451 335.99 200.891 336.61 200.471 337.41C200.071 338.21 199.871 339.12 199.871 340.14C199.871 341.16 200.081 342.07 200.501 342.87C200.941 343.67 201.511 344.31 202.211 344.79C202.931 345.25 203.721 345.48 204.581 345.48C205.381 345.48 206.141 345.27 206.861 344.85C207.581 344.43 208.061 343.92 208.301 343.32L211.541 344.28C211.021 345.46 210.151 346.43 208.931 347.19C207.711 347.93 206.271 348.3 204.611 348.3ZM221.162 348.3C219.522 348.3 218.092 347.93 216.872 347.19C215.672 346.43 214.742 345.44 214.082 344.22C213.422 342.98 213.092 341.63 213.092 340.17C213.092 338.71 213.422 337.37 214.082 336.15C214.762 334.91 215.702 333.92 216.902 333.18C218.122 332.42 219.542 332.04 221.162 332.04C222.782 332.04 224.192 332.42 225.392 333.18C226.612 333.92 227.552 334.91 228.212 336.15C228.892 337.37 229.232 338.71 229.232 340.17C229.232 341.63 228.902 342.98 228.242 344.22C227.582 345.44 226.642 346.43 225.422 347.19C224.222 347.93 222.802 348.3 221.162 348.3ZM216.482 340.2C216.482 341.2 216.692 342.1 217.112 342.9C217.532 343.7 218.092 344.33 218.792 344.79C219.492 345.25 220.282 345.48 221.162 345.48C222.022 345.48 222.802 345.25 223.502 344.79C224.222 344.31 224.792 343.67 225.212 342.87C225.632 342.07 225.842 341.17 225.842 340.17C225.842 339.17 225.632 338.27 225.212 337.47C224.792 336.67 224.222 336.04 223.502 335.58C222.802 335.1 222.022 334.86 221.162 334.86C220.302 334.86 219.512 335.1 218.792 335.58C218.092 336.04 217.532 336.68 217.112 337.5C216.692 338.3 216.482 339.2 216.482 340.2ZM232.189 326.1H235.489V343.47C235.489 344.27 235.609 344.78 235.849 345C236.089 345.22 236.389 345.33 236.749 345.33C237.149 345.33 237.529 345.29 237.889 345.21C238.249 345.13 238.549 345.03 238.789 344.91L239.269 347.52C238.789 347.72 238.219 347.89 237.559 348.03C236.899 348.17 236.309 348.24 235.789 348.24C234.669 348.24 233.789 347.93 233.149 347.31C232.509 346.67 232.189 345.79 232.189 344.67V326.1ZM240.042 343.41C240.042 342.41 240.322 341.54 240.882 340.8C241.442 340.04 242.222 339.46 243.222 339.06C244.242 338.64 245.412 338.43 246.732 338.43C247.432 338.43 248.142 338.49 248.862 338.61C249.602 338.71 250.252 338.86 250.812 339.06V338.07C250.812 336.97 250.482 336.11 249.822 335.49C249.162 334.87 248.212 334.56 246.972 334.56C246.112 334.56 245.282 334.71 244.482 335.01C243.682 335.31 242.852 335.75 241.992 336.33L240.882 334.11C241.922 333.43 242.962 332.92 244.002 332.58C245.062 332.22 246.172 332.04 247.332 332.04C249.432 332.04 251.082 332.6 252.282 333.72C253.502 334.82 254.112 336.39 254.112 338.43V344.28C254.112 344.66 254.172 344.93 254.292 345.09C254.432 345.25 254.662 345.34 254.982 345.36V348C254.682 348.06 254.412 348.1 254.172 348.12C253.932 348.14 253.732 348.15 253.572 348.15C252.852 348.15 252.312 347.98 251.952 347.64C251.612 347.28 251.412 346.88 251.352 346.44L251.262 345.54C250.582 346.42 249.712 347.1 248.652 347.58C247.592 348.06 246.522 348.3 245.442 348.3C244.402 348.3 243.472 348.09 242.652 347.67C241.832 347.23 241.192 346.64 240.732 345.9C240.272 345.16 240.042 344.33 240.042 343.41ZM250.032 344.37C250.552 343.85 250.812 343.36 250.812 342.9V341.1C249.632 340.66 248.432 340.44 247.212 340.44C246.012 340.44 245.032 340.69 244.272 341.19C243.532 341.67 243.162 342.32 243.162 343.14C243.162 343.82 243.432 344.45 243.972 345.03C244.532 345.59 245.332 345.87 246.372 345.87C247.072 345.87 247.752 345.73 248.412 345.45C249.072 345.17 249.612 344.81 250.032 344.37ZM266.936 335.16C265.656 335.2 264.516 335.5 263.516 336.06C262.536 336.6 261.836 337.38 261.416 338.4V348H258.116V332.31H261.176V335.82C261.716 334.74 262.426 333.88 263.306 333.24C264.186 332.58 265.116 332.22 266.096 332.16C266.276 332.16 266.436 332.16 266.576 332.16C266.716 332.16 266.836 332.17 266.936 332.19V335.16ZM269.966 340.41V326.49H273.266V340.41H269.966ZM269.966 348V343.89H273.266V348H269.966Z" fill="white"/>
<path d="M112.918 18.5272L135.262 26.6286L135.735 26.8L136.155 26.5228C144.588 20.9486 154.36 18.0127 164.556 18.0127C174.753 18.0127 184.524 20.9486 192.959 26.5226L193.378 26.7998L193.851 26.6284L216.195 18.5272L216.17 22.9902C216.124 31.0473 213.281 37.1493 209.141 42.3422L208.713 42.8801L209.062 43.4729C213.717 51.3805 216.17 60.3806 216.17 69.626V97.9623L213.799 98.5426L214.037 99.5139L213.799 98.5426C194.525 103.261 179.588 109.94 166.844 119.581L164.968 121.001L163.091 119.581C150.61 110.138 135.408 103.461 115.314 98.5426L115.076 99.5139L115.314 98.5426L112.943 97.9623V69.6258C112.943 60.3803 115.396 51.3803 120.052 43.4727L120.401 42.8799L119.972 42.342C115.832 37.1493 112.989 31.0471 112.943 22.9902L112.943 22.9902L112.918 18.5272ZM209.06 29.4158L209.591 27.5386L207.757 28.2036L192.432 33.7601L191.098 32.797C183.339 27.1949 174.158 24.2334 164.556 24.2334C154.955 24.2334 145.774 27.1949 138.015 32.797L136.681 33.7601L121.356 28.2038L119.522 27.5388L120.053 29.416C122.444 37.8708 129.356 43.6001 136.771 49.7472L136.916 49.8673L137.534 49.1213L136.916 49.8673C144.038 55.7714 151.216 61.7389 155.752 70.5535L155.764 70.577L155.778 70.5998L163.692 84.1682L164.556 85.649L165.42 84.1682L173.335 70.5998L173.348 70.577L173.361 70.5535C177.897 61.7391 185.074 55.7714 192.197 49.8673L191.558 49.0974L192.197 49.8673L192.341 49.7471C199.757 43.5999 206.669 37.8706 209.06 29.4158ZM175.606 72.9819L176.157 73.3022L176.68 72.9391L176.682 72.9372L178.057 71.9831L176.565 71.2245L176.519 71.2009L176.061 72.0419L175.542 71.2944L175.539 71.2962L176.059 72.0451L175.562 72.9564L175.606 72.9819ZM184.719 66.6942L183.941 65.9963L183.278 66.8046C181.887 68.5019 180.616 70.3035 179.52 72.2387L179.105 72.9724L179.757 73.5059C181.339 74.7982 183.313 75.5583 185.357 75.5583C190.339 75.5583 194.535 71.3819 194.535 66.4092C194.535 65.2817 194.304 64.1797 193.885 63.1571L191.96 63.5222C191.926 65.8926 189.996 67.8038 187.618 67.8038C186.503 67.8038 185.489 67.3847 184.719 66.6942ZM137.153 63.5224L135.228 63.1573C134.809 64.1799 134.578 65.2817 134.578 66.4094C134.578 71.3821 138.774 75.5585 143.756 75.5585C145.8 75.5585 147.774 74.7984 149.356 73.5059L150.008 72.9723L149.593 72.2387C148.497 70.3034 147.226 68.502 145.835 66.8048L145.172 65.9966L144.394 66.6944C143.624 67.3849 142.609 67.804 141.495 67.804C139.117 67.804 137.187 65.8929 137.153 63.5224ZM152.547 71.2245L150.998 72.013L152.459 72.956L152.462 72.9579L152.978 73.2912L153.509 72.9809L153.552 72.9554L153.053 72.0414L153.546 71.2775L153.543 71.2756L153.051 72.038L152.594 71.2009L152.547 71.2245ZM209.202 93.2897L209.949 93.0942V92.3223V69.626C209.949 62.3226 208.209 55.1921 204.888 48.7769L204.284 47.6105L203.32 48.503C201.13 50.5315 198.816 52.4602 196.492 54.3872L195.656 55.0803L196.416 55.8564C199.153 58.6528 200.756 62.4068 200.756 66.4092C200.756 70.4764 199.146 74.3255 196.208 77.2532C193.276 80.1763 189.424 81.779 185.357 81.779C182.318 81.779 179.345 80.8077 176.836 79.0787L175.948 78.467L175.405 79.3983L164.556 97.9951L153.708 79.3983L153.165 78.467L152.277 79.0787C149.768 80.8077 146.795 81.779 143.756 81.779C139.689 81.779 135.837 80.1763 132.905 77.2532C129.967 74.3255 128.357 70.4762 128.357 66.4092C128.357 62.4068 129.96 58.6528 132.697 55.8564L133.457 55.0803L132.621 54.3872C130.297 52.4602 127.983 50.5315 125.793 48.503L124.829 47.6105L124.225 48.7769C120.904 55.1923 119.164 62.3226 119.164 69.626V92.3196V93.0927L119.912 93.2874C138.147 98.0321 152.412 104.307 164.385 112.817L164.966 113.23L165.546 112.816C177.688 104.145 191.693 97.8736 209.202 93.2897ZM165.293 47.036C168.977 43.0287 172.719 39.5425 176.551 36.5454C178.743 37.3402 180.857 38.3577 182.868 39.589C177.387 43.5065 172.111 48.4785 166.927 54.5811L164.556 57.3722L162.186 54.5811C157.002 48.4785 151.725 43.5065 146.245 39.589C148.256 38.3577 150.37 37.3402 152.562 36.5454C156.394 39.5427 160.136 43.0287 163.82 47.036L164.556 47.8367L165.293 47.036Z" fill="#005CC9" stroke="white" stroke-width="2"/>
<path d="M96.9999 12.5765L123.507 12.5798L117.69 39.1645L117.463 40.2025L118.513 40.3663L162.285 47.195L162.434 47.2184L162.585 47.1962L208.866 40.376L209.807 40.2373L209.715 39.2903C209.709 39.2239 209.699 39.1242 209.685 38.9906L209.684 38.9899C209.655 38.7218 209.608 38.3206 209.534 37.7791C209.386 36.6963 209.133 35.0539 208.71 32.7973C207.897 28.4596 206.458 21.8521 203.936 12.5897L227.868 12.5926L227.868 13.2965L227.864 39.429C225.753 40.341 224.258 42.4289 224.258 44.8945C224.258 45.6744 224.412 46.4135 224.685 47.0892L223.981 47.0891L223.909 48.0108L222.43 66.7969L222.345 67.8752L223.427 67.8753L237 67.877L238.081 67.8771L237.997 66.7988L236.524 48.0107L236.452 47.089L235.747 47.0889C236.021 46.4138 236.176 45.6751 236.176 44.8944C236.176 42.5958 234.879 40.6098 232.987 39.6102L232.99 13.2971L232.99 12.5933L235.182 12.5935L236.182 12.5937L236.182 11.5936L236.183 2.01718L236.183 1.01719L235.183 1.01707L97.0014 1L96.0014 0.999876L96.0012 1.99987L96 11.5763L95.9999 12.5764L96.9999 12.5765Z" fill="url(#paint0_linear)" stroke="white" stroke-width="2"/>
<defs>
<linearGradient id="paint0_linear" x1="167" y1="2" x2="167" y2="66.877" gradientUnits="userSpaceOnUse">
<stop stop-color="#005CC9"/>
<stop offset="1" stop-color="#000A62"/>
</linearGradient>
</defs>
</svg>
