<svg width="140" height="111" viewBox="0 0 140 111" fill="none" xmlns="http://www.w3.org/2000/svg">
<path d="M67.3989 71.6329C69.1506 25.2432 64.1393 0 34.8299 0C5.52048 0 0.509184 25.2432 2.26087 71.6329H67.3989Z" fill="#2D4456"/>
<path d="M43.597 60.6865H26.0631C16.2979 60.6865 7.64217 64.9952 2.26245 71.6327C2.36645 74.3873 2.49285 77.1984 2.641 80.0702H2.64121C2.641 80.0702 67.0191 80.0702 67.0191 80.0702H67.0193C67.1673 77.1984 67.2939 74.3873 67.3979 71.6327C62.0177 64.9952 53.3622 60.6865 43.597 60.6865Z" fill="#253847"/>
<path d="M67.5841 108.172H2.07575L0 106.096V91.6989C0 80.7732 6.52332 71.3709 15.8877 67.1747L53.2548 66.9492C62.8954 71.0269 69.6601 80.5729 69.6601 91.6989V106.096L67.5841 108.172Z" fill="#FFCF4D"/>
<path d="M1.15329 110.247H12.0309L13.7607 108.171L15.4906 110.247H54.1693L55.899 108.171L57.6287 110.247H68.5064C69.1433 110.247 69.6596 109.731 69.6596 109.094V106.096H0V109.094C0 109.731 0.516352 110.247 1.15329 110.247Z" fill="#FFB629"/>
<path d="M34.8298 76.1218L26.3285 64.845C22.6147 64.9171 19.0858 65.7422 15.8879 67.1752C26.3283 96.2523 34.8298 76.1218 34.8298 76.1218Z" fill="#FF9517"/>
<path d="M34.8298 76.1218L43.3311 64.845C47.0449 64.9171 50.5739 65.7422 53.7717 67.1752C43.3314 96.2523 34.8298 76.1218 34.8298 76.1218Z" fill="#FF9517"/>
<path d="M26.3284 64.8384C26.3284 64.8384 26.3284 76.1219 34.8299 76.1219C43.3314 76.1219 43.3314 64.8384 43.3314 64.8384H26.3284Z" fill="#FFC4AD"/>
<path d="M23.5618 22.9966C22.3023 25.7592 19.263 31.0829 13.716 33.5637C13.2997 33.75 13.0293 34.1604 13.0293 34.6165V40.9617V43.0374C13.0293 55.0776 22.7898 64.838 34.8298 64.838C46.8698 64.838 56.6303 55.0776 56.6303 43.0374V40.9617V32.9744C56.6303 32.3189 56.0854 31.7965 55.4303 31.8222C50.8094 32.0024 33.9997 31.9733 25.4691 22.6988C24.9058 22.0862 23.9072 22.2391 23.5618 22.9966Z" fill="#FFE0CC"/>
<path d="M34.8298 62.7622C22.7898 62.7622 13.0293 53.0019 13.0293 40.9617V45.1132C13.0293 57.1531 22.7898 66.9137 34.8298 66.9137C46.8698 66.9137 56.6303 57.1534 56.6303 45.1132V40.9617C56.6303 53.0019 46.8698 62.7622 34.8298 62.7622Z" fill="#FFCEB3"/>
<path d="M15.4907 95.0202V106.096L13.7607 108.171L12.031 106.096V95.0202C12.031 94.0631 12.8036 93.2903 13.7607 93.2903C14.7157 93.2903 15.4907 94.0631 15.4907 95.0202Z" fill="#FF9517"/>
<path d="M57.6289 95.0205V106.096L55.8991 108.172L54.1694 106.096V95.0205C54.1694 94.0633 54.9444 93.2905 55.8991 93.2905C56.8563 93.2905 57.6289 94.0633 57.6289 95.0205Z" fill="#FF9517"/>
<path d="M12.031 106.096H15.4907V110.247H12.031V106.096Z" fill="#EF7F0F"/>
<path d="M54.1692 106.096H57.6288V110.247H54.1692V106.096Z" fill="#EF7F0F"/>
<path d="M24.2456 36.6475C23.2883 36.6475 22.5125 37.4233 22.5125 38.3806V43.2774C22.5125 44.2347 23.2883 45.0105 24.2456 45.0105C25.203 45.0105 25.9788 44.2347 25.9788 43.2774V38.3806C25.979 37.4235 25.203 36.6475 24.2456 36.6475Z" fill="#2D4456"/>
<path d="M45.4143 45.0108C46.3717 45.0108 47.1475 44.235 47.1475 43.2776V38.3809C47.1475 37.4235 46.3717 36.6477 45.4143 36.6477C44.457 36.6477 43.6812 37.4235 43.6812 38.3809V43.2776C43.6809 44.235 44.457 45.0108 45.4143 45.0108Z" fill="#2D4456"/>
<path d="M41.2117 52.6158L41.2092 52.6147C41.3196 52.3867 41.3834 52.1317 41.3834 51.8613C41.3575 49.9253 38.7049 49.475 38.0266 51.259L38.023 51.2575C37.9498 51.4117 37.2392 52.7618 34.8297 52.7618C32.4202 52.7618 31.7094 51.4115 31.6364 51.2575L31.6327 51.259C30.7077 49.0485 27.4957 50.3999 28.4502 52.6147L28.4476 52.6158C29.0001 53.9575 30.9661 56.2283 34.8297 56.2283C38.6933 56.2283 40.6594 53.9573 41.2117 52.6158Z" fill="#FF5876"/>
<path d="M132.349 41.8299L134.959 39.4833C144.039 0.163177 116.211 4.3123 116.211 4.3123C116.211 4.3123 107.813 -3.11108 92.707 1.52167C77.9595 6.04439 76.7104 16.1271 68.1766 21.2124C67.4978 21.6168 67.4132 22.5645 68.0235 23.066C69.3189 24.1305 71.746 25.5525 75.4766 25.5644C75.2414 29.6427 75.6348 34.2552 76.7603 39.4331L79.3613 41.8302H132.349V41.8299Z" fill="#2D4456"/>
<path d="M83.7471 33.7197C80.2952 33.7197 77.4172 36.174 76.7617 39.4328C76.9327 40.2191 77.1194 41.0176 77.3244 41.83H84.484V33.7576C84.2415 33.7324 83.9958 33.7197 83.7471 33.7197Z" fill="#253847"/>
<path d="M134.386 41.83C134.592 41.0303 134.781 40.2495 134.958 39.4829C134.322 36.1994 131.433 33.7197 127.964 33.7197C127.715 33.7197 127.469 33.7326 127.227 33.7574V41.8298H134.386V41.83Z" fill="#253847"/>
<path d="M84.4839 46.3976V37.8324C84.2417 37.8076 83.9958 37.7947 83.7471 37.7947C80.5196 37.7947 77.7933 39.9402 76.9167 42.8828C76.7244 43.5286 79.8116 50.0095 83.7471 50.0095L84.538 47.9271C84.502 47.4219 84.4839 46.912 84.4839 46.3976Z" fill="#FFC4AD"/>
<path d="M83.7471 47.9719C80.5196 47.9719 77.7948 45.8257 76.9182 42.8833C76.7257 43.5291 76.6211 44.2125 76.6211 44.9207C76.6211 48.8562 79.8116 52.0467 83.7471 52.0467C84.2449 52.0467 84.7307 51.9953 85.1999 51.8982L86.8159 49.9434L84.5395 47.9269C84.2792 47.956 84.015 47.9719 83.7471 47.9719Z" fill="#FFB69F"/>
<path d="M137.962 108.21H73.7484L71.7109 106.172V92.0635C71.7109 77.5208 83.5001 65.7317 98.0428 65.7317H113.668C128.211 65.7317 140 77.5208 140 92.0635V106.172L137.962 108.21Z" fill="#86DCFF"/>
<path d="M72.8429 110.247H83.5022L85.2001 108.21L86.8979 110.247H124.813L126.511 108.21L128.209 110.247H138.868C139.493 110.247 140 109.741 140 109.115V106.172H71.7109V109.115C71.7109 109.741 72.2176 110.247 72.8429 110.247Z" fill="#56CAED"/>
<path d="M101.893 75.4212L105.855 73.3838L109.816 75.4212L112.838 91.9871L112.012 94.8598L105.855 101.08L99.7442 94.9068L98.8706 91.9869L101.893 75.4212Z" fill="#FF5876"/>
<path d="M105.051 98.2296L98.8709 91.9871L98.3489 94.8475C98.2826 95.2111 98.398 95.5843 98.6582 95.847L105.051 102.304C105.494 102.752 106.217 102.752 106.66 102.304L113.051 95.8472C113.312 95.5845 113.427 95.2114 113.36 94.8477L112.838 91.9873L106.66 98.2296C106.217 98.677 105.494 98.677 105.051 98.2296Z" fill="#E6485D"/>
<path d="M109.816 75.4212H101.893L98.1304 65.7317H113.579L109.816 75.4212Z" fill="#E6485D"/>
<path d="M127.227 46.3976V37.8324C127.469 37.8076 127.715 37.7947 127.964 37.7947C131.191 37.7947 133.918 39.9402 134.794 42.8828C134.986 43.5286 131.899 50.0095 127.964 50.0095L127.173 47.9271C127.209 47.4219 127.227 46.912 127.227 46.3976Z" fill="#FFC4AD"/>
<path d="M127.964 47.9719C131.191 47.9719 133.916 45.8257 134.792 42.8833C134.985 43.5291 135.09 44.2125 135.09 44.9207C135.09 48.8562 131.899 52.0467 127.963 52.0467C127.466 52.0467 126.98 51.9953 126.511 51.8982L124.895 49.9434L127.171 47.9269C127.432 47.956 127.696 47.9719 127.964 47.9719Z" fill="#FFB69F"/>
<path d="M112.958 17.3198C104.882 26.3542 89.4566 29.0947 85.4526 29.6685C84.8956 29.7484 84.4839 30.2258 84.4839 30.7884V41.8299V44.3602C84.4839 56.1634 94.0521 65.7316 105.855 65.7316C117.658 65.7316 127.227 56.1634 127.227 44.3602V42.3228V30.9348C127.227 30.4855 126.962 30.0787 126.551 29.8991C124.542 29.0225 118.521 25.8146 114.824 17.6186C114.491 16.8783 113.499 16.7143 112.958 17.3198Z" fill="#FFE0CC"/>
<path d="M105.855 63.6944C94.0524 63.6944 84.4839 54.1261 84.4839 42.323V46.3978C84.4839 58.201 94.0524 67.7692 105.855 67.7692C117.658 67.7692 127.227 58.201 127.227 46.3978V42.323C127.227 54.1261 117.659 63.6944 105.855 63.6944Z" fill="#FFCEB3"/>
<path d="M101.905 43.9163C102.839 39.1437 99.7276 34.5174 94.955 33.5833C90.1823 32.6492 85.5561 35.761 84.622 40.5337C83.6879 45.3063 86.7997 49.9325 91.5723 50.8666C96.3449 51.8007 100.971 48.689 101.905 43.9163Z" fill="#E4EEF9"/>
<path d="M119.338 50.9409C124.173 50.4252 127.676 46.0868 127.16 41.251C126.644 36.4151 122.306 32.9129 117.47 33.4285C112.634 33.9442 109.132 38.2826 109.648 43.1185C110.163 47.9544 114.502 51.4566 119.338 50.9409Z" fill="#E4EEF9"/>
<path d="M86.8977 106.172V95.3189C86.8977 94.3812 86.1375 93.6211 85.1998 93.6211C84.2621 93.6211 83.502 94.3812 83.502 95.3189V106.172L85.1998 108.21L86.8977 106.172Z" fill="#41ADF7"/>
<path d="M83.502 106.172H86.8977V110.247H83.502V106.172Z" fill="#1BA0EA"/>
<path d="M128.209 106.172V95.3189C128.209 94.3812 127.449 93.6211 126.511 93.6211C125.573 93.6211 124.813 94.3812 124.813 95.3189V106.172L126.511 108.21L128.209 106.172Z" fill="#41ADF7"/>
<path d="M124.813 106.172H128.209V110.247H124.813V106.172Z" fill="#1BA0EA"/>
<path d="M111.191 51.538C110.322 51.1803 109.328 51.5946 108.97 52.4632C108.964 52.4774 108.31 53.8986 105.858 53.8986C103.406 53.8986 102.752 52.4774 102.746 52.4632C102.389 51.5946 101.395 51.1803 100.526 51.538C99.6569 51.8956 99.2427 52.8898 99.6001 53.7584C100.142 55.0741 102.069 57.3008 105.858 57.3008C109.646 57.3008 111.574 55.0741 112.116 53.7584C112.474 52.8898 112.06 51.8956 111.191 51.538Z" fill="#FF5876"/>
<path d="M95.4831 46.3055C96.4225 46.3055 97.1841 45.5438 97.1841 44.6044V39.8041C97.1841 38.8646 96.4227 38.103 95.4831 38.103C94.5436 38.103 93.782 38.8646 93.782 39.8041V44.6044C93.7822 45.5438 94.5436 46.3055 95.4831 46.3055Z" fill="#2D4456"/>
<path d="M116.234 38.1033C115.294 38.1033 114.532 38.8649 114.532 39.8044V44.6046C114.532 45.5441 115.294 46.3057 116.234 46.3057C117.173 46.3057 117.935 45.5441 117.935 44.6046V39.8044C117.934 38.8649 117.173 38.1033 116.234 38.1033Z" fill="#2D4456"/>
<path d="M118.418 31.7183C113.202 31.7183 108.864 35.5386 108.05 40.5275H103.661C102.847 35.5386 98.5084 31.7183 93.2932 31.7183C87.4996 31.7183 82.7861 36.4318 82.7861 42.2253C82.7861 48.0189 87.4996 52.7322 93.2932 52.7322C98.5086 52.7322 102.847 48.9119 103.661 43.9232H108.05C108.865 48.9119 113.203 52.7322 118.418 52.7322C124.211 52.7322 128.925 48.0187 128.925 42.2253C128.925 36.4318 124.211 31.7183 118.418 31.7183ZM93.2932 49.3365C89.3721 49.3365 86.1818 46.1464 86.1818 42.2253C86.1818 38.3042 89.3719 35.114 93.2932 35.114C97.2141 35.114 100.404 38.304 100.404 42.2253C100.404 46.1464 97.2141 49.3365 93.2932 49.3365ZM118.418 49.3365C114.497 49.3365 111.307 46.1464 111.307 42.2253C111.307 38.3042 114.497 35.114 118.418 35.114C122.339 35.114 125.529 38.304 125.529 42.2253C125.529 46.1464 122.339 49.3365 118.418 49.3365Z" fill="#2D4456"/>
</svg>
