<svg width="70" height="92" viewBox="0 0 70 92" fill="none" xmlns="http://www.w3.org/2000/svg">
<path d="M0 0V83.4615H10.7692C11.8917 81.8664 29.839 56.3624 30.9615 54.7673L32.3077 27.3836L30.9615 0C30.0883 0 0.873205 0 0 0Z" fill="#F4D844"/>
<path d="M61.923 0C61.0498 0 31.8346 0 30.9614 0V54.7673C32.6815 52.323 60.2029 13.2135 61.923 10.7692C61.923 9.46633 61.923 1.31151 61.923 0Z" fill="#ECBD2C"/>
<path d="M10.7693 10.7693V91.5385H40.3847L43.077 51.1539L40.3847 10.7693C39.5493 10.7693 11.6043 10.7693 10.7693 10.7693Z" fill="#F9F9F9"/>
<path d="M40.3845 10.7693V91.5385H52.238L56.1196 77.0598L69.9999 73.8075C69.9999 73.8075 69.9999 14.2696 69.9999 10.7693C69.1646 10.7693 41.2195 10.7693 40.3845 10.7693Z" fill="#E2DFF4"/>
<path d="M52.238 91.5386C54.398 89.3824 67.8353 75.9683 69.9999 73.8076C65.187 73.8076 55.0738 73.8076 52.238 73.8076V91.5386Z" fill="#BEBCDD"/>
<path d="M40.3847 26.9229C35.3092 26.9229 24.4953 26.9229 21.5386 26.9229C21.5386 25.0398 21.5386 23.4215 21.5386 21.5383H40.3847L43.077 24.2306L40.3847 26.9229Z" fill="#4E6BA6"/>
<path d="M40.3847 37.6922C35.3092 37.6922 24.4953 37.6922 21.5386 37.6922C21.5386 35.8091 21.5386 34.1908 21.5386 32.3076H40.3847L43.077 34.9999L40.3847 37.6922Z" fill="#A7CAFC"/>
<path d="M40.3847 48.4615C35.3092 48.4615 24.4953 48.4615 21.5386 48.4615C21.5386 46.5783 21.5386 44.9601 21.5386 43.0769H40.3847L43.077 45.7692L40.3847 48.4615Z" fill="#A7CAFC"/>
<path d="M40.3847 59.2308C35.3092 59.2308 24.4953 59.2308 21.5386 59.2308C21.5386 57.3476 21.5386 55.7294 21.5386 53.8462H40.3847L43.077 56.5385L40.3847 59.2308Z" fill="#A7CAFC"/>
<path d="M59.2307 26.9229C54.1551 26.9229 43.3412 26.9229 40.3845 26.9229C40.3845 25.0398 40.3845 23.4215 40.3845 21.5383H59.2307V26.9229Z" fill="#28487A"/>
<path d="M59.2307 37.6922C54.1551 37.6922 43.3412 37.6922 40.3845 37.6922C40.3845 35.8091 40.3845 34.1908 40.3845 32.3076H59.2307V37.6922Z" fill="#8493FB"/>
<path d="M59.2307 48.4615C54.1551 48.4615 43.3412 48.4615 40.3845 48.4615C40.3845 46.5783 40.3845 44.9601 40.3845 43.0769H59.2307V48.4615Z" fill="#8493FB"/>
<path d="M59.2307 59.2308C54.1551 59.2308 43.3412 59.2308 40.3845 59.2308C40.3845 57.3476 40.3845 55.7294 40.3845 53.8462H59.2307V59.2308Z" fill="#8493FB"/>
<path d="M40.3847 70.0001C35.3092 70.0001 24.4953 70.0001 21.5386 70.0001C21.5386 68.1169 21.5386 66.4987 21.5386 64.6155H40.3847V70.0001Z" fill="#DD4E4E"/>
</svg>
