<svg width="1152" height="262" viewBox="0 0 1152 262" fill="none" xmlns="http://www.w3.org/2000/svg">
<path fill-rule="evenodd" clip-rule="evenodd" d="M0.317871 84L48.3179 108C96.3179 132 192.318 180 288.318 186C384.318 192 480.318 156 576.318 108C672.318 60 768.318 0 864.318 0C960.318 0 1056.32 60 1104.32 90L1152.32 120V264H1104.32C1056.32 264 960.318 264 864.318 264C768.318 264 672.318 264 576.318 264C480.318 264 384.318 264 288.318 264C192.318 264 96.3179 264 48.3179 264H0.317871V84Z" fill="url(#paint0_linear)"/>
<g clip-path="url(#clip0)">
<path d="M212.336 241.973L213.725 242.894C215.199 243.871 216.223 245.394 216.574 247.127C216.925 248.86 216.573 250.661 215.595 252.135C214.618 253.608 213.095 254.633 211.362 254.984C209.629 255.334 207.828 254.982 206.355 254.005L204.966 253.084" stroke="#F2F2F2" stroke-width="2" stroke-linecap="round" stroke-linejoin="round"/>
<path d="M190.115 227.231L212.337 241.973L204.045 254.472C203.067 255.946 201.545 256.971 199.812 257.321C198.079 257.672 196.277 257.32 194.804 256.343L183.693 248.972C182.22 247.995 181.195 246.472 180.844 244.739C180.493 243.006 180.845 241.205 181.823 239.731L190.115 227.231Z" stroke="#F2F2F2" stroke-width="2" stroke-linecap="round" stroke-linejoin="round"/>
<path d="M202.119 221.195L199.355 225.361" stroke="#F2F2F2" stroke-width="2" stroke-linecap="round" stroke-linejoin="round"/>
<path d="M207.675 224.88L204.911 229.046" stroke="#F2F2F2" stroke-width="2" stroke-linecap="round" stroke-linejoin="round"/>
<path d="M213.23 228.565L210.466 232.732" stroke="#F2F2F2" stroke-width="2" stroke-linecap="round" stroke-linejoin="round"/>
</g>
<path d="M228.484 199.25H240.984C243.195 199.25 245.314 200.128 246.877 201.691C248.44 203.254 249.318 205.373 249.318 207.583V236.75C249.318 235.092 248.659 233.503 247.487 232.331C246.315 231.158 244.725 230.5 243.068 230.5H228.484V199.25Z" stroke="#F2F2F2" stroke-width="2" stroke-linecap="round" stroke-linejoin="round"/>
<path d="M270.151 199.25H257.651C255.441 199.25 253.321 200.128 251.759 201.691C250.196 203.254 249.318 205.373 249.318 207.583V236.75C249.318 235.092 249.976 233.503 251.148 232.331C252.321 231.158 253.91 230.5 255.568 230.5H270.151V199.25Z" stroke="#F2F2F2" stroke-width="2" stroke-linecap="round" stroke-linejoin="round"/>
<g clip-path="url(#clip1)">
<path d="M228.484 199.25H240.984C243.195 199.25 245.314 200.128 246.877 201.691C248.44 203.254 249.318 205.373 249.318 207.583V236.75C249.318 235.092 248.659 233.503 247.487 232.331C246.315 231.158 244.725 230.5 243.068 230.5H228.484V199.25Z" stroke="#F2F2F2" stroke-width="2" stroke-linecap="round" stroke-linejoin="round"/>
</g>
<g clip-path="url(#clip2)">
<path d="M228.484 199.25H240.984C243.195 199.25 245.314 200.128 246.877 201.691C248.44 203.254 249.318 205.373 249.318 207.583V236.75C249.318 235.092 248.659 233.503 247.487 232.331C246.315 231.158 244.725 230.5 243.068 230.5H228.484V199.25Z" stroke="#F2F2F2" stroke-width="2" stroke-linecap="round" stroke-linejoin="round"/>
</g>
<g clip-path="url(#clip3)">
<path d="M228.484 199.25H240.984C243.195 199.25 245.314 200.128 246.877 201.691C248.44 203.254 249.318 205.373 249.318 207.583V236.75C249.318 235.092 248.659 233.503 247.487 232.331C246.315 231.158 244.725 230.5 243.068 230.5H228.484V199.25Z" stroke="#F2F2F2" stroke-width="2" stroke-linecap="round" stroke-linejoin="round"/>
</g>
<g clip-path="url(#clip4)">
<path d="M430.202 203.34C437.307 207.132 446.142 204.445 449.933 197.339C453.725 190.234 451.039 181.399 443.933 177.608C436.827 173.816 427.993 176.502 424.201 183.608C420.409 190.714 423.096 199.548 430.202 203.34Z" stroke="#F2F2F2" stroke-width="2" stroke-linecap="round" stroke-linejoin="round"/>
<path d="M424.324 197.582L413.165 213.14L425.297 212.53L431.545 222.948L438.266 204.998" stroke="#F2F2F2" stroke-width="2" stroke-linecap="round" stroke-linejoin="round"/>
</g>
<g clip-path="url(#clip5)">
<path d="M861.289 253.245C856.574 246.715 847.458 245.243 840.929 249.958C834.399 254.673 832.927 263.789 837.642 270.319C842.357 276.849 851.472 278.32 858.002 273.605C864.532 268.89 866.004 259.775 861.289 253.245Z" stroke="#F2F2F2" stroke-width="2" stroke-linecap="round" stroke-linejoin="round"/>
<path d="M864.036 261L880.899 251.934L869.734 247.147L868.704 235.043L854.775 248.209" stroke="#F2F2F2" stroke-width="2" stroke-linecap="round" stroke-linejoin="round"/>
</g>
<g clip-path="url(#clip6)">
<path d="M916.25 135.747C918.626 143.443 926.79 147.756 934.486 145.38C942.182 143.004 946.494 134.839 944.118 127.143C941.742 119.447 933.578 115.135 925.882 117.511C918.186 119.887 913.874 128.052 916.25 135.747Z" stroke="#F2F2F2" stroke-width="2" stroke-linecap="round" stroke-linejoin="round"/>
<path d="M916.13 127.521L897.252 130.711L906.297 138.82L903.398 150.617L920.809 142.603" stroke="#F2F2F2" stroke-width="2" stroke-linecap="round" stroke-linejoin="round"/>
</g>
<path d="M1052.59 210.512C1060.65 210.499 1067.16 203.959 1067.15 195.905C1067.14 187.851 1060.6 181.333 1052.54 181.346C1044.49 181.359 1037.97 187.899 1037.98 195.953C1038 204.007 1044.54 210.526 1052.59 210.512Z" stroke="#F2F2F2" stroke-width="2" stroke-linecap="round" stroke-linejoin="round"/>
<path d="M1044.69 208.213L1042.2 227.196L1052.61 220.929L1063.03 227.162L1060.48 208.166" stroke="#F2F2F2" stroke-width="2" stroke-linecap="round" stroke-linejoin="round"/>
<path d="M505.318 200.333H506.985C508.753 200.333 510.448 201.036 511.699 202.286C512.949 203.536 513.651 205.232 513.651 207C513.651 208.768 512.949 210.464 511.699 211.714C510.448 212.964 508.753 213.667 506.985 213.667H505.318" stroke="#F2F2F2" stroke-width="2" stroke-linecap="round" stroke-linejoin="round"/>
<path d="M478.651 200.333H505.318V215.333C505.318 217.101 504.616 218.797 503.365 220.047C502.115 221.298 500.419 222 498.651 222H485.318C483.55 222 481.854 221.298 480.604 220.047C479.354 218.797 478.651 217.101 478.651 215.333V200.333Z" stroke="#F2F2F2" stroke-width="2" stroke-linecap="round" stroke-linejoin="round"/>
<path d="M485.318 188.667V193.667" stroke="#F2F2F2" stroke-width="2" stroke-linecap="round" stroke-linejoin="round"/>
<path d="M491.984 188.667V193.667" stroke="#F2F2F2" stroke-width="2" stroke-linecap="round" stroke-linejoin="round"/>
<path d="M498.651 188.667V193.667" stroke="#F2F2F2" stroke-width="2" stroke-linecap="round" stroke-linejoin="round"/>
<g clip-path="url(#clip7)">
<path d="M861.284 136.876L862.751 137.666C864.307 138.505 865.467 139.928 865.974 141.622C866.482 143.315 866.296 145.141 865.457 146.698C864.618 148.254 863.195 149.414 861.501 149.921C859.808 150.429 857.982 150.243 856.425 149.404L854.958 148.613" stroke="#F2F2F2" stroke-width="2" stroke-linecap="round" stroke-linejoin="round"/>
<path d="M837.809 124.225L861.284 136.876L854.167 150.08C853.329 151.637 851.906 152.796 850.212 153.304C848.518 153.811 846.693 153.625 845.136 152.786L833.399 146.461C831.842 145.622 830.683 144.199 830.175 142.505C829.668 140.812 829.854 138.986 830.693 137.429L837.809 124.225Z" stroke="#F2F2F2" stroke-width="2" stroke-linecap="round" stroke-linejoin="round"/>
<path d="M849.212 117.117L846.841 121.518" stroke="#F2F2F2" stroke-width="2" stroke-linecap="round" stroke-linejoin="round"/>
<path d="M855.081 120.28L852.709 124.68" stroke="#F2F2F2" stroke-width="2" stroke-linecap="round" stroke-linejoin="round"/>
<path d="M860.95 123.443L858.578 127.843" stroke="#F2F2F2" stroke-width="2" stroke-linecap="round" stroke-linejoin="round"/>
</g>
<g clip-path="url(#clip8)">
<path d="M1110.38 232.97L1111.85 233.761C1113.4 234.599 1114.56 236.022 1115.07 237.716C1115.58 239.41 1115.39 241.236 1114.55 242.792C1113.71 244.349 1112.29 245.508 1110.6 246.016C1108.9 246.523 1107.08 246.337 1105.52 245.498L1104.05 244.707" stroke="#F2F2F2" stroke-width="2" stroke-linecap="round" stroke-linejoin="round"/>
<path d="M1086.9 220.319L1110.38 232.97L1103.26 246.174C1102.42 247.731 1101 248.89 1099.31 249.398C1097.61 249.905 1095.79 249.719 1094.23 248.88L1082.49 242.555C1080.94 241.716 1079.78 240.293 1079.27 238.599C1078.76 236.906 1078.95 235.08 1079.79 233.523L1086.9 220.319Z" stroke="#F2F2F2" stroke-width="2" stroke-linecap="round" stroke-linejoin="round"/>
<path d="M1098.31 213.211L1095.94 217.612" stroke="#F2F2F2" stroke-width="2" stroke-linecap="round" stroke-linejoin="round"/>
<path d="M1104.18 216.374L1101.8 220.775" stroke="#F2F2F2" stroke-width="2" stroke-linecap="round" stroke-linejoin="round"/>
<path d="M1110.04 219.537L1107.67 223.938" stroke="#F2F2F2" stroke-width="2" stroke-linecap="round" stroke-linejoin="round"/>
</g>
<g clip-path="url(#clip9)">
<path d="M991.594 97.7085L993.26 97.7549C995.027 97.8041 996.703 98.5534 997.918 99.8379C999.133 101.122 999.788 102.837 999.739 104.605C999.689 106.372 998.94 108.047 997.655 109.262C996.371 110.477 994.656 111.132 992.889 111.083L991.223 111.037" stroke="#F2F2F2" stroke-width="2" stroke-linecap="round" stroke-linejoin="round"/>
<path d="M964.938 96.9663L991.594 97.7085L991.177 112.703C991.127 114.47 990.378 116.146 989.094 117.361C987.809 118.575 986.094 119.23 984.327 119.181L970.999 118.81C969.231 118.761 967.556 118.012 966.341 116.727C965.126 115.443 964.471 113.728 964.52 111.96L964.938 96.9663Z" stroke="#F2F2F2" stroke-width="2" stroke-linecap="round" stroke-linejoin="round"/>
<path d="M971.927 85.4897L971.787 90.4878" stroke="#F2F2F2" stroke-width="2" stroke-linecap="round" stroke-linejoin="round"/>
<path d="M978.591 85.6753L978.451 90.6734" stroke="#F2F2F2" stroke-width="2" stroke-linecap="round" stroke-linejoin="round"/>
<path d="M985.255 85.8608L985.115 90.8589" stroke="#F2F2F2" stroke-width="2" stroke-linecap="round" stroke-linejoin="round"/>
</g>
<g clip-path="url(#clip10)">
<path d="M740.596 180.202L742.036 179.362C743.563 178.471 745.382 178.223 747.091 178.673C748.801 179.123 750.263 180.234 751.154 181.761C752.045 183.288 752.292 185.107 751.843 186.817C751.393 188.527 750.282 189.988 748.755 190.879L747.315 191.719" stroke="#F2F2F2" stroke-width="2" stroke-linecap="round" stroke-linejoin="round"/>
<path d="M717.563 193.641L740.596 180.202L748.155 193.158C749.046 194.685 749.294 196.504 748.844 198.214C748.394 199.924 747.284 201.385 745.756 202.276L734.24 208.995C732.713 209.886 730.894 210.134 729.184 209.684C727.474 209.235 726.013 208.124 725.122 206.597L717.563 193.641Z" stroke="#F2F2F2" stroke-width="2" stroke-linecap="round" stroke-linejoin="round"/>
<path d="M717.442 180.204L719.962 184.523" stroke="#F2F2F2" stroke-width="2" stroke-linecap="round" stroke-linejoin="round"/>
<path d="M723.2 176.844L725.72 181.163" stroke="#F2F2F2" stroke-width="2" stroke-linecap="round" stroke-linejoin="round"/>
<path d="M728.958 173.485L731.478 177.804" stroke="#F2F2F2" stroke-width="2" stroke-linecap="round" stroke-linejoin="round"/>
</g>
<path d="M85.318 241.667C88.9999 241.667 91.9847 238.682 91.9847 235C91.9847 231.318 88.9999 228.333 85.318 228.333C81.6361 228.333 78.6514 231.318 78.6514 235C78.6514 238.682 81.6361 241.667 85.318 241.667Z" stroke="#F2F2F2" stroke-width="2" stroke-linecap="round" stroke-linejoin="round"/>
<path d="M91.9847 228.333V236.667C91.9847 237.993 92.5115 239.265 93.4492 240.202C94.3869 241.14 95.6586 241.667 96.9847 241.667C98.3108 241.667 99.5826 241.14 100.52 240.202C101.458 239.265 101.985 237.993 101.985 236.667V235C101.984 231.238 100.712 227.588 98.3735 224.641C96.0352 221.694 92.769 219.625 89.1058 218.771C85.4426 217.916 81.5979 218.325 78.197 219.932C74.796 221.54 72.0387 224.25 70.3735 227.623C68.7082 230.996 68.233 234.833 69.025 238.51C69.817 242.188 71.8297 245.489 74.7358 247.877C77.6419 250.266 81.2704 251.601 85.0315 251.665C88.7926 251.73 92.4649 250.521 95.4514 248.233" stroke="#F2F2F2" stroke-width="2" stroke-linecap="round" stroke-linejoin="round"/>
<g clip-path="url(#clip11)">
<path d="M317.906 215.909C320.087 218.875 324.26 219.512 327.226 217.332C330.193 215.151 330.83 210.978 328.65 208.012C326.469 205.045 322.296 204.408 319.33 206.589C316.363 208.769 315.726 212.942 317.906 215.909Z" stroke="#F2F2F2" stroke-width="2" stroke-linecap="round" stroke-linejoin="round"/>
<path d="M332.598 213.383L325.884 218.319C324.815 219.104 324.102 220.282 323.902 221.593C323.702 222.904 324.031 224.24 324.816 225.309C325.601 226.377 326.779 227.09 328.09 227.29C329.401 227.491 330.738 227.162 331.806 226.376L333.149 225.389C336.18 223.161 338.368 219.973 339.357 216.344C340.346 212.715 340.079 208.858 338.598 205.4C337.118 201.942 334.511 199.087 331.201 197.298C327.892 195.51 324.075 194.894 320.371 195.549C316.667 196.205 313.294 198.095 310.8 200.911C308.306 203.727 306.838 207.304 306.635 211.06C306.432 214.816 307.505 218.531 309.68 221.599C311.856 224.668 315.005 226.911 318.617 227.963" stroke="#F2F2F2" stroke-width="2" stroke-linecap="round" stroke-linejoin="round"/>
</g>
<g clip-path="url(#clip12)">
<path d="M747.946 59.5274C751.021 57.5018 751.871 53.3673 749.846 50.2927C747.82 47.218 743.686 46.3676 740.611 48.3932C737.536 50.4187 736.686 54.5533 738.712 57.6279C740.737 60.7026 744.872 61.553 747.946 59.5274Z" stroke="#F2F2F2" stroke-width="2" stroke-linecap="round" stroke-linejoin="round"/>
<path d="M746.178 44.7255L750.763 51.6844C751.492 52.7918 752.632 53.564 753.931 53.8312C755.23 54.0984 756.581 53.8386 757.689 53.1091C758.796 52.3795 759.568 51.24 759.836 49.9411C760.103 48.6422 759.843 47.2904 759.113 46.183L758.197 44.7912C756.127 41.6501 753.056 39.3015 749.482 38.1273C745.908 36.9531 742.043 37.0223 738.513 38.3237C734.984 39.6251 731.999 42.0822 730.043 45.2953C728.087 48.5085 727.275 52.2888 727.74 56.0215C728.206 59.7543 729.92 63.22 732.604 65.8551C735.288 68.4902 738.785 70.1397 742.526 70.5354C746.267 70.9311 750.031 70.0497 753.208 68.0346C756.384 66.0195 758.785 62.9891 760.021 59.4362" stroke="#F2F2F2" stroke-width="2" stroke-linecap="round" stroke-linejoin="round"/>
</g>
<g clip-path="url(#clip13)">
<path d="M1118.69 127.272C1121.76 125.246 1122.62 121.111 1120.59 118.037C1118.56 114.962 1114.43 114.112 1111.35 116.137C1108.28 118.163 1107.43 122.297 1109.46 125.372C1111.48 128.447 1115.62 129.297 1118.69 127.272Z" stroke="#F2F2F2" stroke-width="2" stroke-linecap="round" stroke-linejoin="round"/>
<path d="M1116.92 112.47L1121.51 119.429C1122.24 120.536 1123.38 121.308 1124.67 121.575C1125.97 121.842 1127.33 121.583 1128.43 120.853C1129.54 120.124 1130.31 118.984 1130.58 117.685C1130.85 116.386 1130.59 115.035 1129.86 113.927L1128.94 112.535C1126.87 109.394 1123.8 107.046 1120.23 105.871C1116.65 104.697 1112.79 104.766 1109.26 106.068C1105.73 107.369 1102.74 109.826 1100.79 113.039C1098.83 116.253 1098.02 120.033 1098.48 123.766C1098.95 127.498 1100.66 130.964 1103.35 133.599C1106.03 136.234 1109.53 137.884 1113.27 138.279C1117.01 138.675 1120.78 137.794 1123.95 135.779C1127.13 133.764 1129.53 130.733 1130.76 127.18" stroke="#F2F2F2" stroke-width="2" stroke-linecap="round" stroke-linejoin="round"/>
</g>
<g clip-path="url(#clip14)">
<path d="M317.906 215.909C320.087 218.875 324.26 219.512 327.226 217.332C330.193 215.151 330.83 210.978 328.65 208.012C326.469 205.045 322.296 204.408 319.33 206.589C316.363 208.769 315.726 212.942 317.906 215.909Z" stroke="#F2F2F2" stroke-width="2" stroke-linecap="round" stroke-linejoin="round"/>
<path d="M332.598 213.383L325.884 218.319C324.815 219.104 324.102 220.282 323.902 221.593C323.702 222.904 324.031 224.24 324.816 225.309C325.601 226.377 326.779 227.09 328.09 227.29C329.401 227.491 330.738 227.162 331.806 226.376L333.149 225.389C336.18 223.161 338.368 219.973 339.357 216.344C340.346 212.715 340.079 208.858 338.598 205.4C337.118 201.942 334.511 199.087 331.201 197.298C327.892 195.51 324.075 194.894 320.371 195.549C316.667 196.205 313.294 198.095 310.8 200.911C308.306 203.727 306.838 207.304 306.635 211.06C306.432 214.816 307.505 218.531 309.68 221.599C311.856 224.668 315.005 226.911 318.617 227.963" stroke="#F2F2F2" stroke-width="2" stroke-linecap="round" stroke-linejoin="round"/>
</g>
<g clip-path="url(#clip15)">
<path d="M22.5659 112.116L33.8524 117.489C35.848 118.438 37.3845 120.142 38.1239 122.225C38.8633 124.308 38.745 126.599 37.7951 128.595L25.2591 154.93C25.9716 153.433 26.0603 151.715 25.5057 150.153C24.9512 148.591 23.7988 147.313 22.3021 146.6L9.13454 140.332L22.5659 112.116Z" stroke="#F2F2F2" stroke-width="2" stroke-linecap="round" stroke-linejoin="round"/>
<path d="M60.1878 130.025L48.9013 124.652C46.9057 123.702 44.6145 123.584 42.5317 124.323C40.4489 125.063 38.7452 126.599 37.7953 128.595L25.2593 154.93C25.9717 153.433 27.2496 152.281 28.8117 151.726C30.3737 151.172 32.0921 151.26 33.5888 151.973L46.7564 158.241L60.1878 130.025Z" stroke="#F2F2F2" stroke-width="2" stroke-linecap="round" stroke-linejoin="round"/>
</g>
<path d="M784.609 23.7866L797.108 23.6561C799.318 23.633 801.447 24.4888 803.026 26.0352C804.605 27.5816 805.505 29.692 805.528 31.902L805.833 61.067C805.815 59.4095 805.14 57.8268 803.956 56.667C802.772 55.5072 801.175 54.8653 799.518 54.8826L784.935 55.0349L784.609 23.7866Z" stroke="#F2F2F2" stroke-width="2" stroke-linecap="round" stroke-linejoin="round"/>
<path d="M826.273 23.3516L813.774 23.4821C811.564 23.5052 809.453 24.4052 807.907 25.9843C806.361 27.5633 805.505 29.692 805.528 31.902L805.832 61.067C805.815 59.4095 806.457 57.813 807.617 56.6288C808.777 55.4445 810.359 54.7694 812.017 54.7521L826.599 54.5999L826.273 23.3516Z" stroke="#F2F2F2" stroke-width="2" stroke-linecap="round" stroke-linejoin="round"/>
<path d="M1021.55 86.728L1034.05 86.5975C1036.26 86.5744 1038.39 87.4302 1039.97 88.9766C1041.55 90.523 1042.45 92.6334 1042.47 94.8434L1042.77 124.008C1042.76 122.351 1042.08 120.768 1040.9 119.608C1039.71 118.449 1038.12 117.807 1036.46 117.824L1021.88 117.976L1021.55 86.728Z" stroke="#F2F2F2" stroke-width="2" stroke-linecap="round" stroke-linejoin="round"/>
<path d="M1063.21 86.293L1050.71 86.4235C1048.5 86.4466 1046.39 87.3466 1044.85 88.9257C1043.3 90.5047 1042.45 92.6334 1042.47 94.8434L1042.77 124.008C1042.76 122.351 1043.4 120.754 1044.56 119.57C1045.72 118.386 1047.3 117.711 1048.96 117.694L1063.54 117.541L1063.21 86.293Z" stroke="#F2F2F2" stroke-width="2" stroke-linecap="round" stroke-linejoin="round"/>
<g clip-path="url(#clip16)">
<path d="M881.254 163.51L891.813 170.2C893.68 171.383 895 173.259 895.484 175.415C895.967 177.572 895.575 179.832 894.392 181.699L878.781 206.337C879.668 204.936 879.963 203.241 879.6 201.624C879.237 200.006 878.247 198.599 876.847 197.712L864.528 189.907L881.254 163.51Z" stroke="#F2F2F2" stroke-width="2" stroke-linecap="round" stroke-linejoin="round"/>
<path d="M916.45 185.81L905.891 179.12C904.024 177.937 901.764 177.544 899.607 178.028C897.451 178.512 895.575 179.832 894.392 181.699L878.781 206.337C879.668 204.936 881.075 203.946 882.693 203.583C884.31 203.221 886.005 203.515 887.406 204.402L899.724 212.208L916.45 185.81Z" stroke="#F2F2F2" stroke-width="2" stroke-linecap="round" stroke-linejoin="round"/>
</g>
<g clip-path="url(#clip17)">
<path d="M520.884 138.434L532.171 143.807C534.166 144.757 535.703 146.46 536.442 148.543C537.182 150.626 537.063 152.917 536.113 154.913L523.577 181.248C524.29 179.751 524.379 178.033 523.824 176.471C523.27 174.909 522.117 173.631 520.621 172.918L507.453 166.65L520.884 138.434Z" stroke="#F2F2F2" stroke-width="2" stroke-linecap="round" stroke-linejoin="round"/>
<path d="M558.506 156.343L547.22 150.97C545.224 150.02 542.933 149.902 540.85 150.641C538.767 151.381 537.064 152.917 536.114 154.913L523.578 181.248C524.29 179.751 525.568 178.599 527.13 178.044C528.692 177.49 530.411 177.579 531.907 178.291L545.075 184.559L558.506 156.343Z" stroke="#F2F2F2" stroke-width="2" stroke-linecap="round" stroke-linejoin="round"/>
</g>
<g clip-path="url(#clip18)">
<path d="M763.884 213.434L775.171 218.807C777.166 219.757 778.703 221.46 779.442 223.543C780.182 225.626 780.063 227.917 779.113 229.913L766.577 256.248C767.29 254.751 767.379 253.033 766.824 251.471C766.27 249.909 765.117 248.631 763.621 247.918L750.453 241.65L763.884 213.434Z" stroke="#F2F2F2" stroke-width="2" stroke-linecap="round" stroke-linejoin="round"/>
<path d="M801.506 231.343L790.22 225.97C788.224 225.02 785.933 224.902 783.85 225.641C781.767 226.381 780.064 227.917 779.114 229.913L766.578 256.248C767.29 254.751 768.568 253.599 770.13 253.044C771.692 252.49 773.411 252.579 774.907 253.291L788.075 259.559L801.506 231.343Z" stroke="#F2F2F2" stroke-width="2" stroke-linecap="round" stroke-linejoin="round"/>
</g>
<path d="M201.568 181.75C201.896 181.422 202.286 181.161 202.715 180.983C203.144 180.806 203.604 180.714 204.068 180.714C204.532 180.714 204.992 180.806 205.421 180.983C205.85 181.161 206.239 181.422 206.568 181.75C206.896 182.078 207.157 182.468 207.334 182.897C207.512 183.326 207.603 183.786 207.603 184.25C207.603 184.714 207.512 185.174 207.334 185.603C207.157 186.032 206.896 186.422 206.568 186.75L189.693 203.625L182.818 205.5L184.693 198.625L201.568 181.75Z" stroke="#F2F2F2" stroke-width="2" stroke-linecap="round" stroke-linejoin="round"/>
<path d="M295.568 233.75C295.896 233.422 296.286 233.161 296.715 232.983C297.144 232.806 297.604 232.714 298.068 232.714C298.532 232.714 298.992 232.806 299.421 232.983C299.85 233.161 300.239 233.422 300.568 233.75C300.896 234.078 301.157 234.468 301.334 234.897C301.512 235.326 301.603 235.786 301.603 236.25C301.603 236.714 301.512 237.174 301.334 237.603C301.157 238.032 300.896 238.422 300.568 238.75L283.693 255.625L276.818 257.5L278.693 250.625L295.568 233.75Z" stroke="#F2F2F2" stroke-width="2" stroke-linecap="round" stroke-linejoin="round"/>
<path d="M537.568 228.75C537.897 228.422 538.286 228.161 538.715 227.983C539.144 227.806 539.604 227.714 540.068 227.714C540.533 227.714 540.992 227.806 541.421 227.983C541.85 228.161 542.24 228.422 542.568 228.75C542.897 229.078 543.157 229.468 543.335 229.897C543.512 230.326 543.604 230.786 543.604 231.25C543.604 231.714 543.512 232.174 543.335 232.603C543.157 233.032 542.897 233.422 542.568 233.75L525.693 250.625L518.818 252.5L520.693 245.625L537.568 228.75Z" stroke="#F2F2F2" stroke-width="2" stroke-linecap="round" stroke-linejoin="round"/>
<path d="M854.568 55.7499C854.897 55.4216 855.286 55.1612 855.715 54.9835C856.144 54.8058 856.604 54.7144 857.068 54.7144C857.533 54.7144 857.992 54.8058 858.421 54.9835C858.85 55.1612 859.24 55.4216 859.568 55.7499C859.897 56.0782 860.157 56.4679 860.335 56.8969C860.512 57.3258 860.604 57.7856 860.604 58.2499C860.604 58.7142 860.512 59.1739 860.335 59.6029C860.157 60.0318 859.897 60.4216 859.568 60.7499L842.693 77.6249L835.818 79.4998L837.693 72.6249L854.568 55.7499Z" stroke="#F2F2F2" stroke-width="2" stroke-linecap="round" stroke-linejoin="round"/>
<path d="M707.568 228.75C707.897 228.422 708.286 228.161 708.715 227.983C709.144 227.806 709.604 227.714 710.068 227.714C710.533 227.714 710.992 227.806 711.421 227.983C711.85 228.161 712.24 228.422 712.568 228.75C712.897 229.078 713.157 229.468 713.335 229.897C713.512 230.326 713.604 230.786 713.604 231.25C713.604 231.714 713.512 232.174 713.335 232.603C713.157 233.032 712.897 233.422 712.568 233.75L695.693 250.625L688.818 252.5L690.693 245.625L707.568 228.75Z" stroke="#F2F2F2" stroke-width="2" stroke-linecap="round" stroke-linejoin="round"/>
<path d="M701.568 70.7499C701.897 70.4216 702.286 70.1612 702.715 69.9835C703.144 69.8058 703.604 69.7144 704.068 69.7144C704.533 69.7144 704.992 69.8058 705.421 69.9835C705.85 70.1612 706.24 70.4216 706.568 70.7499C706.897 71.0782 707.157 71.4679 707.335 71.8969C707.512 72.3258 707.604 72.7856 707.604 73.2499C707.604 73.7142 707.512 74.1739 707.335 74.6029C707.157 75.0318 706.897 75.4216 706.568 75.7499L689.693 92.6249L682.818 94.4998L684.693 87.6249L701.568 70.7499Z" stroke="#F2F2F2" stroke-width="2" stroke-linecap="round" stroke-linejoin="round"/>
<g clip-path="url(#clip19)">
<path d="M81.9172 191.48L75.3574 180.84C72.7477 176.607 71.9265 171.51 73.0743 166.672C74.2222 161.833 77.2452 157.649 81.4782 155.039C85.7112 152.43 90.8075 151.608 95.646 152.756C100.485 153.904 104.669 156.927 107.279 161.16L113.838 171.801" stroke="#F2F2F2" stroke-width="2" stroke-linecap="round" stroke-linejoin="round"/>
<path d="M114.932 173.574C115.512 174.515 115.694 175.647 115.439 176.722C115.184 177.798 114.512 178.727 113.572 179.307L111.798 180.401C110.857 180.981 109.725 181.163 108.65 180.908C107.574 180.653 106.645 179.981 106.065 179.04L102.785 173.72C102.205 172.78 102.022 171.647 102.277 170.572C102.533 169.497 103.204 168.567 104.145 167.987L109.465 164.707L114.932 173.574ZM83.0105 193.253C83.5904 194.194 84.5203 194.866 85.5955 195.121C86.6707 195.376 87.8032 195.194 88.7439 194.614L90.5173 193.52C91.458 192.94 92.1298 192.011 92.3848 190.935C92.6399 189.86 92.4574 188.728 91.8775 187.787L88.5976 182.467C88.0176 181.526 87.0878 180.854 86.0126 180.599C84.9373 180.344 83.8048 180.527 82.8641 181.107L77.5439 184.386L83.0105 193.253Z" stroke="#F2F2F2" stroke-width="2" stroke-linecap="round" stroke-linejoin="round"/>
</g>
<g clip-path="url(#clip20)">
<path d="M447.318 267.881L440.758 257.24C438.148 253.007 437.327 247.911 438.475 243.073C439.623 238.234 442.646 234.05 446.879 231.44C451.112 228.83 456.208 228.009 461.046 229.157C465.885 230.305 470.069 233.328 472.679 237.561L479.239 248.201" stroke="#F2F2F2" stroke-width="2" stroke-linecap="round" stroke-linejoin="round"/>
<path d="M480.332 249.975C480.912 250.915 481.095 252.048 480.839 253.123C480.584 254.198 479.913 255.128 478.972 255.708L477.199 256.801C476.258 257.381 475.125 257.564 474.05 257.309C472.975 257.054 472.045 256.382 471.465 255.441L468.185 250.121C467.605 249.18 467.423 248.048 467.678 246.972C467.933 245.897 468.605 244.967 469.545 244.387L474.866 241.108L480.332 249.975ZM448.411 269.654C448.991 270.595 449.921 271.267 450.996 271.522C452.071 271.777 453.204 271.594 454.144 271.014L455.918 269.921C456.858 269.341 457.53 268.411 457.785 267.336C458.04 266.261 457.858 265.128 457.278 264.188L453.998 258.867C453.418 257.927 452.488 257.255 451.413 257C450.338 256.745 449.205 256.927 448.265 257.507L442.944 260.787L448.411 269.654Z" stroke="#F2F2F2" stroke-width="2" stroke-linecap="round" stroke-linejoin="round"/>
</g>
<g clip-path="url(#clip21)">
<path d="M974.617 220.278L981.802 210.05C984.661 205.981 989.019 203.213 993.917 202.357C998.816 201.501 1003.85 202.626 1007.92 205.484C1011.99 208.343 1014.76 212.701 1015.62 217.599C1016.47 222.498 1015.35 227.536 1012.49 231.605L1005.3 241.834" stroke="#F2F2F2" stroke-width="2" stroke-linecap="round" stroke-linejoin="round"/>
<path d="M1004.11 243.538C1003.47 244.443 1002.5 245.057 1001.41 245.248C1000.33 245.438 999.206 245.188 998.301 244.553L996.596 243.355C995.692 242.72 995.077 241.752 994.887 240.663C994.697 239.575 994.947 238.455 995.582 237.551L999.174 232.436C999.81 231.532 1000.78 230.917 1001.87 230.727C1002.96 230.537 1004.07 230.787 1004.98 231.422L1010.09 235.014L1004.11 243.538ZM973.42 221.983C972.785 222.887 972.535 224.007 972.725 225.095C972.915 226.184 973.53 227.152 974.434 227.788L976.139 228.985C977.043 229.62 978.163 229.87 979.252 229.68C980.34 229.49 981.309 228.875 981.944 227.971L985.536 222.856C986.172 221.952 986.421 220.832 986.231 219.744C986.041 218.655 985.426 217.687 984.522 217.052L979.407 213.459L973.42 221.983Z" stroke="#F2F2F2" stroke-width="2" stroke-linecap="round" stroke-linejoin="round"/>
</g>
<g clip-path="url(#clip22)">
<path d="M879.318 106.881L872.758 96.2404C870.149 92.0074 869.327 86.911 870.475 82.0725C871.623 77.234 874.646 73.0497 878.879 70.44C883.112 67.8303 888.208 67.0091 893.047 68.157C897.885 69.3048 902.07 72.3278 904.679 76.5608L911.239 87.2012" stroke="#F2F2F2" stroke-width="2" stroke-linecap="round" stroke-linejoin="round"/>
<path d="M912.333 88.9745C912.913 89.9152 913.095 91.0477 912.84 92.1229C912.585 93.1982 911.913 94.128 910.972 94.708L909.199 95.8013C908.258 96.3812 907.126 96.5637 906.051 96.3086C904.975 96.0535 904.046 95.3818 903.466 94.4411L900.186 89.1209C899.606 88.1802 899.423 87.0477 899.678 85.9725C899.933 84.8972 900.605 83.9674 901.546 83.3875L906.866 80.1075L912.333 88.9745ZM880.411 108.654C880.991 109.595 881.921 110.267 882.996 110.522C884.072 110.777 885.204 110.594 886.145 110.014L887.918 108.921C888.859 108.341 889.531 107.411 889.786 106.336C890.041 105.261 889.858 104.128 889.278 103.188L885.998 97.8674C885.419 96.9267 884.489 96.2549 883.413 95.9998C882.338 95.7448 881.206 95.9273 880.265 96.5072L874.945 99.7871L880.411 108.654Z" stroke="#F2F2F2" stroke-width="2" stroke-linecap="round" stroke-linejoin="round"/>
</g>
<g clip-path="url(#clip23)">
<path d="M644.493 189.577L651.487 179.217C654.269 175.096 658.575 172.249 663.457 171.302C668.339 170.355 673.397 171.386 677.518 174.168C681.64 176.951 684.487 181.257 685.434 186.139C686.381 191.02 685.35 196.078 682.567 200.2L675.573 210.56" stroke="#F2F2F2" stroke-width="2" stroke-linecap="round" stroke-linejoin="round"/>
<path d="M674.407 212.287C673.789 213.202 672.832 213.835 671.747 214.046C670.662 214.256 669.538 214.027 668.622 213.409L666.896 212.243C665.98 211.625 665.347 210.668 665.137 209.583C664.926 208.498 665.155 207.374 665.774 206.458L669.271 201.278C669.889 200.362 670.846 199.729 671.931 199.519C673.016 199.309 674.14 199.538 675.056 200.156L680.236 203.653L674.407 212.287ZM643.327 191.304C642.708 192.22 642.479 193.344 642.69 194.429C642.9 195.514 643.533 196.471 644.449 197.089L646.175 198.255C647.091 198.873 648.215 199.102 649.3 198.892C650.385 198.681 651.342 198.048 651.96 197.133L655.457 191.952C656.076 191.037 656.305 189.913 656.094 188.828C655.884 187.743 655.251 186.786 654.335 186.168L649.155 182.671L643.327 191.304Z" stroke="#F2F2F2" stroke-width="2" stroke-linecap="round" stroke-linejoin="round"/>
</g>
<path d="M35.3177 208.25C43.3719 208.25 49.901 201.721 49.901 193.667C49.901 185.612 43.3719 179.083 35.3177 179.083C27.2636 179.083 20.7344 185.612 20.7344 193.667C20.7344 201.721 27.2636 208.25 35.3177 208.25Z" stroke="#F2F2F2" stroke-width="2" stroke-linecap="round" stroke-linejoin="round"/>
<path d="M27.4222 205.938L24.9014 224.917L35.318 218.667L45.7347 224.917L43.2139 205.917" stroke="#F2F2F2" stroke-width="2" stroke-linecap="round" stroke-linejoin="round"/>
<path d="M126.651 223.625C126.651 222.244 127.2 220.919 128.177 219.942C129.154 218.965 130.478 218.417 131.86 218.417H159.985" stroke="#F2F2F2" stroke-width="2" stroke-linecap="round" stroke-linejoin="round"/>
<path d="M131.86 187.167H159.985V228.833H131.86C130.478 228.833 129.154 228.285 128.177 227.308C127.2 226.331 126.651 225.006 126.651 223.625V192.375C126.651 190.994 127.2 189.669 128.177 188.692C129.154 187.715 130.478 187.167 131.86 187.167V187.167Z" stroke="#F2F2F2" stroke-width="2" stroke-linecap="round" stroke-linejoin="round"/>
<g clip-path="url(#clip24)">
<path d="M767.754 158.698C768.898 157.923 770.302 157.634 771.659 157.894C773.015 158.154 774.213 158.942 774.988 160.086L790.774 183.363" stroke="#F2F2F2" stroke-width="2" stroke-linecap="round" stroke-linejoin="round"/>
<path d="M800.852 142.546L816.638 165.823L782.153 189.21L766.367 165.932C765.592 164.789 765.303 163.385 765.563 162.028C765.823 160.672 766.611 159.474 767.755 158.699L793.618 141.159C794.761 140.384 796.166 140.094 797.522 140.354C798.879 140.615 800.077 141.403 800.852 142.546V142.546Z" stroke="#F2F2F2" stroke-width="2" stroke-linecap="round" stroke-linejoin="round"/>
</g>
<g clip-path="url(#clip25)">
<path d="M988.692 178.54C988.518 177.17 988.896 175.787 989.742 174.695C990.589 173.603 991.834 172.892 993.204 172.719L1021.11 169.183" stroke="#F2F2F2" stroke-width="2" stroke-linecap="round" stroke-linejoin="round"/>
<path d="M989.276 141.717L1017.18 138.181L1022.42 179.517L994.514 183.053C993.143 183.226 991.76 182.849 990.668 182.002C989.577 181.156 988.866 179.911 988.692 178.54L984.764 147.538C984.59 146.168 984.968 144.785 985.814 143.693C986.66 142.601 987.906 141.89 989.276 141.717V141.717Z" stroke="#F2F2F2" stroke-width="2" stroke-linecap="round" stroke-linejoin="round"/>
</g>
<g clip-path="url(#clip26)">
<path d="M938.074 78.9591C937.176 77.91 936.731 76.5469 936.837 75.1697C936.944 73.7924 937.593 72.5139 938.642 71.6153L960.003 53.3197" stroke="#F2F2F2" stroke-width="2" stroke-linecap="round" stroke-linejoin="round"/>
<path d="M918.313 47.8812L939.674 29.5856L966.779 61.2313L945.418 79.5269C944.369 80.4255 943.006 80.8705 941.629 80.764C940.251 80.6576 938.973 80.0084 938.074 78.9593L917.746 55.225C916.847 54.1759 916.402 52.8128 916.509 51.4355C916.615 50.0583 917.264 48.7798 918.313 47.8812V47.8812Z" stroke="#F2F2F2" stroke-width="2" stroke-linecap="round" stroke-linejoin="round"/>
</g>
<g clip-path="url(#clip27)">
<path d="M989.36 53.9629C989.052 53.6151 988.816 53.2102 988.665 52.7712C988.514 52.3322 988.45 51.8677 988.479 51.4043C988.507 50.9409 988.627 50.4876 988.83 50.0703C989.034 49.653 989.317 49.2799 989.665 48.9722C990.013 48.6646 990.418 48.4285 990.857 48.2774C991.296 48.1262 991.76 48.063 992.224 48.0914C992.687 48.1198 993.14 48.2392 993.558 48.4427C993.975 48.6463 994.348 48.93 994.656 49.2778L1010.47 67.1524L1011.92 74.1291L1005.17 71.8375L989.36 53.9629Z" stroke="#F2F2F2" stroke-width="2" stroke-linecap="round" stroke-linejoin="round"/>
</g>
<g clip-path="url(#clip28)">
<path d="M373.913 255.925C373.021 254.87 372.585 253.504 372.7 252.128C372.815 250.751 373.472 249.477 374.527 248.585L396.003 230.425" stroke="#F2F2F2" stroke-width="2" stroke-linecap="round" stroke-linejoin="round"/>
<path d="M354.349 224.723L375.825 206.562L402.729 238.379L381.253 256.539C380.198 257.431 378.832 257.867 377.456 257.752C376.079 257.637 374.805 256.98 373.913 255.925L353.735 232.063C352.843 231.008 352.406 229.642 352.521 228.266C352.637 226.889 353.294 225.615 354.349 224.723V224.723Z" stroke="#F2F2F2" stroke-width="2" stroke-linecap="round" stroke-linejoin="round"/>
</g>
<g clip-path="url(#clip29)">
<path d="M636.913 136.925C636.021 135.87 635.585 134.504 635.7 133.128C635.815 131.751 636.473 130.477 637.527 129.585L659.003 111.425" stroke="#F2F2F2" stroke-width="2" stroke-linecap="round" stroke-linejoin="round"/>
<path d="M617.349 105.723L638.825 87.5624L665.729 119.379L644.253 137.539C643.198 138.431 641.833 138.867 640.456 138.752C639.08 138.637 637.805 137.98 636.913 136.925L616.735 113.063C615.843 112.008 615.407 110.642 615.522 109.266C615.637 107.889 616.294 106.615 617.349 105.723V105.723Z" stroke="#F2F2F2" stroke-width="2" stroke-linecap="round" stroke-linejoin="round"/>
</g>
<g clip-path="url(#clip30)">
<path d="M569.221 193.725L587.425 205.465C589.655 206.903 591.222 209.168 591.782 211.762C592.342 214.356 591.849 217.066 590.41 219.296C588.972 221.526 586.707 223.094 584.113 223.654C581.519 224.214 578.809 223.72 576.579 222.282L558.375 210.542C556.889 209.583 555.844 208.073 555.47 206.344C555.097 204.615 555.426 202.808 556.385 201.321C557.344 199.834 558.854 198.79 560.583 198.416C562.312 198.043 564.119 198.372 565.606 199.331L583.813 211.087C584.556 211.566 585.079 212.321 585.265 213.186C585.452 214.051 585.288 214.954 584.808 215.697C584.329 216.441 583.574 216.963 582.709 217.15C581.845 217.336 580.941 217.172 580.198 216.693L563.397 205.843" stroke="#F2F2F2" stroke-width="2" stroke-linecap="round" stroke-linejoin="round"/>
</g>
<g clip-path="url(#clip31)">
<path d="M874.22 15.725L892.424 27.4648C894.654 28.903 896.222 31.1682 896.782 33.7621C897.342 36.356 896.848 39.0661 895.41 41.2962C893.972 43.5263 891.707 45.0937 889.113 45.6537C886.519 46.2136 883.809 45.7202 881.579 44.282L863.375 32.5421C861.888 31.5833 860.843 30.0732 860.47 28.3439C860.097 26.6147 860.425 24.8079 861.384 23.3212C862.343 21.8345 863.853 20.7895 865.582 20.4162C867.312 20.0429 869.118 20.3719 870.605 21.3307L888.812 33.0868C889.556 33.5662 890.078 34.3213 890.265 35.1859C890.452 36.0505 890.287 36.9539 889.808 37.6973C889.328 38.4406 888.573 38.9631 887.709 39.1498C886.844 39.3364 885.941 39.1719 885.197 38.6925L868.396 27.8434" stroke="#F2F2F2" stroke-width="2" stroke-linecap="round" stroke-linejoin="round"/>
</g>
<g clip-path="url(#clip32)">
<path d="M828.221 194.725L846.425 206.465C848.655 207.903 850.222 210.168 850.782 212.762C851.342 215.356 850.849 218.066 849.41 220.296C847.972 222.526 845.707 224.094 843.113 224.654C840.519 225.214 837.809 224.72 835.579 223.282L817.375 211.542C815.889 210.583 814.844 209.073 814.47 207.344C814.097 205.615 814.426 203.808 815.385 202.321C816.344 200.834 817.854 199.79 819.583 199.416C821.312 199.043 823.119 199.372 824.606 200.331L842.813 212.087C843.556 212.566 844.079 213.321 844.265 214.186C844.452 215.051 844.288 215.954 843.808 216.697C843.329 217.441 842.574 217.963 841.709 218.15C840.845 218.336 839.941 218.172 839.198 217.693L822.397 206.843" stroke="#F2F2F2" stroke-width="2" stroke-linecap="round" stroke-linejoin="round"/>
</g>
<g clip-path="url(#clip33)">
<path d="M1038.22 244.725L1056.42 256.465C1058.65 257.903 1060.22 260.168 1060.78 262.762C1061.34 265.356 1060.85 268.066 1059.41 270.296C1057.97 272.526 1055.71 274.094 1053.11 274.654C1050.52 275.214 1047.81 274.72 1045.58 273.282L1027.37 261.542C1025.89 260.583 1024.84 259.073 1024.47 257.344C1024.1 255.615 1024.43 253.808 1025.38 252.321C1026.34 250.834 1027.85 249.79 1029.58 249.416C1031.31 249.043 1033.12 249.372 1034.61 250.331L1052.81 262.087C1053.56 262.566 1054.08 263.321 1054.26 264.186C1054.45 265.051 1054.29 265.954 1053.81 266.697C1053.33 267.441 1052.57 267.963 1051.71 268.15C1050.84 268.336 1049.94 268.172 1049.2 267.693L1032.4 256.843" stroke="#F2F2F2" stroke-width="2" stroke-linecap="round" stroke-linejoin="round"/>
</g>
<g clip-path="url(#clip34)">
<path d="M949.22 163.725L967.424 175.465C969.654 176.903 971.222 179.168 971.782 181.762C972.342 184.356 971.848 187.066 970.41 189.296C968.972 191.526 966.707 193.094 964.113 193.654C961.519 194.214 958.809 193.72 956.579 192.282L938.375 180.542C936.888 179.583 935.843 178.073 935.47 176.344C935.097 174.615 935.425 172.808 936.384 171.321C937.343 169.834 938.853 168.79 940.582 168.416C942.312 168.043 944.118 168.372 945.605 169.331L963.812 181.087C964.556 181.566 965.078 182.321 965.265 183.186C965.452 184.051 965.287 184.954 964.808 185.697C964.328 186.441 963.573 186.963 962.709 187.15C961.844 187.336 960.941 187.172 960.197 186.693L943.396 175.843" stroke="#F2F2F2" stroke-width="2" stroke-linecap="round" stroke-linejoin="round"/>
</g>
<path d="M624.318 167C624.318 167.884 623.967 168.732 623.342 169.357C622.717 169.982 621.869 170.333 620.985 170.333H600.985L594.318 177V150.333C594.318 149.449 594.67 148.601 595.295 147.976C595.92 147.351 596.768 147 597.652 147H620.985C621.869 147 622.717 147.351 623.342 147.976C623.967 148.601 624.318 149.449 624.318 150.333V167Z" stroke="#F2F2F2" stroke-width="2" stroke-linecap="round" stroke-linejoin="round"/>
<path d="M1089.37 148.444C1089.87 149.171 1090.07 150.068 1089.91 150.937C1089.75 151.807 1089.25 152.579 1088.52 153.082L1072.08 164.466L1070.39 173.742L1055.22 151.817C1054.71 151.09 1054.52 150.193 1054.68 149.323C1054.83 148.453 1055.33 147.682 1056.06 147.179L1075.24 133.897C1075.97 133.394 1076.87 133.2 1077.74 133.358C1078.61 133.516 1079.38 134.014 1079.88 134.741L1089.37 148.444Z" stroke="#F2F2F2" stroke-width="2" stroke-linecap="round" stroke-linejoin="round"/>
<path d="M765.318 114C765.318 114.884 764.967 115.732 764.342 116.357C763.717 116.982 762.869 117.333 761.985 117.333H741.985L735.318 124V97.3333C735.318 96.4493 735.67 95.6014 736.295 94.9763C736.92 94.3512 737.768 94 738.652 94H761.985C762.869 94 763.717 94.3512 764.342 94.9763C764.967 95.6014 765.318 96.4493 765.318 97.3333V114Z" stroke="#F2F2F2" stroke-width="2" stroke-linecap="round" stroke-linejoin="round"/>
<path d="M651.318 249C651.318 250.061 650.897 251.078 650.147 251.828C649.397 252.579 648.379 253 647.318 253H615.318C614.257 253 613.24 252.579 612.49 251.828C611.74 251.078 611.318 250.061 611.318 249V221C611.318 219.939 611.74 218.922 612.49 218.172C613.24 217.421 614.257 217 615.318 217H625.318L629.318 223H647.318C648.379 223 649.397 223.421 650.147 224.172C650.897 224.922 651.318 225.939 651.318 227V249Z" stroke="#F2F2F2" stroke-width="2" stroke-linecap="round" stroke-linejoin="round"/>
<path d="M813.979 126.434C813.353 127.291 812.412 127.864 811.364 128.027C810.316 128.19 809.246 127.931 808.389 127.305L782.548 108.43C781.692 107.805 781.118 106.864 780.955 105.816C780.792 104.768 781.052 103.698 781.677 102.841L798.192 80.2301C798.818 79.3734 799.759 78.8004 800.807 78.6371C801.855 78.4738 802.925 78.7336 803.782 79.3593L811.857 85.2575L811.548 92.462L826.084 103.079C826.941 103.705 827.514 104.645 827.677 105.693C827.84 106.741 827.58 107.812 826.955 108.668L813.979 126.434Z" stroke="#F2F2F2" stroke-width="2" stroke-linecap="round" stroke-linejoin="round"/>
<path d="M1128.98 204.434C1128.35 205.291 1127.41 205.864 1126.36 206.027C1125.32 206.19 1124.25 205.931 1123.39 205.305L1097.55 186.43C1096.69 185.805 1096.12 184.864 1095.96 183.816C1095.79 182.768 1096.05 181.698 1096.68 180.841L1113.19 158.23C1113.82 157.373 1114.76 156.8 1115.81 156.637C1116.86 156.474 1117.93 156.734 1118.78 157.359L1126.86 163.258L1126.55 170.462L1141.08 181.079C1141.94 181.705 1142.51 182.645 1142.68 183.693C1142.84 184.741 1142.58 185.812 1141.95 186.668L1128.98 204.434Z" stroke="#F2F2F2" stroke-width="2" stroke-linecap="round" stroke-linejoin="round"/>
<path d="M950.842 247.604C951.008 248.652 950.752 249.723 950.129 250.581C949.505 251.44 948.567 252.015 947.519 252.182L915.915 257.201C914.867 257.367 913.796 257.111 912.938 256.487C912.079 255.864 911.503 254.925 911.337 253.878L906.945 226.224C906.779 225.176 907.036 224.106 907.659 223.247C908.282 222.388 909.221 221.813 910.269 221.646L920.145 220.078L925.036 225.376L942.814 222.553C943.861 222.387 944.932 222.643 945.791 223.267C946.649 223.89 947.225 224.829 947.391 225.876L950.842 247.604Z" stroke="#F2F2F2" stroke-width="2" stroke-linecap="round" stroke-linejoin="round"/>
<path d="M699.318 144.25C707.372 144.25 713.902 137.721 713.902 129.667C713.902 121.612 707.372 115.083 699.318 115.083C691.264 115.083 684.735 121.612 684.735 129.667C684.735 137.721 691.264 144.25 699.318 144.25Z" stroke="#F2F2F2" stroke-width="2" stroke-linecap="round" stroke-linejoin="round"/>
<path d="M691.423 141.938L688.902 160.917L699.319 154.667L709.735 160.917L707.214 141.917" stroke="#F2F2F2" stroke-width="2" stroke-linecap="round" stroke-linejoin="round"/>
<defs>
<linearGradient id="paint0_linear" x1="576.318" y1="0" x2="576.318" y2="264" gradientUnits="userSpaceOnUse">
<stop stop-color="#0073FC"/>
<stop offset="1" stop-color="#0073FC" stop-opacity="0"/>
</linearGradient>
<clipPath id="clip0">
<rect width="40" height="40" fill="white" transform="translate(194.708 214.278) rotate(33.559)"/>
</clipPath>
<clipPath id="clip1">
<rect width="50" height="50" fill="white" transform="translate(224.318 193)"/>
</clipPath>
<clipPath id="clip2">
<rect width="50" height="50" fill="white" transform="translate(224.318 193)"/>
</clipPath>
<clipPath id="clip3">
<rect width="50" height="50" fill="white" transform="translate(224.318 193)"/>
</clipPath>
<clipPath id="clip4">
<rect width="50" height="50" fill="white" transform="translate(422.857 164) rotate(28.0853)"/>
</clipPath>
<clipPath id="clip5">
<rect width="50" height="50" fill="white" transform="translate(850.587 291.807) rotate(-125.83)"/>
</clipPath>
<clipPath id="clip6">
<rect width="50" height="50" fill="white" transform="translate(938.734 102.641) rotate(72.8422)"/>
</clipPath>
<clipPath id="clip7">
<rect width="40" height="40" fill="white" transform="translate(841.2 110.906) rotate(28.3214)"/>
</clipPath>
<clipPath id="clip8">
<rect width="40" height="40" fill="white" transform="translate(1090.29 207) rotate(28.3214)"/>
</clipPath>
<clipPath id="clip9">
<rect width="40" height="40" fill="white" transform="translate(961.977 83.5454) rotate(1.59477)"/>
</clipPath>
<clipPath id="clip10">
<rect width="40" height="40" fill="white" transform="translate(707.965 183.804) rotate(-30.261)"/>
</clipPath>
<clipPath id="clip11">
<rect width="40" height="40" fill="white" transform="translate(327.548 184) rotate(53.6827)"/>
</clipPath>
<clipPath id="clip12">
<rect width="40" height="40" fill="white" transform="translate(716.574 48.2617) rotate(-33.3769)"/>
</clipPath>
<clipPath id="clip13">
<rect width="40" height="40" fill="white" transform="translate(1087.32 116.006) rotate(-33.3769)"/>
</clipPath>
<clipPath id="clip14">
<rect width="40" height="40" fill="white" transform="translate(327.548 184) rotate(53.6827)"/>
</clipPath>
<clipPath id="clip15">
<rect width="50" height="50" fill="white" transform="translate(21.4902 104.682) rotate(25.4551)"/>
</clipPath>
<clipPath id="clip16">
<rect width="50" height="50" fill="white" transform="translate(881.079 156) rotate(32.3587)"/>
</clipPath>
<clipPath id="clip17">
<rect width="50" height="50" fill="white" transform="translate(519.809 131) rotate(25.4551)"/>
</clipPath>
<clipPath id="clip18">
<rect width="50" height="50" fill="white" transform="translate(762.809 206) rotate(25.4551)"/>
</clipPath>
<clipPath id="clip19">
<rect width="50" height="50" fill="white" transform="translate(56.9175 162.839) rotate(-31.654)"/>
</clipPath>
<clipPath id="clip20">
<rect width="50" height="50" fill="white" transform="translate(422.318 239.24) rotate(-31.654)"/>
</clipPath>
<clipPath id="clip21">
<rect width="50" height="50" fill="white" transform="translate(991.058 186) rotate(35.086)"/>
</clipPath>
<clipPath id="clip22">
<rect width="50" height="50" fill="white" transform="translate(854.318 78.2395) rotate(-31.654)"/>
</clipPath>
<clipPath id="clip23">
<rect width="50" height="50" fill="white" transform="translate(660.295 155) rotate(34.0235)"/>
</clipPath>
<clipPath id="clip24">
<rect width="50" height="50" fill="white" transform="translate(796.7 129) rotate(55.8564)"/>
</clipPath>
<clipPath id="clip25">
<rect width="50" height="50" fill="white" transform="translate(975.318 139.285) rotate(-7.22131)"/>
</clipPath>
<clipPath id="clip26">
<rect width="50" height="50" fill="white" transform="translate(905.318 53.5256) rotate(-40.5802)"/>
</clipPath>
<clipPath id="clip27">
<rect width="30" height="30" fill="white" transform="translate(984.318 74.9438) rotate(-86.4965)"/>
</clipPath>
<clipPath id="clip28">
<rect width="50" height="50" fill="white" transform="translate(341.318 230.285) rotate(-40.2182)"/>
</clipPath>
<clipPath id="clip29">
<rect width="50" height="50" fill="white" transform="translate(604.318 111.285) rotate(-40.2182)"/>
</clipPath>
<clipPath id="clip30">
<rect width="40" height="40" fill="white" transform="translate(558.759 232.54) rotate(-102.182)"/>
</clipPath>
<clipPath id="clip31">
<rect width="40" height="40" fill="white" transform="translate(863.759 54.5398) rotate(-102.182)"/>
</clipPath>
<clipPath id="clip32">
<rect width="40" height="40" fill="white" transform="translate(817.759 233.54) rotate(-102.182)"/>
</clipPath>
<clipPath id="clip33">
<rect width="40" height="40" fill="white" transform="translate(1027.76 283.54) rotate(-102.182)"/>
</clipPath>
<clipPath id="clip34">
<rect width="40" height="40" fill="white" transform="translate(938.759 202.54) rotate(-102.182)"/>
</clipPath>
</defs>
</svg>
