<svg width="1152" height="238" viewBox="0 0 1152 238" fill="none" xmlns="http://www.w3.org/2000/svg">
<path fill-rule="evenodd" clip-rule="evenodd" d="M-10.6821 84L37.3179 108C85.3179 132 181.318 180 277.318 186C373.318 192 469.318 156 565.318 108C661.318 60 757.318 0 853.318 0C949.318 0 1045.32 60 1093.32 90L1141.32 120V264H1093.32C1045.32 264 949.318 264 853.318 264C757.318 264 661.318 264 565.318 264C469.318 264 373.318 264 277.318 264C181.318 264 85.3179 264 37.3179 264H-10.6821V84Z" fill="url(#paint0_linear)"/>
<g clip-path="url(#clip0)">
<path d="M179.115 227.231L201.337 241.973L193.045 254.472C192.067 255.946 190.545 256.971 188.812 257.321C187.079 257.672 185.277 257.32 183.804 256.343L172.693 248.972C171.22 247.995 170.195 246.472 169.844 244.739C169.493 243.006 169.845 241.205 170.823 239.731L179.115 227.231Z" stroke="#F2F2F2" stroke-width="2" stroke-linecap="round" stroke-linejoin="round"/>
<path d="M191.119 221.195L188.355 225.361" stroke="#F2F2F2" stroke-width="2" stroke-linecap="round" stroke-linejoin="round"/>
<path d="M196.675 224.88L193.911 229.046" stroke="#F2F2F2" stroke-width="2" stroke-linecap="round" stroke-linejoin="round"/>
<path d="M202.23 228.565L199.466 232.732" stroke="#F2F2F2" stroke-width="2" stroke-linecap="round" stroke-linejoin="round"/>
</g>
<path d="M217.484 199.25H229.984C232.195 199.25 234.314 200.128 235.877 201.691C237.44 203.254 238.318 205.373 238.318 207.583V236.75C238.318 235.092 237.659 233.503 236.487 232.331C235.315 231.158 233.725 230.5 232.068 230.5H217.484V199.25Z" stroke="#F2F2F2" stroke-width="2" stroke-linecap="round" stroke-linejoin="round"/>
<path d="M259.151 199.25H246.651C244.441 199.25 242.321 200.128 240.759 201.691C239.196 203.254 238.318 205.373 238.318 207.583V236.75C238.318 235.092 238.976 233.503 240.148 232.331C241.321 231.158 242.91 230.5 244.568 230.5H259.151V199.25Z" stroke="#F2F2F2" stroke-width="2" stroke-linecap="round" stroke-linejoin="round"/>
<g clip-path="url(#clip1)">
<path d="M217.484 199.25H229.984C232.195 199.25 234.314 200.128 235.877 201.691C237.44 203.254 238.318 205.373 238.318 207.583V236.75C238.318 235.092 237.659 233.503 236.487 232.331C235.315 231.158 233.725 230.5 232.068 230.5H217.484V199.25Z" stroke="#F2F2F2" stroke-width="2" stroke-linecap="round" stroke-linejoin="round"/>
</g>
<g clip-path="url(#clip2)">
<path d="M217.484 199.25H229.984C232.195 199.25 234.314 200.128 235.877 201.691C237.44 203.254 238.318 205.373 238.318 207.583V236.75C238.318 235.092 237.659 233.503 236.487 232.331C235.315 231.158 233.725 230.5 232.068 230.5H217.484V199.25Z" stroke="#F2F2F2" stroke-width="2" stroke-linecap="round" stroke-linejoin="round"/>
</g>
<g clip-path="url(#clip3)">
<path d="M217.484 199.25H229.984C232.195 199.25 234.314 200.128 235.877 201.691C237.44 203.254 238.318 205.373 238.318 207.583V236.75C238.318 235.092 237.659 233.503 236.487 232.331C235.315 231.158 233.725 230.5 232.068 230.5H217.484V199.25Z" stroke="#F2F2F2" stroke-width="2" stroke-linecap="round" stroke-linejoin="round"/>
</g>
<g clip-path="url(#clip4)">
<path d="M419.202 203.34C426.307 207.132 435.142 204.445 438.933 197.34C442.725 190.234 440.039 181.4 432.933 177.608C425.827 173.816 416.993 176.503 413.201 183.608C409.409 190.714 412.096 199.548 419.202 203.34Z" stroke="#F2F2F2" stroke-width="2" stroke-linecap="round" stroke-linejoin="round"/>
<path d="M413.324 197.583L402.165 213.14L414.297 212.53L420.545 222.948L427.266 204.999" stroke="#F2F2F2" stroke-width="2" stroke-linecap="round" stroke-linejoin="round"/>
</g>
<g clip-path="url(#clip5)">
<path d="M853.036 261L869.899 251.934L858.735 247.147L857.704 235.043L843.775 248.209" stroke="#F2F2F2" stroke-width="2" stroke-linecap="round" stroke-linejoin="round"/>
</g>
<g clip-path="url(#clip6)">
<path d="M905.25 135.748C907.626 143.443 915.791 147.756 923.486 145.38C931.182 143.004 935.495 134.839 933.119 127.143C930.743 119.448 922.578 115.135 914.882 117.511C907.186 119.887 902.874 128.052 905.25 135.748Z" stroke="#F2F2F2" stroke-width="2" stroke-linecap="round" stroke-linejoin="round"/>
<path d="M905.13 127.521L886.252 130.711L895.297 138.82L892.398 150.617L909.809 142.603" stroke="#F2F2F2" stroke-width="2" stroke-linecap="round" stroke-linejoin="round"/>
</g>
<path d="M1041.59 210.512C1049.65 210.499 1056.16 203.959 1056.15 195.905C1056.14 187.851 1049.6 181.333 1041.54 181.346C1033.49 181.359 1026.97 187.899 1026.98 195.953C1027 204.007 1033.54 210.526 1041.59 210.512Z" stroke="#F2F2F2" stroke-width="2" stroke-linecap="round" stroke-linejoin="round"/>
<path d="M1033.69 208.213L1031.2 227.196L1041.61 220.929L1052.03 227.162L1049.48 208.166" stroke="#F2F2F2" stroke-width="2" stroke-linecap="round" stroke-linejoin="round"/>
<path d="M494.318 200.333H495.985C497.753 200.333 499.448 201.036 500.699 202.286C501.949 203.536 502.651 205.232 502.651 207C502.651 208.768 501.949 210.464 500.699 211.714C499.448 212.964 497.753 213.667 495.985 213.667H494.318" stroke="#F2F2F2" stroke-width="2" stroke-linecap="round" stroke-linejoin="round"/>
<path d="M467.651 200.333H494.318V215.333C494.318 217.102 493.616 218.797 492.365 220.048C491.115 221.298 489.419 222 487.651 222H474.318C472.55 222 470.854 221.298 469.604 220.048C468.354 218.797 467.651 217.102 467.651 215.333V200.333Z" stroke="#F2F2F2" stroke-width="2" stroke-linecap="round" stroke-linejoin="round"/>
<path d="M474.318 188.667V193.667" stroke="#F2F2F2" stroke-width="2" stroke-linecap="round" stroke-linejoin="round"/>
<path d="M480.984 188.667V193.667" stroke="#F2F2F2" stroke-width="2" stroke-linecap="round" stroke-linejoin="round"/>
<path d="M487.651 188.667V193.667" stroke="#F2F2F2" stroke-width="2" stroke-linecap="round" stroke-linejoin="round"/>
<g clip-path="url(#clip7)">
<path d="M850.284 136.875L851.751 137.666C853.307 138.505 854.467 139.928 854.974 141.621C855.482 143.315 855.296 145.141 854.457 146.698C853.618 148.254 852.195 149.414 850.501 149.921C848.808 150.429 846.982 150.242 845.425 149.404L843.958 148.613" stroke="#F2F2F2" stroke-width="2" stroke-linecap="round" stroke-linejoin="round"/>
<path d="M826.809 124.225L850.284 136.876L843.167 150.08C842.329 151.637 840.906 152.796 839.212 153.304C837.518 153.811 835.693 153.625 834.136 152.786L822.399 146.461C820.842 145.622 819.683 144.199 819.175 142.505C818.668 140.812 818.854 138.986 819.693 137.429L826.809 124.225Z" stroke="#F2F2F2" stroke-width="2" stroke-linecap="round" stroke-linejoin="round"/>
<path d="M838.212 117.117L835.841 121.518" stroke="#F2F2F2" stroke-width="2" stroke-linecap="round" stroke-linejoin="round"/>
<path d="M844.081 120.28L841.709 124.68" stroke="#F2F2F2" stroke-width="2" stroke-linecap="round" stroke-linejoin="round"/>
<path d="M849.95 123.443L847.578 127.844" stroke="#F2F2F2" stroke-width="2" stroke-linecap="round" stroke-linejoin="round"/>
</g>
<g clip-path="url(#clip8)">
<path d="M1099.38 232.97L1100.85 233.76C1102.4 234.599 1103.56 236.022 1104.07 237.716C1104.58 239.409 1104.39 241.235 1103.55 242.792C1102.71 244.348 1101.29 245.508 1099.6 246.015C1097.9 246.523 1096.08 246.337 1094.52 245.498L1093.05 244.707" stroke="#F2F2F2" stroke-width="2" stroke-linecap="round" stroke-linejoin="round"/>
<path d="M1075.9 220.319L1099.38 232.97L1092.26 246.174C1091.42 247.731 1090 248.89 1088.31 249.398C1086.61 249.905 1084.79 249.719 1083.23 248.88L1071.49 242.555C1069.94 241.716 1068.78 240.293 1068.27 238.599C1067.76 236.906 1067.95 235.08 1068.79 233.523L1075.9 220.319Z" stroke="#F2F2F2" stroke-width="2" stroke-linecap="round" stroke-linejoin="round"/>
<path d="M1087.31 213.211L1084.94 217.612" stroke="#F2F2F2" stroke-width="2" stroke-linecap="round" stroke-linejoin="round"/>
<path d="M1093.18 216.374L1090.8 220.775" stroke="#F2F2F2" stroke-width="2" stroke-linecap="round" stroke-linejoin="round"/>
<path d="M1099.04 219.537L1096.67 223.938" stroke="#F2F2F2" stroke-width="2" stroke-linecap="round" stroke-linejoin="round"/>
</g>
<g clip-path="url(#clip9)">
<path d="M980.594 97.7085L982.26 97.7549C984.027 97.8041 985.703 98.5534 986.918 99.8379C988.133 101.122 988.788 102.837 988.738 104.605C988.689 106.372 987.94 108.047 986.655 109.262C985.371 110.477 983.656 111.132 981.889 111.083L980.223 111.037" stroke="#F2F2F2" stroke-width="2" stroke-linecap="round" stroke-linejoin="round"/>
<path d="M953.938 96.9663L980.594 97.7085L980.176 112.703C980.127 114.47 979.378 116.146 978.093 117.361C976.809 118.575 975.094 119.23 973.327 119.181L959.999 118.81C958.231 118.761 956.556 118.012 955.341 116.727C954.126 115.443 953.471 113.728 953.52 111.96L953.938 96.9663Z" stroke="#F2F2F2" stroke-width="2" stroke-linecap="round" stroke-linejoin="round"/>
<path d="M960.926 85.4897L960.787 90.4878" stroke="#F2F2F2" stroke-width="2" stroke-linecap="round" stroke-linejoin="round"/>
<path d="M967.59 85.6753L967.451 90.6734" stroke="#F2F2F2" stroke-width="2" stroke-linecap="round" stroke-linejoin="round"/>
<path d="M974.254 85.8608L974.115 90.8589" stroke="#F2F2F2" stroke-width="2" stroke-linecap="round" stroke-linejoin="round"/>
</g>
<g clip-path="url(#clip10)">
<path d="M729.596 180.203L731.036 179.363C732.563 178.472 734.382 178.224 736.091 178.674C737.801 179.124 739.263 180.234 740.154 181.761C741.045 183.289 741.292 185.107 740.843 186.817C740.393 188.527 739.282 189.988 737.755 190.879L736.315 191.719" stroke="#F2F2F2" stroke-width="2" stroke-linecap="round" stroke-linejoin="round"/>
<path d="M706.563 193.641L729.596 180.203L737.155 193.159C738.046 194.686 738.294 196.505 737.844 198.214C737.394 199.924 736.284 201.386 734.756 202.277L723.24 208.996C721.713 209.887 719.894 210.135 718.184 209.685C716.474 209.235 715.013 208.124 714.122 206.597L706.563 193.641Z" stroke="#F2F2F2" stroke-width="2" stroke-linecap="round" stroke-linejoin="round"/>
<path d="M706.442 180.205L708.962 184.523" stroke="#F2F2F2" stroke-width="2" stroke-linecap="round" stroke-linejoin="round"/>
<path d="M712.2 176.845L714.72 181.163" stroke="#F2F2F2" stroke-width="2" stroke-linecap="round" stroke-linejoin="round"/>
<path d="M717.958 173.485L720.478 177.804" stroke="#F2F2F2" stroke-width="2" stroke-linecap="round" stroke-linejoin="round"/>
</g>
<path d="M74.318 241.667C77.9999 241.667 80.9847 238.682 80.9847 235C80.9847 231.318 77.9999 228.333 74.318 228.333C70.6361 228.333 67.6514 231.318 67.6514 235C67.6514 238.682 70.6361 241.667 74.318 241.667Z" stroke="#F2F2F2" stroke-width="2" stroke-linecap="round" stroke-linejoin="round"/>
<path d="M80.9847 228.333V236.667C80.9847 237.993 81.5115 239.265 82.4492 240.202C83.3869 241.14 84.6586 241.667 85.9847 241.667C87.3108 241.667 88.5826 241.14 89.5203 240.202C90.4579 239.265 90.9847 237.993 90.9847 236.667V235C90.9845 231.238 89.7118 227.588 87.3735 224.641C85.0352 221.694 81.769 219.625 78.1058 218.771C74.4426 217.916 70.5979 218.325 67.197 219.932C63.796 221.54 61.0387 224.25 59.3735 227.623C57.7082 230.996 57.233 234.833 58.025 238.51C58.817 242.188 60.8297 245.489 63.7358 247.877C66.6419 250.266 70.2704 251.601 74.0315 251.665C77.7926 251.73 81.4649 250.521 84.4514 248.233" stroke="#F2F2F2" stroke-width="2" stroke-linecap="round" stroke-linejoin="round"/>
<g clip-path="url(#clip11)">
<path d="M306.906 215.909C309.087 218.875 313.26 219.512 316.226 217.332C319.193 215.151 319.83 210.978 317.65 208.012C315.469 205.045 311.296 204.408 308.33 206.589C305.363 208.769 304.726 212.942 306.906 215.909Z" stroke="#F2F2F2" stroke-width="2" stroke-linecap="round" stroke-linejoin="round"/>
<path d="M321.598 213.383L314.884 218.319C313.815 219.104 313.102 220.282 312.902 221.593C312.702 222.904 313.031 224.24 313.816 225.309C314.601 226.377 315.779 227.09 317.09 227.29C318.401 227.491 319.738 227.162 320.806 226.376L322.149 225.389C325.18 223.161 327.368 219.973 328.357 216.344C329.346 212.715 329.079 208.858 327.598 205.4C326.118 201.942 323.511 199.087 320.201 197.298C316.892 195.51 313.075 194.894 309.371 195.549C305.667 196.205 302.294 198.095 299.8 200.911C297.306 203.727 295.838 207.304 295.635 211.06C295.432 214.816 296.505 218.531 298.68 221.599C300.856 224.668 304.005 226.911 307.617 227.963" stroke="#F2F2F2" stroke-width="2" stroke-linecap="round" stroke-linejoin="round"/>
</g>
<g clip-path="url(#clip12)">
<path d="M736.946 59.5272C740.021 57.5016 740.871 53.3671 738.846 50.2924C736.82 47.2178 732.686 46.3673 729.611 48.3929C726.536 50.4185 725.686 54.553 727.712 57.6277C729.737 60.7023 733.872 61.5528 736.946 59.5272Z" stroke="#F2F2F2" stroke-width="2" stroke-linecap="round" stroke-linejoin="round"/>
<path d="M735.178 44.7255L739.763 51.6844C740.492 52.7918 741.632 53.564 742.931 53.8312C744.23 54.0984 745.581 53.8386 746.689 53.1091C747.796 52.3795 748.568 51.24 748.836 49.9411C749.103 48.6422 748.843 47.2904 748.113 46.183L747.197 44.7912C745.127 41.6501 742.056 39.3015 738.482 38.1273C734.908 36.9531 731.043 37.0223 727.513 38.3237C723.984 39.6251 720.999 42.0822 719.043 45.2953C717.087 48.5085 716.275 52.2888 716.74 56.0215C717.206 59.7543 718.92 63.22 721.604 65.8551C724.288 68.4902 727.785 70.1397 731.526 70.5354C735.267 70.9311 739.031 70.0497 742.208 68.0346C745.384 66.0195 747.785 62.9891 749.021 59.4362" stroke="#F2F2F2" stroke-width="2" stroke-linecap="round" stroke-linejoin="round"/>
</g>
<g clip-path="url(#clip13)">
<path d="M1107.69 127.271C1110.77 125.246 1111.62 121.111 1109.59 118.037C1107.56 114.962 1103.43 114.111 1100.36 116.137C1097.28 118.163 1096.43 122.297 1098.46 125.372C1100.48 128.446 1104.62 129.297 1107.69 127.271Z" stroke="#F2F2F2" stroke-width="2" stroke-linecap="round" stroke-linejoin="round"/>
<path d="M1105.92 112.47L1110.51 119.429C1111.24 120.536 1112.38 121.308 1113.67 121.575C1114.97 121.842 1116.33 121.583 1117.43 120.853C1118.54 120.124 1119.31 118.984 1119.58 117.685C1119.85 116.386 1119.59 115.035 1118.86 113.927L1117.94 112.535C1115.87 109.394 1112.8 107.046 1109.23 105.871C1105.65 104.697 1101.79 104.766 1098.26 106.068C1094.73 107.369 1091.74 109.826 1089.79 113.039C1087.83 116.253 1087.02 120.033 1087.48 123.766C1087.95 127.498 1089.66 130.964 1092.35 133.599C1095.03 136.234 1098.53 137.884 1102.27 138.279C1106.01 138.675 1109.78 137.794 1112.95 135.779C1116.13 133.764 1118.53 130.733 1119.77 127.18" stroke="#F2F2F2" stroke-width="2" stroke-linecap="round" stroke-linejoin="round"/>
</g>
<g clip-path="url(#clip14)">
<path d="M306.906 215.909C309.087 218.875 313.26 219.512 316.226 217.332C319.193 215.151 319.83 210.978 317.65 208.012C315.469 205.045 311.296 204.408 308.33 206.589C305.363 208.769 304.726 212.942 306.906 215.909Z" stroke="#F2F2F2" stroke-width="2" stroke-linecap="round" stroke-linejoin="round"/>
<path d="M321.598 213.383L314.884 218.319C313.815 219.104 313.102 220.282 312.902 221.593C312.702 222.904 313.031 224.24 313.816 225.309C314.601 226.377 315.779 227.09 317.09 227.29C318.401 227.491 319.738 227.162 320.806 226.376L322.149 225.389C325.18 223.161 327.368 219.973 328.357 216.344C329.346 212.715 329.079 208.858 327.598 205.4C326.118 201.942 323.511 199.087 320.201 197.298C316.892 195.51 313.075 194.894 309.371 195.549C305.667 196.205 302.294 198.095 299.8 200.911C297.306 203.727 295.838 207.304 295.635 211.06C295.432 214.816 296.505 218.531 298.68 221.599C300.856 224.668 304.005 226.911 307.617 227.963" stroke="#F2F2F2" stroke-width="2" stroke-linecap="round" stroke-linejoin="round"/>
</g>
<g clip-path="url(#clip15)">
<path d="M11.5659 112.116L22.8524 117.488C24.848 118.438 26.3845 120.142 27.1239 122.225C27.8633 124.308 27.745 126.599 26.7951 128.594L14.2591 154.93C14.9716 153.433 15.0603 151.714 14.5057 150.152C13.9512 148.59 12.7988 147.312 11.3021 146.6L-1.86546 140.332L11.5659 112.116Z" stroke="#F2F2F2" stroke-width="2" stroke-linecap="round" stroke-linejoin="round"/>
<path d="M49.1878 130.024L37.9013 124.652C35.9057 123.702 33.6145 123.583 31.5317 124.323C29.4489 125.062 27.7452 126.599 26.7953 128.594L14.2593 154.929C14.9717 153.433 16.2496 152.28 17.8117 151.726C19.3737 151.171 21.0921 151.26 22.5888 151.972L35.7564 158.24L49.1878 130.024Z" stroke="#F2F2F2" stroke-width="2" stroke-linecap="round" stroke-linejoin="round"/>
</g>
<path d="M773.609 23.7866L786.108 23.6561C788.318 23.633 790.447 24.4888 792.026 26.0352C793.605 27.5816 794.505 29.692 794.528 31.902L794.833 61.067C794.815 59.4095 794.14 57.8268 792.956 56.667C791.772 55.5072 790.175 54.8653 788.518 54.8826L773.935 55.0349L773.609 23.7866Z" stroke="#F2F2F2" stroke-width="2" stroke-linecap="round" stroke-linejoin="round"/>
<path d="M815.273 23.3518L802.774 23.4823C800.564 23.5054 798.453 24.4055 796.907 25.9845C795.361 27.5635 794.505 29.6922 794.528 31.9022L794.832 61.0673C794.815 59.4098 795.457 57.8133 796.617 56.629C797.777 55.4447 799.359 54.7697 801.017 54.7524L815.599 54.6001L815.273 23.3518Z" stroke="#F2F2F2" stroke-width="2" stroke-linecap="round" stroke-linejoin="round"/>
<path d="M1010.55 86.728L1023.05 86.5975C1025.26 86.5744 1027.39 87.4302 1028.97 88.9766C1030.55 90.523 1031.45 92.6334 1031.47 94.8434L1031.77 124.008C1031.76 122.351 1031.08 120.768 1029.9 119.608C1028.71 118.449 1027.12 117.807 1025.46 117.824L1010.88 117.976L1010.55 86.728Z" stroke="#F2F2F2" stroke-width="2" stroke-linecap="round" stroke-linejoin="round"/>
<path d="M1052.21 86.2932L1039.72 86.4237C1037.51 86.4468 1035.39 87.3469 1033.85 88.9259C1032.3 90.5049 1031.45 92.6336 1031.47 94.8436L1031.77 124.009C1031.76 122.351 1032.4 120.755 1033.56 119.57C1034.72 118.386 1036.3 117.711 1037.96 117.694L1052.54 117.542L1052.21 86.2932Z" stroke="#F2F2F2" stroke-width="2" stroke-linecap="round" stroke-linejoin="round"/>
<g clip-path="url(#clip16)">
<path d="M870.253 163.51L880.812 170.2C882.679 171.383 884 173.259 884.484 175.416C884.967 177.572 884.574 179.832 883.391 181.699L867.781 206.337C868.668 204.937 868.963 203.241 868.6 201.624C868.237 200.007 867.247 198.6 865.847 197.712L853.528 189.907L870.253 163.51Z" stroke="#F2F2F2" stroke-width="2" stroke-linecap="round" stroke-linejoin="round"/>
<path d="M905.45 185.811L894.891 179.12C893.024 177.937 890.764 177.545 888.607 178.028C886.451 178.512 884.575 179.833 883.392 181.699L867.781 206.337C868.669 204.937 870.076 203.946 871.693 203.584C873.31 203.221 875.006 203.515 876.406 204.403L888.725 212.208L905.45 185.811Z" stroke="#F2F2F2" stroke-width="2" stroke-linecap="round" stroke-linejoin="round"/>
</g>
<g clip-path="url(#clip17)">
<path d="M509.884 138.434L521.171 143.807C523.166 144.757 524.703 146.46 525.442 148.543C526.182 150.626 526.063 152.917 525.113 154.913L512.577 181.248C513.29 179.751 513.379 178.033 512.824 176.471C512.27 174.909 511.117 173.631 509.621 172.918L496.453 166.65L509.884 138.434Z" stroke="#F2F2F2" stroke-width="2" stroke-linecap="round" stroke-linejoin="round"/>
<path d="M547.506 156.342L536.22 150.97C534.224 150.02 531.933 149.902 529.85 150.641C527.767 151.38 526.064 152.917 525.114 154.913L512.578 181.248C513.29 179.751 514.568 178.599 516.13 178.044C517.692 177.49 519.411 177.578 520.907 178.291L534.075 184.559L547.506 156.342Z" stroke="#F2F2F2" stroke-width="2" stroke-linecap="round" stroke-linejoin="round"/>
</g>
<g clip-path="url(#clip18)">
<path d="M752.884 213.434L764.171 218.807C766.166 219.757 767.703 221.46 768.442 223.543C769.182 225.626 769.063 227.917 768.113 229.913L755.577 256.248C756.29 254.751 756.379 253.033 755.824 251.471C755.27 249.909 754.117 248.631 752.621 247.918L739.453 241.65L752.884 213.434Z" stroke="#F2F2F2" stroke-width="2" stroke-linecap="round" stroke-linejoin="round"/>
<path d="M790.506 231.342L779.22 225.97C777.224 225.02 774.933 224.902 772.85 225.641C770.767 226.38 769.064 227.917 768.114 229.913L755.578 256.248C756.29 254.751 757.568 253.599 759.13 253.044C760.692 252.49 762.411 252.578 763.907 253.291L777.075 259.559L790.506 231.342Z" stroke="#F2F2F2" stroke-width="2" stroke-linecap="round" stroke-linejoin="round"/>
</g>
<path d="M190.568 181.75C190.896 181.422 191.286 181.161 191.715 180.983C192.144 180.806 192.604 180.714 193.068 180.714C193.532 180.714 193.992 180.806 194.421 180.983C194.85 181.161 195.239 181.422 195.568 181.75C195.896 182.078 196.157 182.468 196.334 182.897C196.512 183.326 196.603 183.786 196.603 184.25C196.603 184.714 196.512 185.174 196.334 185.603C196.157 186.032 195.896 186.422 195.568 186.75L178.693 203.625L171.818 205.5L173.693 198.625L190.568 181.75Z" stroke="#F2F2F2" stroke-width="2" stroke-linecap="round" stroke-linejoin="round"/>
<path d="M284.568 233.75C284.896 233.422 285.286 233.161 285.715 232.983C286.144 232.806 286.604 232.714 287.068 232.714C287.532 232.714 287.992 232.806 288.421 232.983C288.85 233.161 289.239 233.422 289.568 233.75C289.896 234.078 290.157 234.468 290.334 234.897C290.512 235.326 290.603 235.786 290.603 236.25C290.603 236.714 290.512 237.174 290.334 237.603C290.157 238.032 289.896 238.422 289.568 238.75L272.693 255.625L265.818 257.5L267.693 250.625L284.568 233.75Z" stroke="#F2F2F2" stroke-width="2" stroke-linecap="round" stroke-linejoin="round"/>
<path d="M526.568 228.75C526.897 228.422 527.286 228.161 527.715 227.983C528.144 227.806 528.604 227.714 529.068 227.714C529.533 227.714 529.992 227.806 530.421 227.983C530.85 228.161 531.24 228.422 531.568 228.75C531.897 229.078 532.157 229.468 532.335 229.897C532.512 230.326 532.604 230.786 532.604 231.25C532.604 231.714 532.512 232.174 532.335 232.603C532.157 233.032 531.897 233.422 531.568 233.75L514.693 250.625L507.818 252.5L509.693 245.625L526.568 228.75Z" stroke="#F2F2F2" stroke-width="2" stroke-linecap="round" stroke-linejoin="round"/>
<path d="M843.568 55.7499C843.897 55.4216 844.286 55.1612 844.715 54.9835C845.144 54.8058 845.604 54.7144 846.068 54.7144C846.533 54.7144 846.992 54.8058 847.421 54.9835C847.85 55.1612 848.24 55.4216 848.568 55.7499C848.897 56.0782 849.157 56.4679 849.335 56.8969C849.512 57.3258 849.604 57.7856 849.604 58.2499C849.604 58.7142 849.512 59.1739 849.335 59.6029C849.157 60.0318 848.897 60.4216 848.568 60.7499L831.693 77.6249L824.818 79.4998L826.693 72.6249L843.568 55.7499Z" stroke="#F2F2F2" stroke-width="2" stroke-linecap="round" stroke-linejoin="round"/>
<path d="M696.568 228.75C696.897 228.422 697.286 228.161 697.715 227.983C698.144 227.806 698.604 227.714 699.068 227.714C699.533 227.714 699.992 227.806 700.421 227.983C700.85 228.161 701.24 228.422 701.568 228.75C701.897 229.078 702.157 229.468 702.335 229.897C702.512 230.326 702.604 230.786 702.604 231.25C702.604 231.714 702.512 232.174 702.335 232.603C702.157 233.032 701.897 233.422 701.568 233.75L684.693 250.625L677.818 252.5L679.693 245.625L696.568 228.75Z" stroke="#F2F2F2" stroke-width="2" stroke-linecap="round" stroke-linejoin="round"/>
<path d="M690.568 70.7499C690.897 70.4216 691.286 70.1612 691.715 69.9835C692.144 69.8058 692.604 69.7144 693.068 69.7144C693.533 69.7144 693.992 69.8058 694.421 69.9835C694.85 70.1612 695.24 70.4216 695.568 70.7499C695.897 71.0782 696.157 71.4679 696.335 71.8969C696.512 72.3258 696.604 72.7856 696.604 73.2499C696.604 73.7142 696.512 74.1739 696.335 74.6029C696.157 75.0318 695.897 75.4216 695.568 75.7499L678.693 92.6249L671.818 94.4998L673.693 87.6249L690.568 70.7499Z" stroke="#F2F2F2" stroke-width="2" stroke-linecap="round" stroke-linejoin="round"/>
<g clip-path="url(#clip19)">
<path d="M70.9172 191.48L64.3574 180.84C61.7477 176.606 60.9265 171.51 62.0743 166.672C63.2222 161.833 66.2452 157.649 70.4782 155.039C74.7112 152.429 79.8075 151.608 84.646 152.756C89.4846 153.904 93.6689 156.927 96.2786 161.16L102.838 171.8" stroke="#F2F2F2" stroke-width="2" stroke-linecap="round" stroke-linejoin="round"/>
<path d="M103.932 173.574C104.512 174.515 104.694 175.647 104.439 176.723C104.184 177.798 103.512 178.728 102.572 179.308L100.798 180.401C99.8575 180.981 98.7249 181.163 97.6497 180.908C96.5745 180.653 95.6446 179.981 95.0647 179.041L91.7848 173.72C91.2048 172.78 91.0224 171.647 91.2774 170.572C91.5325 169.497 92.2043 168.567 93.145 167.987L98.4652 164.707L103.932 173.574ZM72.0105 193.254C72.5904 194.194 73.5203 194.866 74.5955 195.121C75.6707 195.376 76.8032 195.194 77.7439 194.614L79.5173 193.521C80.458 192.941 81.1298 192.011 81.3848 190.936C81.6399 189.86 81.4574 188.728 80.8775 187.787L77.5976 182.467C77.0176 181.526 76.0878 180.855 75.0126 180.599C73.9373 180.344 72.8048 180.527 71.8641 181.107L66.5439 184.387L72.0105 193.254Z" stroke="#F2F2F2" stroke-width="2" stroke-linecap="round" stroke-linejoin="round"/>
</g>
<g clip-path="url(#clip20)">
<path d="M436.318 267.88L429.758 257.24C427.148 253.007 426.327 247.911 427.475 243.072C428.623 238.234 431.646 234.049 435.879 231.44C440.112 228.83 445.208 228.009 450.046 229.156C454.885 230.304 459.069 233.327 461.679 237.56L468.239 248.201" stroke="#F2F2F2" stroke-width="2" stroke-linecap="round" stroke-linejoin="round"/>
</g>
<g clip-path="url(#clip21)">
<path d="M963.618 220.279L970.803 210.05C973.661 205.981 978.019 203.214 982.918 202.358C987.816 201.501 992.854 202.626 996.924 205.485C1000.99 208.343 1003.76 212.701 1004.62 217.599C1005.47 222.498 1004.35 227.536 1001.49 231.605L994.304 241.834" stroke="#F2F2F2" stroke-width="2" stroke-linecap="round" stroke-linejoin="round"/>
<path d="M993.106 243.539C992.471 244.443 991.502 245.058 990.414 245.248C989.325 245.438 988.206 245.188 987.301 244.553L985.597 243.356C984.692 242.72 984.078 241.752 983.887 240.663C983.697 239.575 983.947 238.455 984.582 237.551L988.175 232.437C988.81 231.532 989.778 230.917 990.867 230.727C991.955 230.537 993.075 230.787 993.979 231.422L999.094 235.015L993.106 243.539ZM962.42 221.983C961.785 222.888 961.535 224.007 961.725 225.096C961.916 226.184 962.53 227.153 963.435 227.788L965.139 228.985C966.044 229.621 967.163 229.871 968.252 229.68C969.34 229.49 970.309 228.875 970.944 227.971L974.537 222.857C975.172 221.952 975.422 220.833 975.231 219.744C975.041 218.656 974.426 217.687 973.522 217.052L968.408 213.459L962.42 221.983Z" stroke="#F2F2F2" stroke-width="2" stroke-linecap="round" stroke-linejoin="round"/>
</g>
<g clip-path="url(#clip22)">
<path d="M868.318 106.88L861.758 96.2399C859.149 92.0069 858.327 86.9106 859.475 82.072C860.623 77.2335 863.646 73.0492 867.879 70.4395C872.112 67.8298 877.208 67.0086 882.047 68.1565C886.885 69.3044 891.07 72.3273 893.679 76.5603L900.239 87.2007" stroke="#F2F2F2" stroke-width="2" stroke-linecap="round" stroke-linejoin="round"/>
<path d="M901.333 88.9745C901.913 89.9152 902.095 91.0477 901.84 92.1229C901.585 93.1982 900.913 94.128 899.972 94.708L898.199 95.8013C897.258 96.3812 896.126 96.5637 895.051 96.3086C893.975 96.0535 893.046 95.3818 892.466 94.4411L889.186 89.1209C888.606 88.1802 888.423 87.0477 888.678 85.9725C888.933 84.8972 889.605 83.9674 890.546 83.3875L895.866 80.1075L901.333 88.9745ZM869.411 108.654C869.991 109.595 870.921 110.267 871.996 110.522C873.072 110.777 874.204 110.594 875.145 110.014L876.918 108.921C877.859 108.341 878.531 107.411 878.786 106.336C879.041 105.261 878.858 104.128 878.278 103.188L874.998 97.8674C874.419 96.9267 873.489 96.2549 872.413 95.9998C871.338 95.7448 870.206 95.9273 869.265 96.5072L863.945 99.7871L869.411 108.654Z" stroke="#F2F2F2" stroke-width="2" stroke-linecap="round" stroke-linejoin="round"/>
</g>
<g clip-path="url(#clip23)">
<path d="M633.493 189.577L640.487 179.217C643.269 175.096 647.575 172.249 652.457 171.302C657.339 170.355 662.397 171.386 666.518 174.168C670.64 176.951 673.487 181.257 674.434 186.139C675.381 191.02 674.35 196.078 671.567 200.2L664.573 210.56" stroke="#F2F2F2" stroke-width="2" stroke-linecap="round" stroke-linejoin="round"/>
<path d="M663.407 212.286C662.789 213.202 661.832 213.835 660.747 214.045C659.662 214.256 658.538 214.027 657.622 213.408L655.896 212.243C654.98 211.624 654.347 210.667 654.137 209.583C653.926 208.498 654.155 207.374 654.774 206.458L658.271 201.278C658.889 200.362 659.846 199.729 660.931 199.519C662.016 199.308 663.14 199.538 664.056 200.156L669.236 203.653L663.407 212.286ZM632.327 191.304C631.708 192.22 631.479 193.344 631.69 194.429C631.9 195.513 632.533 196.47 633.449 197.089L635.175 198.254C636.091 198.873 637.215 199.102 638.3 198.891C639.385 198.681 640.342 198.048 640.96 197.132L644.457 191.952C645.076 191.036 645.305 189.912 645.094 188.828C644.884 187.743 644.251 186.786 643.335 186.167L638.155 182.67L632.327 191.304Z" stroke="#F2F2F2" stroke-width="2" stroke-linecap="round" stroke-linejoin="round"/>
</g>
<path d="M24.3177 208.25C32.3719 208.25 38.901 201.721 38.901 193.667C38.901 185.613 32.3719 179.083 24.3177 179.083C16.2636 179.083 9.73438 185.613 9.73438 193.667C9.73438 201.721 16.2636 208.25 24.3177 208.25Z" stroke="#F2F2F2" stroke-width="2" stroke-linecap="round" stroke-linejoin="round"/>
<path d="M16.4222 205.937L13.9014 224.917L24.318 218.667L34.7347 224.917L32.2139 205.917" stroke="#F2F2F2" stroke-width="2" stroke-linecap="round" stroke-linejoin="round"/>
<path d="M115.651 223.625C115.651 222.244 116.2 220.919 117.177 219.942C118.154 218.965 119.478 218.417 120.86 218.417H148.985" stroke="#F2F2F2" stroke-width="2" stroke-linecap="round" stroke-linejoin="round"/>
<path d="M120.86 187.167H148.985V228.833H120.86C119.478 228.833 118.154 228.284 117.177 227.308C116.2 226.331 115.651 225.006 115.651 223.625V192.375C115.651 190.994 116.2 189.669 117.177 188.692C118.154 187.715 119.478 187.167 120.86 187.167V187.167Z" stroke="#F2F2F2" stroke-width="2" stroke-linecap="round" stroke-linejoin="round"/>
<g clip-path="url(#clip24)">
<path d="M756.754 158.699C757.898 157.923 759.302 157.634 760.659 157.894C762.015 158.154 763.213 158.943 763.988 160.086L779.774 183.363" stroke="#F2F2F2" stroke-width="2" stroke-linecap="round" stroke-linejoin="round"/>
<path d="M789.852 142.546L805.638 165.823L771.153 189.209L755.367 165.932C754.592 164.789 754.303 163.384 754.563 162.028C754.823 160.671 755.611 159.474 756.755 158.698L782.618 141.159C783.761 140.383 785.166 140.094 786.522 140.354C787.879 140.614 789.077 141.403 789.852 142.546V142.546Z" stroke="#F2F2F2" stroke-width="2" stroke-linecap="round" stroke-linejoin="round"/>
</g>
<g clip-path="url(#clip25)">
<path d="M977.692 178.541C977.519 177.17 977.897 175.787 978.743 174.695C979.589 173.603 980.834 172.892 982.205 172.719L1010.11 169.183" stroke="#F2F2F2" stroke-width="2" stroke-linecap="round" stroke-linejoin="round"/>
<path d="M978.276 141.716L1006.18 138.181L1011.42 179.517L983.514 183.053C982.144 183.226 980.76 182.848 979.669 182.002C978.577 181.156 977.866 179.911 977.692 178.54L973.764 147.538C973.59 146.168 973.968 144.785 974.815 143.693C975.661 142.601 976.906 141.89 978.276 141.716V141.716Z" stroke="#F2F2F2" stroke-width="2" stroke-linecap="round" stroke-linejoin="round"/>
</g>
<g clip-path="url(#clip26)">
<path d="M927.075 78.9591C926.176 77.91 925.731 76.5469 925.837 75.1697C925.944 73.7924 926.593 72.5139 927.642 71.6153L949.003 53.3197" stroke="#F2F2F2" stroke-width="2" stroke-linecap="round" stroke-linejoin="round"/>
<path d="M907.314 47.881L928.674 29.5853L955.779 61.231L934.418 79.5266C933.369 80.4252 932.006 80.8702 930.629 80.7638C929.252 80.6573 927.973 80.0081 927.074 78.959L906.746 55.2248C905.847 54.1756 905.402 52.8125 905.509 51.4353C905.615 50.0581 906.265 48.7795 907.314 47.881V47.881Z" stroke="#F2F2F2" stroke-width="2" stroke-linecap="round" stroke-linejoin="round"/>
</g>
<g clip-path="url(#clip27)">
<path d="M978.36 53.9626C978.052 53.6149 977.816 53.2099 977.665 52.7709C977.514 52.3319 977.451 51.8675 977.479 51.404C977.508 50.9406 977.627 50.4873 977.831 50.07C978.034 49.6527 978.318 49.2796 978.666 48.972C979.013 48.6644 979.418 48.4282 979.857 48.2771C980.296 48.126 980.761 48.0628 981.224 48.0912C981.688 48.1196 982.141 48.2389 982.558 48.4425C982.976 48.646 983.349 48.9298 983.656 49.2775L999.468 67.1522L1000.92 74.1289L994.172 71.8373L978.36 53.9626Z" stroke="#F2F2F2" stroke-width="2" stroke-linecap="round" stroke-linejoin="round"/>
</g>
<g clip-path="url(#clip28)">
<path d="M362.913 255.925C362.021 254.871 361.585 253.505 361.7 252.128C361.815 250.752 362.472 249.477 363.527 248.585L385.003 230.425" stroke="#F2F2F2" stroke-width="2" stroke-linecap="round" stroke-linejoin="round"/>
<path d="M343.349 224.723L364.825 206.563L391.729 238.379L370.253 256.539C369.198 257.431 367.832 257.868 366.456 257.752C365.079 257.637 363.805 256.98 362.913 255.925L342.735 232.063C341.843 231.008 341.406 229.642 341.521 228.266C341.637 226.889 342.294 225.615 343.349 224.723V224.723Z" stroke="#F2F2F2" stroke-width="2" stroke-linecap="round" stroke-linejoin="round"/>
</g>
<g clip-path="url(#clip29)">
<path d="M625.913 136.925C625.021 135.871 624.585 134.505 624.7 133.128C624.815 131.752 625.473 130.477 626.527 129.585L648.003 111.425" stroke="#F2F2F2" stroke-width="2" stroke-linecap="round" stroke-linejoin="round"/>
<path d="M606.349 105.723L627.825 87.5626L654.729 119.379L633.253 137.539C632.198 138.431 630.833 138.868 629.456 138.752C628.08 138.637 626.805 137.98 625.913 136.925L605.735 113.063C604.843 112.008 604.407 110.642 604.522 109.266C604.637 107.889 605.294 106.615 606.349 105.723V105.723Z" stroke="#F2F2F2" stroke-width="2" stroke-linecap="round" stroke-linejoin="round"/>
</g>
<g clip-path="url(#clip30)">
<path d="M558.221 193.725L576.425 205.465C578.655 206.903 580.222 209.168 580.782 211.762C581.342 214.356 580.849 217.066 579.41 219.296C577.972 221.526 575.707 223.093 573.113 223.653C570.519 224.213 567.809 223.72 565.579 222.282L547.375 210.542C545.889 209.583 544.844 208.073 544.47 206.344C544.097 204.614 544.426 202.808 545.385 201.321C546.344 199.834 547.854 198.789 549.583 198.416C551.312 198.043 553.119 198.372 554.606 199.33L572.813 211.087C573.556 211.566 574.079 212.321 574.265 213.186C574.452 214.05 574.288 214.954 573.808 215.697C573.329 216.44 572.574 216.963 571.709 217.15C570.845 217.336 569.941 217.172 569.198 216.692L552.397 205.843" stroke="#F2F2F2" stroke-width="2" stroke-linecap="round" stroke-linejoin="round"/>
</g>
<g clip-path="url(#clip31)">
<path d="M863.221 15.7247L881.425 27.4645C883.655 28.9028 885.222 31.168 885.782 33.7619C886.342 36.3558 885.849 39.0658 884.41 41.2959C882.972 43.526 880.707 45.0935 878.113 45.6534C875.519 46.2134 872.809 45.72 870.579 44.2817L852.375 32.5419C850.889 31.5831 849.844 30.073 849.47 28.3437C849.097 26.6144 849.426 24.8077 850.385 23.321C851.344 21.8342 852.854 20.7893 854.583 20.416C856.312 20.0427 858.119 20.3716 859.606 21.3304L877.813 33.0866C878.556 33.566 879.079 34.321 879.265 35.1857C879.452 36.0503 879.288 36.9537 878.808 37.697C878.329 38.4404 877.574 38.9629 876.709 39.1495C875.845 39.3362 874.941 39.1717 874.198 38.6923L857.397 27.8432" stroke="#F2F2F2" stroke-width="2" stroke-linecap="round" stroke-linejoin="round"/>
</g>
<g clip-path="url(#clip32)">
<path d="M817.221 194.725L835.425 206.465C837.655 207.903 839.222 210.168 839.782 212.762C840.342 215.356 839.849 218.066 838.41 220.296C836.972 222.526 834.707 224.093 832.113 224.653C829.519 225.213 826.809 224.72 824.579 223.282L806.375 211.542C804.889 210.583 803.844 209.073 803.47 207.344C803.097 205.614 803.426 203.808 804.385 202.321C805.344 200.834 806.854 199.789 808.583 199.416C810.312 199.043 812.119 199.372 813.606 200.33L831.813 212.087C832.556 212.566 833.079 213.321 833.265 214.186C833.452 215.05 833.288 215.954 832.808 216.697C832.329 217.44 831.574 217.963 830.709 218.15C829.845 218.336 828.941 218.172 828.198 217.692L811.397 206.843" stroke="#F2F2F2" stroke-width="2" stroke-linecap="round" stroke-linejoin="round"/>
</g>
<g clip-path="url(#clip33)">
<path d="M938.221 163.725L956.425 175.465C958.655 176.903 960.222 179.168 960.782 181.762C961.342 184.356 960.849 187.066 959.41 189.296C957.972 191.526 955.707 193.093 953.113 193.653C950.519 194.213 947.809 193.72 945.579 192.282L927.375 180.542C925.889 179.583 924.844 178.073 924.47 176.344C924.097 174.614 924.426 172.808 925.385 171.321C926.344 169.834 927.854 168.789 929.583 168.416C931.312 168.043 933.119 168.372 934.606 169.33L952.813 181.087C953.556 181.566 954.079 182.321 954.265 183.186C954.452 184.05 954.288 184.954 953.808 185.697C953.329 186.44 952.574 186.963 951.709 187.15C950.845 187.336 949.941 187.172 949.198 186.692L932.397 175.843" stroke="#F2F2F2" stroke-width="2" stroke-linecap="round" stroke-linejoin="round"/>
</g>
<path d="M613.318 167C613.318 167.884 612.967 168.732 612.342 169.357C611.717 169.982 610.869 170.333 609.985 170.333H589.985L583.318 177V150.333C583.318 149.449 583.67 148.601 584.295 147.976C584.92 147.351 585.768 147 586.652 147H609.985C610.869 147 611.717 147.351 612.342 147.976C612.967 148.601 613.318 149.449 613.318 150.333V167Z" stroke="#F2F2F2" stroke-width="2" stroke-linecap="round" stroke-linejoin="round"/>
<path d="M1078.37 148.444C1078.87 149.171 1079.07 150.068 1078.91 150.937C1078.75 151.807 1078.25 152.579 1077.53 153.082L1061.08 164.466L1059.39 173.742L1044.22 151.817C1043.71 151.09 1043.52 150.193 1043.68 149.323C1043.83 148.453 1044.33 147.682 1045.06 147.179L1064.24 133.897C1064.97 133.394 1065.87 133.2 1066.74 133.358C1067.61 133.516 1068.38 134.014 1068.88 134.741L1078.37 148.444Z" stroke="#F2F2F2" stroke-width="2" stroke-linecap="round" stroke-linejoin="round"/>
<path d="M754.318 114C754.318 114.884 753.967 115.732 753.342 116.357C752.717 116.982 751.869 117.333 750.985 117.333H730.985L724.318 124V97.3333C724.318 96.4493 724.67 95.6014 725.295 94.9763C725.92 94.3512 726.768 94 727.652 94H750.985C751.869 94 752.717 94.3512 753.342 94.9763C753.967 95.6014 754.318 96.4493 754.318 97.3333V114Z" stroke="#F2F2F2" stroke-width="2" stroke-linecap="round" stroke-linejoin="round"/>
<path d="M640.318 249C640.318 250.061 639.897 251.078 639.147 251.828C638.397 252.579 637.379 253 636.318 253H604.318C603.257 253 602.24 252.579 601.49 251.828C600.74 251.078 600.318 250.061 600.318 249V221C600.318 219.939 600.74 218.922 601.49 218.172C602.24 217.421 603.257 217 604.318 217H614.318L618.318 223H636.318C637.379 223 638.397 223.421 639.147 224.172C639.897 224.922 640.318 225.939 640.318 227V249Z" stroke="#F2F2F2" stroke-width="2" stroke-linecap="round" stroke-linejoin="round"/>
<path d="M802.979 126.434C802.353 127.291 801.412 127.864 800.364 128.027C799.316 128.19 798.246 127.931 797.389 127.305L771.548 108.43C770.692 107.805 770.118 106.864 769.955 105.816C769.792 104.768 770.052 103.698 770.677 102.841L787.192 80.2301C787.818 79.3734 788.759 78.8004 789.807 78.6371C790.855 78.4738 791.925 78.7336 792.782 79.3593L800.857 85.2575L800.548 92.462L815.084 103.079C815.941 103.705 816.514 104.645 816.677 105.693C816.84 106.741 816.58 107.812 815.955 108.668L802.979 126.434Z" stroke="#F2F2F2" stroke-width="2" stroke-linecap="round" stroke-linejoin="round"/>
<path d="M1117.98 204.434C1117.35 205.291 1116.41 205.864 1115.36 206.027C1114.32 206.19 1113.25 205.931 1112.39 205.305L1086.55 186.43C1085.69 185.805 1085.12 184.864 1084.96 183.816C1084.79 182.768 1085.05 181.698 1085.68 180.841L1102.19 158.23C1102.82 157.373 1103.76 156.8 1104.81 156.637C1105.86 156.474 1106.93 156.734 1107.78 157.359L1115.86 163.258L1115.55 170.462L1130.08 181.079C1130.94 181.705 1131.51 182.645 1131.68 183.693C1131.84 184.741 1131.58 185.812 1130.95 186.668L1117.98 204.434Z" stroke="#F2F2F2" stroke-width="2" stroke-linecap="round" stroke-linejoin="round"/>
<path d="M939.842 247.604C940.009 248.651 939.752 249.722 939.129 250.581C938.506 251.439 937.567 252.015 936.519 252.182L904.915 257.201C903.867 257.367 902.796 257.11 901.938 256.487C901.079 255.864 900.504 254.925 900.337 253.877L895.946 226.224C895.779 225.176 896.036 224.105 896.659 223.247C897.282 222.388 898.221 221.812 899.269 221.646L909.145 220.078L914.037 225.376L931.814 222.553C932.862 222.387 933.933 222.643 934.791 223.266C935.65 223.89 936.225 224.828 936.392 225.876L939.842 247.604Z" stroke="#F2F2F2" stroke-width="2" stroke-linecap="round" stroke-linejoin="round"/>
<path d="M688.318 144.25C696.372 144.25 702.902 137.721 702.902 129.667C702.902 121.613 696.372 115.083 688.318 115.083C680.264 115.083 673.735 121.613 673.735 129.667C673.735 137.721 680.264 144.25 688.318 144.25Z" stroke="#F2F2F2" stroke-width="2" stroke-linecap="round" stroke-linejoin="round"/>
<path d="M680.423 141.937L677.902 160.917L688.319 154.667L698.735 160.917L696.214 141.917" stroke="#F2F2F2" stroke-width="2" stroke-linecap="round" stroke-linejoin="round"/>
<path d="M1143.57 227.75C1143.9 227.422 1144.29 227.161 1144.72 226.983C1145.14 226.806 1145.6 226.714 1146.07 226.714C1146.53 226.714 1146.99 226.806 1147.42 226.983C1147.85 227.161 1148.24 227.422 1148.57 227.75C1148.9 228.078 1149.16 228.468 1149.33 228.897C1149.51 229.326 1149.6 229.786 1149.6 230.25C1149.6 230.714 1149.51 231.174 1149.33 231.603C1149.16 232.032 1148.9 232.422 1148.57 232.75L1131.69 249.625L1124.82 251.5L1126.69 244.625L1143.57 227.75Z" stroke="#F2F2F2" stroke-width="2" stroke-linecap="round" stroke-linejoin="round"/>
<defs>
<linearGradient id="paint0_linear" x1="565.318" y1="0" x2="565.318" y2="264" gradientUnits="userSpaceOnUse">
<stop stop-color="#0073FC"/>
<stop offset="1" stop-color="#0073FC" stop-opacity="0"/>
</linearGradient>
<clipPath id="clip0">
<rect width="40" height="40" fill="white" transform="translate(183.708 214.278) rotate(33.559)"/>
</clipPath>
<clipPath id="clip1">
<rect width="50" height="50" fill="white" transform="translate(213.318 193)"/>
</clipPath>
<clipPath id="clip2">
<rect width="50" height="50" fill="white" transform="translate(213.318 193)"/>
</clipPath>
<clipPath id="clip3">
<rect width="50" height="50" fill="white" transform="translate(213.318 193)"/>
</clipPath>
<clipPath id="clip4">
<rect width="50" height="50" fill="white" transform="translate(411.857 164) rotate(28.0853)"/>
</clipPath>
<clipPath id="clip5">
<rect width="50" height="50" fill="white" transform="translate(839.587 291.807) rotate(-125.83)"/>
</clipPath>
<clipPath id="clip6">
<rect width="50" height="50" fill="white" transform="translate(927.734 102.641) rotate(72.8422)"/>
</clipPath>
<clipPath id="clip7">
<rect width="40" height="40" fill="white" transform="translate(830.2 110.906) rotate(28.3214)"/>
</clipPath>
<clipPath id="clip8">
<rect width="40" height="40" fill="white" transform="translate(1079.29 207) rotate(28.3214)"/>
</clipPath>
<clipPath id="clip9">
<rect width="40" height="40" fill="white" transform="translate(950.977 83.5454) rotate(1.59477)"/>
</clipPath>
<clipPath id="clip10">
<rect width="40" height="40" fill="white" transform="translate(696.965 183.804) rotate(-30.261)"/>
</clipPath>
<clipPath id="clip11">
<rect width="40" height="40" fill="white" transform="translate(316.548 184) rotate(53.6827)"/>
</clipPath>
<clipPath id="clip12">
<rect width="40" height="40" fill="white" transform="translate(705.574 48.2617) rotate(-33.3769)"/>
</clipPath>
<clipPath id="clip13">
<rect width="40" height="40" fill="white" transform="translate(1076.32 116.006) rotate(-33.3769)"/>
</clipPath>
<clipPath id="clip14">
<rect width="40" height="40" fill="white" transform="translate(316.548 184) rotate(53.6827)"/>
</clipPath>
<clipPath id="clip15">
<rect width="50" height="50" fill="white" transform="translate(10.4902 104.682) rotate(25.4551)"/>
</clipPath>
<clipPath id="clip16">
<rect width="50" height="50" fill="white" transform="translate(870.079 156) rotate(32.3587)"/>
</clipPath>
<clipPath id="clip17">
<rect width="50" height="50" fill="white" transform="translate(508.809 131) rotate(25.4551)"/>
</clipPath>
<clipPath id="clip18">
<rect width="50" height="50" fill="white" transform="translate(751.809 206) rotate(25.4551)"/>
</clipPath>
<clipPath id="clip19">
<rect width="50" height="50" fill="white" transform="translate(45.9175 162.839) rotate(-31.654)"/>
</clipPath>
<clipPath id="clip20">
<rect width="50" height="50" fill="white" transform="translate(411.318 239.239) rotate(-31.654)"/>
</clipPath>
<clipPath id="clip21">
<rect width="50" height="50" fill="white" transform="translate(980.059 186) rotate(35.086)"/>
</clipPath>
<clipPath id="clip22">
<rect width="50" height="50" fill="white" transform="translate(843.318 78.2393) rotate(-31.654)"/>
</clipPath>
<clipPath id="clip23">
<rect width="50" height="50" fill="white" transform="translate(649.295 155) rotate(34.0235)"/>
</clipPath>
<clipPath id="clip24">
<rect width="50" height="50" fill="white" transform="translate(785.7 129) rotate(55.8564)"/>
</clipPath>
<clipPath id="clip25">
<rect width="50" height="50" fill="white" transform="translate(964.318 139.285) rotate(-7.22131)"/>
</clipPath>
<clipPath id="clip26">
<rect width="50" height="50" fill="white" transform="translate(894.318 53.5254) rotate(-40.5802)"/>
</clipPath>
<clipPath id="clip27">
<rect width="30" height="30" fill="white" transform="translate(973.318 74.9438) rotate(-86.4965)"/>
</clipPath>
<clipPath id="clip28">
<rect width="50" height="50" fill="white" transform="translate(330.318 230.285) rotate(-40.2182)"/>
</clipPath>
<clipPath id="clip29">
<rect width="50" height="50" fill="white" transform="translate(593.318 111.285) rotate(-40.2182)"/>
</clipPath>
<clipPath id="clip30">
<rect width="40" height="40" fill="white" transform="translate(547.759 232.54) rotate(-102.182)"/>
</clipPath>
<clipPath id="clip31">
<rect width="40" height="40" fill="white" transform="translate(852.759 54.5396) rotate(-102.182)"/>
</clipPath>
<clipPath id="clip32">
<rect width="40" height="40" fill="white" transform="translate(806.759 233.54) rotate(-102.182)"/>
</clipPath>
<clipPath id="clip33">
<rect width="40" height="40" fill="white" transform="translate(927.759 202.54) rotate(-102.182)"/>
</clipPath>
</defs>
</svg>
